<svg version="1.1" xmlns="http://www.w3.org/2000/svg" xmlns:xlink="http://www.w3.org/1999/xlink" width="108.7587890625" height="80"><defs/><g><g transform="translate(-10,-10) scale(1,1)"><rect fill="#C0C0C0" stroke="none" x="27" y="62" width="81.14453125" height="25" opacity="0.2"/></g><g transform="translate(-10,-10) scale(1,1)"><rect fill="#C0C0C0" stroke="none" x="98.806640625" y="27" width="18.337890625" height="39" opacity="0.2"/></g><g transform="translate(-10,-10) scale(1,1)"><rect fill="#ffffff" stroke="none" x="20" y="55" width="81.14453125" height="25"/></g><g transform="translate(-10,-10) scale(1,1)"><path fill="none" stroke="#000000" d="M 20 55 L 101.14453125 55 L 101.14453125 80 L 20 80 L 20 55 Z Z" stroke-miterlimit="10"/></g><g transform="translate(-10,-10) scale(1,1)"><g><path fill="none" stroke="none"/><text fill="#000000" stroke="none" font-family="Arial" font-size="14px" font-style="normal" font-weight="bold" text-decoration="none" x="36.06201171875" y="75.5">KeyPair</text></g></g><g transform="translate(-10,-10) scale(1,1)"><rect fill="#ffffff" stroke="none" x="91.806640625" y="20" width="18.337890625" height="39"/></g><g transform="translate(-10,-10) scale(1,1)"><path fill="none" stroke="#000000" d="M 91.806640625 20 L 110.14453125 20 L 110.14453125 59 L 91.806640625 59 L 91.806640625 20 Z Z" stroke-miterlimit="10" stroke-dasharray="3"/></g><g transform="translate(-10,-10) scale(1,1)"><g><path fill="none" stroke="none"/><text fill="#000000" stroke="none" font-family="Arial" font-size="14px" font-style="normal" font-weight="normal" text-decoration="none" x="96.806640625" y="38.5">K</text></g></g><g transform="translate(-10,-10) scale(1,1)"><g><path fill="none" stroke="none"/><text fill="#000000" stroke="none" font-family="Arial" font-size="14px" font-style="normal" font-weight="normal" text-decoration="none" x="96.806640625" y="54.5">V</text></g></g></g></svg>