<svg version="1.1" xmlns="http://www.w3.org/2000/svg" xmlns:xlink="http://www.w3.org/1999/xlink" width="214.69775390625" height="125"><defs/><g><g transform="translate(-10,-10) scale(1,1)"><rect fill="#C0C0C0" stroke="none" x="27" y="107" width="135.533203125" height="25" opacity="0.2"/></g><g transform="translate(-10,-10) scale(1,1)"><rect fill="#ffffff" stroke="none" x="20" y="100" width="135.533203125" height="25"/></g><g transform="translate(-10,-10) scale(1,1)"><path fill="none" stroke="#000000" d="M 20 100 L 155.533203125 100 L 155.533203125 125 L 20 125 L 20 100 Z Z" stroke-miterlimit="10"/></g><g transform="translate(-10,-10) scale(1,1)"><g><path fill="none" stroke="none"/><text fill="#000000" stroke="none" font-family="Arial" font-size="14px" font-style="normal" font-weight="bold" text-decoration="none" x="28.61181640625" y="120.5">StandardTablePool</text></g></g><g transform="translate(-10,-10) scale(1,1)"><path fill="#C0C0C0" stroke="none" d="M 80.93896484375 38.5 C 80.93896484375 32.1487248 86.08768964375 27 92.43896484375 27 C 98.79024004375 27 103.93896484375 32.1487248 103.93896484375 38.5 C 103.93896484375 44.8512752 98.79024004375 50 92.43896484375 50 C 86.08768964375 50 80.93896484375 44.8512752 80.93896484375 38.5 Z" opacity="0.2"/></g><g transform="translate(-10,-10) scale(1,1)"><path fill="#ffffff" stroke="none" d="M 73.93896484375 31.5 C 73.93896484375 25.1487248 79.08768964375 20 85.43896484375 20 C 91.79024004375 20 96.93896484375 25.1487248 96.93896484375 31.5 C 96.93896484375 37.8512752 91.79024004375 43 85.43896484375 43 C 79.08768964375 43 73.93896484375 37.8512752 73.93896484375 31.5 Z"/></g><g transform="translate(-10,-10) scale(1,1)"><path fill="none" stroke="#000000" d="M 73.93896484375 31.5 C 73.93896484375 25.1487248 79.08768964375 20 85.43896484375 20 C 91.79024004375 20 96.93896484375 25.1487248 96.93896484375 31.5 C 96.93896484375 37.8512752 91.79024004375 43 85.43896484375 43 C 79.08768964375 43 73.93896484375 37.8512752 73.93896484375 31.5 Z" stroke-miterlimit="10"/></g><g transform="translate(-10,-10) scale(1,1)"><g><path fill="none" stroke="none"/><text fill="#000000" stroke="none" font-family="Arial" font-size="14px" font-style="normal" font-weight="bold" text-decoration="none" x="54.6943359375" y="63.5">TablePool</text></g></g><g transform="translate(-10,-10) scale(1,1)"><rect fill="#C0C0C0" stroke="none" x="154.39404296875" y="31.5" width="29.42890625000001" height="15" opacity="0.2"/></g><g transform="translate(-10,-10) scale(1,1)"><rect fill="#C0C0C0" stroke="none" x="154.39404296875" y="45.5" width="73.572265625" height="26" opacity="0.2"/></g><g transform="translate(-10,-10) scale(1,1)"><rect fill="#ffffff" stroke="none" x="147.39404296875" y="39.5" width="73.572265625" height="25"/></g><g transform="translate(-10,-10) scale(1,1)"><path fill="none" stroke="#000000" d="M 147.39404296875 39.5 L 220.96630859375 39.5 L 220.96630859375 64.5 L 147.39404296875 64.5 L 147.39404296875 39.5 Z Z" stroke-miterlimit="10"/></g><g transform="translate(-10,-10) scale(1,1)"><rect fill="#ffffff" stroke="none" x="147.39404296875" y="24.5" width="29.42890625000001" height="15"/></g><g transform="translate(-10,-10) scale(1,1)"><path fill="none" stroke="#000000" d="M 147.39404296875 24.5 L 176.82294921875 24.5 L 176.82294921875 39.5 L 147.39404296875 39.5 L 147.39404296875 24.5 Z Z" stroke-miterlimit="10"/></g><g transform="translate(-10,-10) scale(1,1)"><rect fill="#ffffff" stroke="none" x="147.39404296875" y="38.5" width="73.572265625" height="26"/></g><g transform="translate(-10,-10) scale(1,1)"><path fill="none" stroke="#000000" d="M 147.39404296875 38.5 L 220.96630859375 38.5 L 220.96630859375 64.5 L 147.39404296875 64.5 L 147.39404296875 38.5 Z Z" stroke-miterlimit="10"/></g><g transform="translate(-10,-10) scale(1,1)"><g><path fill="none" stroke="none"/><text fill="#000000" stroke="none" font-family="Arial" font-size="14px" font-style="normal" font-weight="bold" text-decoration="none" x="154.21484375" y="60">generator</text></g></g><g transform="translate(-10,-10) scale(1,1)"><path fill="none" stroke="#000000" d="M 85 99 Q 83 85 84.6923076923077 43" stroke-miterlimit="10"/></g></g></svg>