<svg version="1.1" xmlns="http://www.w3.org/2000/svg" xmlns:xlink="http://www.w3.org/1999/xlink" width="262.69287109375" height="205"><defs/><g><g transform="translate(-10,-10) scale(1,1)"><path fill="#C0C0C0" stroke="none" d="M 145.60498046875 38.5 C 145.60498046875 32.1487248 150.75370526875 27 157.10498046875 27 C 163.45625566875 27 168.60498046875 32.1487248 168.60498046875 38.5 C 168.60498046875 44.8512752 163.45625566875 50 157.10498046875 50 C 150.75370526875 50 145.60498046875 44.8512752 145.60498046875 38.5 Z" opacity="0.2"/></g><g transform="translate(-10,-10) scale(1,1)"><path fill="#ffffff" stroke="none" d="M 138.60498046875 31.5 C 138.60498046875 25.1487248 143.75370526875 20 150.10498046875 20 C 156.45625566875 20 161.60498046875 25.1487248 161.60498046875 31.5 C 161.60498046875 37.8512752 156.45625566875 43 150.10498046875 43 C 143.75370526875 43 138.60498046875 37.8512752 138.60498046875 31.5 Z"/></g><g transform="translate(-10,-10) scale(1,1)"><path fill="none" stroke="#000000" d="M 138.60498046875 31.5 C 138.60498046875 25.1487248 143.75370526875 20 150.10498046875 20 C 156.45625566875 20 161.60498046875 25.1487248 161.60498046875 31.5 C 161.60498046875 37.8512752 156.45625566875 43 150.10498046875 43 C 143.75370526875 43 138.60498046875 37.8512752 138.60498046875 31.5 Z" stroke-miterlimit="10"/></g><g transform="translate(-10,-10) scale(1,1)"><g><path fill="none" stroke="none"/><text fill="#000000" stroke="none" font-family="Arial" font-size="14px" font-style="normal" font-weight="bold" text-decoration="none" x="100.69140625" y="63.5">ImmutableTable</text></g></g><g transform="translate(-10,-10) scale(1,1)"><rect fill="#C0C0C0" stroke="none" x="27" y="119" width="151.119140625" height="25" opacity="0.2"/></g><g transform="translate(-10,-10) scale(1,1)"><rect fill="#ffffff" stroke="none" x="20" y="112" width="151.119140625" height="25"/></g><g transform="translate(-10,-10) scale(1,1)"><path fill="none" stroke="#000000" d="M 20 112 L 171.119140625 112 L 171.119140625 137 L 20 137 L 20 112 Z Z" stroke-miterlimit="10"/></g><g transform="translate(-10,-10) scale(1,1)"><g><path fill="none" stroke="none"/><text fill="#000000" stroke="none" font-family="Arial" font-size="14px" font-style="normal" font-weight="bold" text-decoration="none" x="28.62890625" y="132.5">ResultSetBasedTable</text></g></g><g transform="translate(-10,-10) scale(1,1)"><rect fill="#C0C0C0" stroke="none" x="164.49072265625" y="187" width="105.2021484375" height="25" opacity="0.2"/></g><g transform="translate(-10,-10) scale(1,1)"><rect fill="#ffffff" stroke="none" x="157.49072265625" y="180" width="105.2021484375" height="25"/></g><g transform="translate(-10,-10) scale(1,1)"><path fill="none" stroke="#000000" d="M 157.49072265625 180 L 262.69287109375 180 L 262.69287109375 205 L 157.49072265625 205 L 157.49072265625 180 Z Z" stroke-miterlimit="10"/></g><g transform="translate(-10,-10) scale(1,1)"><g><path fill="none" stroke="none"/><text fill="#000000" stroke="none" font-family="Arial" font-size="14px" font-style="normal" font-weight="bold" text-decoration="none" x="164.947265625" y="200.5">StandardTable</text></g></g><g transform="translate(-10,-10) scale(1,1)"><path fill="#C0C0C0" stroke="none" d="M 203.26416015625 118.5 C 203.26416015625 112.1487248 208.41288495625 107 214.76416015625 107 C 221.11543535625 107 226.26416015625 112.1487248 226.26416015625 118.5 C 226.26416015625 124.8512752 221.11543535625 130 214.76416015625 130 C 208.41288495625 130 203.26416015625 124.8512752 203.26416015625 118.5 Z" opacity="0.2"/></g><g transform="translate(-10,-10) scale(1,1)"><path fill="#ffffff" stroke="none" d="M 196.26416015625 111.5 C 196.26416015625 105.1487248 201.41288495625 100 207.76416015625 100 C 214.11543535625 100 219.26416015625 105.1487248 219.26416015625 111.5 C 219.26416015625 117.8512752 214.11543535625 123 207.76416015625 123 C 201.41288495625 123 196.26416015625 117.8512752 196.26416015625 111.5 Z"/></g><g transform="translate(-10,-10) scale(1,1)"><path fill="none" stroke="#000000" d="M 196.26416015625 111.5 C 196.26416015625 105.1487248 201.41288495625 100 207.76416015625 100 C 214.11543535625 100 219.26416015625 105.1487248 219.26416015625 111.5 C 219.26416015625 117.8512752 214.11543535625 123 207.76416015625 123 C 201.41288495625 123 196.26416015625 117.8512752 196.26416015625 111.5 Z" stroke-miterlimit="10"/></g><g transform="translate(-10,-10) scale(1,1)"><g><path fill="none" stroke="none"/><text fill="#000000" stroke="none" font-family="Arial" font-size="14px" font-style="normal" font-weight="bold" text-decoration="none" x="191.02978515625" y="143.5">Table</text></g></g><g transform="translate(-10,-10) scale(1,1)"><path fill="none" stroke="#000000" d="M 93 111 Q 88 85 138.60498046875 42.39501953125" stroke-miterlimit="10"/></g><g transform="translate(-10,-10) scale(1,1)"><path fill="none" stroke="#000000" d="M 207 99 Q 207 85 186 70" stroke-miterlimit="10"/></g><g transform="translate(-10,-10) scale(1,1)"><path fill="#FFFFFF" stroke="none" d="M 207.4328823711502 74.96301856378133 L 186 70 L 197.64595238340945 88.66472054661843"/></g><g transform="translate(-10,-10) scale(1,1)"><path fill="none" stroke="#000000" d="M 207.4328823711502 74.96301856378133 L 186 70 L 197.64595238340945 88.66472054661843 L 207.4328823711502 74.96301856378133" stroke-miterlimit="10"/></g><g transform="translate(-10,-10) scale(1,1)"><path fill="none" stroke="#000000" d="M 209 179 Q 207 165 207 123" stroke-miterlimit="10"/></g></g></svg>