<svg version="1.1" xmlns="http://www.w3.org/2000/svg" xmlns:xlink="http://www.w3.org/1999/xlink" width="903.62109375" height="60"><defs/><g><g transform="translate(-10,-10) scale(1,1)"><rect fill="#C0C0C0" stroke="none" x="27" y="27.5" width="102.3994140625" height="39" opacity="0.2"/></g><g transform="translate(-10,-10) scale(1,1)"><rect fill="#ffffff" stroke="none" x="20" y="20.5" width="102.3994140625" height="39"/></g><g transform="translate(-10,-10) scale(1,1)"><path fill="none" stroke="#000000" d="M 20 20.5 L 122.3994140625 20.5 L 122.3994140625 59.5 L 20 59.5 L 20 20.5 Z Z" stroke-miterlimit="10"/></g><g transform="translate(-10,-10) scale(1,1)"><g><path fill="none" stroke="none"/><text fill="#000000" stroke="none" font-family="Arial" font-size="14px" font-style="normal" font-weight="normal" text-decoration="none" x="24.5" y="39">«enumeration»</text></g></g><g transform="translate(-10,-10) scale(1,1)"><g><path fill="none" stroke="none"/><text fill="#000000" stroke="none" font-family="Arial" font-size="14px" font-style="normal" font-weight="bold" text-decoration="none" x="33.4619140625" y="55">OrderStatus</text></g></g><g transform="translate(-10,-10) scale(1,1)"><rect fill="#C0C0C0" stroke="none" x="150.97265625" y="27" width="25.0703125" height="15" opacity="0.2"/></g><g transform="translate(-10,-10) scale(1,1)"><rect fill="#C0C0C0" stroke="none" x="150.97265625" y="41" width="62.67578125" height="26" opacity="0.2"/></g><g transform="translate(-10,-10) scale(1,1)"><rect fill="#ffffff" stroke="none" x="143.97265625" y="35" width="62.67578125" height="25"/></g><g transform="translate(-10,-10) scale(1,1)"><path fill="none" stroke="#000000" d="M 143.97265625 35 L 206.6484375 35 L 206.6484375 60 L 143.97265625 60 L 143.97265625 35 Z Z" stroke-miterlimit="10"/></g><g transform="translate(-10,-10) scale(1,1)"><rect fill="#ffffff" stroke="none" x="143.97265625" y="20" width="25.0703125" height="15"/></g><g transform="translate(-10,-10) scale(1,1)"><path fill="none" stroke="#000000" d="M 143.97265625 20 L 169.04296875 20 L 169.04296875 35 L 143.97265625 35 L 143.97265625 20 Z Z" stroke-miterlimit="10"/></g><g transform="translate(-10,-10) scale(1,1)"><rect fill="#ffffff" stroke="none" x="143.97265625" y="34" width="62.67578125" height="26"/></g><g transform="translate(-10,-10) scale(1,1)"><path fill="none" stroke="#000000" d="M 143.97265625 34 L 206.6484375 34 L 206.6484375 60 L 143.97265625 60 L 143.97265625 34 Z Z" stroke-miterlimit="10"/></g><g transform="translate(-10,-10) scale(1,1)"><g><path fill="none" stroke="none"/><text fill="#000000" stroke="none" font-family="Arial" font-size="14px" font-style="normal" font-weight="bold" text-decoration="none" x="150.79345703125" y="55.5">account</text></g></g><g transform="translate(-10,-10) scale(1,1)"><rect fill="#C0C0C0" stroke="none" x="237.634765625" y="27" width="37.197265625" height="15" opacity="0.2"/></g><g transform="translate(-10,-10) scale(1,1)"><rect fill="#C0C0C0" stroke="none" x="237.634765625" y="41" width="92.9931640625" height="26" opacity="0.2"/></g><g transform="translate(-10,-10) scale(1,1)"><rect fill="#ffffff" stroke="none" x="230.634765625" y="35" width="92.9931640625" height="25"/></g><g transform="translate(-10,-10) scale(1,1)"><path fill="none" stroke="#000000" d="M 230.634765625 35 L 323.6279296875 35 L 323.6279296875 60 L 230.634765625 60 L 230.634765625 35 Z Z" stroke-miterlimit="10"/></g><g transform="translate(-10,-10) scale(1,1)"><rect fill="#ffffff" stroke="none" x="230.634765625" y="20" width="37.197265625" height="15"/></g><g transform="translate(-10,-10) scale(1,1)"><path fill="none" stroke="#000000" d="M 230.634765625 20 L 267.83203125 20 L 267.83203125 35 L 230.634765625 35 L 230.634765625 20 Z Z" stroke-miterlimit="10"/></g><g transform="translate(-10,-10) scale(1,1)"><rect fill="#ffffff" stroke="none" x="230.634765625" y="34" width="92.9931640625" height="26"/></g><g transform="translate(-10,-10) scale(1,1)"><path fill="none" stroke="#000000" d="M 230.634765625 34 L 323.6279296875 34 L 323.6279296875 60 L 230.634765625 60 L 230.634765625 34 Z Z" stroke-miterlimit="10"/></g><g transform="translate(-10,-10) scale(1,1)"><g><path fill="none" stroke="none"/><text fill="#000000" stroke="none" font-family="Arial" font-size="14px" font-style="normal" font-weight="bold" text-decoration="none" x="238.60400390625" y="55.5">appointment</text></g></g><g transform="translate(-10,-10) scale(1,1)"><rect fill="#C0C0C0" stroke="none" x="353.869140625" y="27" width="19.600000000000023" height="15" opacity="0.2"/></g><g transform="translate(-10,-10) scale(1,1)"><rect fill="#C0C0C0" stroke="none" x="353.869140625" y="41" width="49" height="26" opacity="0.2"/></g><g transform="translate(-10,-10) scale(1,1)"><rect fill="#ffffff" stroke="none" x="346.869140625" y="35" width="49" height="25"/></g><g transform="translate(-10,-10) scale(1,1)"><path fill="none" stroke="#000000" d="M 346.869140625 35 L 395.869140625 35 L 395.869140625 60 L 346.869140625 60 L 346.869140625 35 Z Z" stroke-miterlimit="10"/></g><g transform="translate(-10,-10) scale(1,1)"><rect fill="#ffffff" stroke="none" x="346.869140625" y="20" width="19.600000000000023" height="15"/></g><g transform="translate(-10,-10) scale(1,1)"><path fill="none" stroke="#000000" d="M 346.869140625 20 L 366.469140625 20 L 366.469140625 35 L 346.869140625 35 L 346.869140625 20 Z Z" stroke-miterlimit="10"/></g><g transform="translate(-10,-10) scale(1,1)"><rect fill="#ffffff" stroke="none" x="346.869140625" y="34" width="49" height="26"/></g><g transform="translate(-10,-10) scale(1,1)"><path fill="none" stroke="#000000" d="M 346.869140625 34 L 395.869140625 34 L 395.869140625 60 L 346.869140625 60 L 346.869140625 34 Z Z" stroke-miterlimit="10"/></g><g transform="translate(-10,-10) scale(1,1)"><g><path fill="none" stroke="none"/><text fill="#000000" stroke="none" font-family="Arial" font-size="14px" font-style="normal" font-weight="bold" text-decoration="none" x="356.57958984375" y="55.5">login</text></g></g><g transform="translate(-10,-10) scale(1,1)"><rect fill="#C0C0C0" stroke="none" x="433.869140625" y="27" width="19.600000000000023" height="15" opacity="0.2"/></g><g transform="translate(-10,-10) scale(1,1)"><rect fill="#C0C0C0" stroke="none" x="433.869140625" y="41" width="49" height="26" opacity="0.2"/></g><g transform="translate(-10,-10) scale(1,1)"><rect fill="#ffffff" stroke="none" x="426.869140625" y="35" width="49" height="25"/></g><g transform="translate(-10,-10) scale(1,1)"><path fill="none" stroke="#000000" d="M 426.869140625 35 L 475.869140625 35 L 475.869140625 60 L 426.869140625 60 L 426.869140625 35 Z Z" stroke-miterlimit="10"/></g><g transform="translate(-10,-10) scale(1,1)"><rect fill="#ffffff" stroke="none" x="426.869140625" y="20" width="19.600000000000023" height="15"/></g><g transform="translate(-10,-10) scale(1,1)"><path fill="none" stroke="#000000" d="M 426.869140625 20 L 446.469140625 20 L 446.469140625 35 L 426.869140625 35 L 426.869140625 20 Z Z" stroke-miterlimit="10"/></g><g transform="translate(-10,-10) scale(1,1)"><rect fill="#ffffff" stroke="none" x="426.869140625" y="34" width="49" height="26"/></g><g transform="translate(-10,-10) scale(1,1)"><path fill="none" stroke="#000000" d="M 426.869140625 34 L 475.869140625 34 L 475.869140625 60 L 426.869140625 60 L 426.869140625 34 Z Z" stroke-miterlimit="10"/></g><g transform="translate(-10,-10) scale(1,1)"><g><path fill="none" stroke="none"/><text fill="#000000" stroke="none" font-family="Arial" font-size="14px" font-style="normal" font-weight="bold" text-decoration="none" x="433.85888671875" y="55.5">menu</text></g></g><g transform="translate(-10,-10) scale(1,1)"><rect fill="#C0C0C0" stroke="none" x="513.869140625" y="27" width="19.600000000000023" height="15" opacity="0.2"/></g><g transform="translate(-10,-10) scale(1,1)"><rect fill="#C0C0C0" stroke="none" x="513.869140625" y="41" width="49" height="26" opacity="0.2"/></g><g transform="translate(-10,-10) scale(1,1)"><rect fill="#ffffff" stroke="none" x="506.869140625" y="35" width="49" height="25"/></g><g transform="translate(-10,-10) scale(1,1)"><path fill="none" stroke="#000000" d="M 506.869140625 35 L 555.869140625 35 L 555.869140625 60 L 506.869140625 60 L 506.869140625 35 Z Z" stroke-miterlimit="10"/></g><g transform="translate(-10,-10) scale(1,1)"><rect fill="#ffffff" stroke="none" x="506.869140625" y="20" width="19.600000000000023" height="15"/></g><g transform="translate(-10,-10) scale(1,1)"><path fill="none" stroke="#000000" d="M 506.869140625 20 L 526.469140625 20 L 526.469140625 35 L 506.869140625 35 L 506.869140625 20 Z Z" stroke-miterlimit="10"/></g><g transform="translate(-10,-10) scale(1,1)"><rect fill="#ffffff" stroke="none" x="506.869140625" y="34" width="49" height="26"/></g><g transform="translate(-10,-10) scale(1,1)"><path fill="none" stroke="#000000" d="M 506.869140625 34 L 555.869140625 34 L 555.869140625 60 L 506.869140625 60 L 506.869140625 34 Z Z" stroke-miterlimit="10"/></g><g transform="translate(-10,-10) scale(1,1)"><g><path fill="none" stroke="none"/><text fill="#000000" stroke="none" font-family="Arial" font-size="14px" font-style="normal" font-weight="bold" text-decoration="none" x="515.02783203125" y="55.5">order</text></g></g><g transform="translate(-10,-10) scale(1,1)"><rect fill="#C0C0C0" stroke="none" x="593.869140625" y="27" width="26.62890625" height="15" opacity="0.2"/></g><g transform="translate(-10,-10) scale(1,1)"><rect fill="#C0C0C0" stroke="none" x="593.869140625" y="41" width="66.572265625" height="26" opacity="0.2"/></g><g transform="translate(-10,-10) scale(1,1)"><rect fill="#ffffff" stroke="none" x="586.869140625" y="35" width="66.572265625" height="25"/></g><g transform="translate(-10,-10) scale(1,1)"><path fill="none" stroke="#000000" d="M 586.869140625 35 L 653.44140625 35 L 653.44140625 60 L 586.869140625 60 L 586.869140625 35 Z Z" stroke-miterlimit="10"/></g><g transform="translate(-10,-10) scale(1,1)"><rect fill="#ffffff" stroke="none" x="586.869140625" y="20" width="26.62890625" height="15"/></g><g transform="translate(-10,-10) scale(1,1)"><path fill="none" stroke="#000000" d="M 586.869140625 20 L 613.498046875 20 L 613.498046875 35 L 586.869140625 35 L 586.869140625 20 Z Z" stroke-miterlimit="10"/></g><g transform="translate(-10,-10) scale(1,1)"><rect fill="#ffffff" stroke="none" x="586.869140625" y="34" width="66.572265625" height="26"/></g><g transform="translate(-10,-10) scale(1,1)"><path fill="none" stroke="#000000" d="M 586.869140625 34 L 653.44140625 34 L 653.44140625 60 L 586.869140625 60 L 586.869140625 34 Z Z" stroke-miterlimit="10"/></g><g transform="translate(-10,-10) scale(1,1)"><g><path fill="none" stroke="none"/><text fill="#000000" stroke="none" font-family="Arial" font-size="14px" font-style="normal" font-weight="bold" text-decoration="none" x="593.30712890625" y="55.5">payment</text></g></g><g transform="translate(-10,-10) scale(1,1)"><rect fill="#C0C0C0" stroke="none" x="685.9794921875" y="27" width="19.600000000000023" height="15" opacity="0.2"/></g><g transform="translate(-10,-10) scale(1,1)"><rect fill="#C0C0C0" stroke="none" x="685.9794921875" y="41" width="49" height="26" opacity="0.2"/></g><g transform="translate(-10,-10) scale(1,1)"><rect fill="#ffffff" stroke="none" x="678.9794921875" y="35" width="49" height="25"/></g><g transform="translate(-10,-10) scale(1,1)"><path fill="none" stroke="#000000" d="M 678.9794921875 35 L 727.9794921875 35 L 727.9794921875 60 L 678.9794921875 60 L 678.9794921875 35 Z Z" stroke-miterlimit="10"/></g><g transform="translate(-10,-10) scale(1,1)"><rect fill="#ffffff" stroke="none" x="678.9794921875" y="20" width="19.600000000000023" height="15"/></g><g transform="translate(-10,-10) scale(1,1)"><path fill="none" stroke="#000000" d="M 678.9794921875 20 L 698.5794921875 20 L 698.5794921875 35 L 678.9794921875 35 L 678.9794921875 20 Z Z" stroke-miterlimit="10"/></g><g transform="translate(-10,-10) scale(1,1)"><rect fill="#ffffff" stroke="none" x="678.9794921875" y="34" width="49" height="26"/></g><g transform="translate(-10,-10) scale(1,1)"><path fill="none" stroke="#000000" d="M 678.9794921875 34 L 727.9794921875 34 L 727.9794921875 60 L 678.9794921875 60 L 678.9794921875 34 Z Z" stroke-miterlimit="10"/></g><g transform="translate(-10,-10) scale(1,1)"><g><path fill="none" stroke="none"/><text fill="#000000" stroke="none" font-family="Arial" font-size="14px" font-style="normal" font-weight="bold" text-decoration="none" x="688.30029296875" y="55.5">table</text></g></g><g transform="translate(-10,-10) scale(1,1)"><rect fill="#C0C0C0" stroke="none" x="765.9794921875" y="27" width="22.888281249999977" height="15" opacity="0.2"/></g><g transform="translate(-10,-10) scale(1,1)"><rect fill="#C0C0C0" stroke="none" x="765.9794921875" y="41" width="57.220703125" height="26" opacity="0.2"/></g><g transform="translate(-10,-10) scale(1,1)"><rect fill="#ffffff" stroke="none" x="758.9794921875" y="35" width="57.220703125" height="25"/></g><g transform="translate(-10,-10) scale(1,1)"><path fill="none" stroke="#000000" d="M 758.9794921875 35 L 816.2001953125 35 L 816.2001953125 60 L 758.9794921875 60 L 758.9794921875 35 Z Z" stroke-miterlimit="10"/></g><g transform="translate(-10,-10) scale(1,1)"><rect fill="#ffffff" stroke="none" x="758.9794921875" y="20" width="22.888281249999977" height="15"/></g><g transform="translate(-10,-10) scale(1,1)"><path fill="none" stroke="#000000" d="M 758.9794921875 20 L 781.8677734375 20 L 781.8677734375 35 L 758.9794921875 35 L 758.9794921875 20 Z Z" stroke-miterlimit="10"/></g><g transform="translate(-10,-10) scale(1,1)"><rect fill="#ffffff" stroke="none" x="758.9794921875" y="34" width="57.220703125" height="26"/></g><g transform="translate(-10,-10) scale(1,1)"><path fill="none" stroke="#000000" d="M 758.9794921875 34 L 816.2001953125 34 L 816.2001953125 60 L 758.9794921875 60 L 758.9794921875 34 Z Z" stroke-miterlimit="10"/></g><g transform="translate(-10,-10) scale(1,1)"><g><path fill="none" stroke="none"/><text fill="#000000" stroke="none" font-family="Arial" font-size="14px" font-style="normal" font-weight="bold" text-decoration="none" x="765.80029296875" y="55.5">waiting</text></g></g><g transform="translate(-10,-10) scale(1,1)"><rect fill="#C0C0C0" stroke="none" x="850.3173828125" y="27" width="27.255078124999955" height="15" opacity="0.2"/></g><g transform="translate(-10,-10) scale(1,1)"><rect fill="#C0C0C0" stroke="none" x="850.3173828125" y="41" width="68.1376953125" height="26" opacity="0.2"/></g><g transform="translate(-10,-10) scale(1,1)"><rect fill="#ffffff" stroke="none" x="843.3173828125" y="35" width="68.1376953125" height="25"/></g><g transform="translate(-10,-10) scale(1,1)"><path fill="none" stroke="#000000" d="M 843.3173828125 35 L 911.455078125 35 L 911.455078125 60 L 843.3173828125 60 L 843.3173828125 35 Z Z" stroke-miterlimit="10"/></g><g transform="translate(-10,-10) scale(1,1)"><rect fill="#ffffff" stroke="none" x="843.3173828125" y="20" width="27.255078124999955" height="15"/></g><g transform="translate(-10,-10) scale(1,1)"><path fill="none" stroke="#000000" d="M 843.3173828125 20 L 870.5724609375 20 L 870.5724609375 35 L 843.3173828125 35 L 843.3173828125 20 Z Z" stroke-miterlimit="10"/></g><g transform="translate(-10,-10) scale(1,1)"><rect fill="#ffffff" stroke="none" x="843.3173828125" y="34" width="68.1376953125" height="26"/></g><g transform="translate(-10,-10) scale(1,1)"><path fill="none" stroke="#000000" d="M 843.3173828125 34 L 911.455078125 34 L 911.455078125 60 L 843.3173828125 60 L 843.3173828125 34 Z Z" stroke-miterlimit="10"/></g><g transform="translate(-10,-10) scale(1,1)"><g><path fill="none" stroke="none"/><text fill="#000000" stroke="none" font-family="Arial" font-size="14px" font-style="normal" font-weight="bold" text-decoration="none" x="849.765625" y="55.5">welcome</text></g></g></g></svg>