<svg version="1.1" xmlns="http://www.w3.org/2000/svg" xmlns:xlink="http://www.w3.org/1999/xlink" width="245.599609375" height="45"><defs/><g><g transform="translate(-10,-10) scale(1,1)"><rect fill="#C0C0C0" stroke="none" x="27" y="27" width="96.08984375" height="25" opacity="0.2"/></g><g transform="translate(-10,-10) scale(1,1)"><rect fill="#ffffff" stroke="none" x="20" y="20" width="96.08984375" height="25"/></g><g transform="translate(-10,-10) scale(1,1)"><path fill="none" stroke="#000000" d="M 20 20 L 116.08984375 20 L 116.08984375 45 L 20 45 L 20 20 Z Z" stroke-miterlimit="10"/></g><g transform="translate(-10,-10) scale(1,1)"><g><path fill="none" stroke="none"/><text fill="#000000" stroke="none" font-family="Arial" font-size="14px" font-style="normal" font-weight="bold" text-decoration="none" x="27.958984375" y="40.5">LoginModule</text></g></g><g transform="translate(-10,-10) scale(1,1)"><rect fill="#C0C0C0" stroke="none" x="147.9033203125" y="27" width="110.896484375" height="25" opacity="0.2"/></g><g transform="translate(-10,-10) scale(1,1)"><rect fill="#ffffff" stroke="none" x="140.9033203125" y="20" width="110.896484375" height="25"/></g><g transform="translate(-10,-10) scale(1,1)"><path fill="none" stroke="#000000" d="M 140.9033203125 20 L 251.7998046875 20 L 251.7998046875 45 L 140.9033203125 45 L 140.9033203125 20 Z Z" stroke-miterlimit="10"/></g><g transform="translate(-10,-10) scale(1,1)"><g><path fill="none" stroke="none"/><text fill="#000000" stroke="none" font-family="Arial" font-size="14px" font-style="normal" font-weight="bold" text-decoration="none" x="149.2724609375" y="40.5">LoginUIDisplay</text></g></g></g></svg>