<svg version="1.1" xmlns="http://www.w3.org/2000/svg" xmlns:xlink="http://www.w3.org/1999/xlink" width="344.504150390625" height="125"><defs/><g><g transform="translate(-10,-10) scale(1,1)"><path fill="#C0C0C0" stroke="none" d="M 122.935302734375 38.5 C 122.935302734375 32.1487248 128.084027534375 27 134.435302734375 27 C 140.786577934375 27 145.935302734375 32.1487248 145.935302734375 38.5 C 145.935302734375 44.8512752 140.786577934375 50 134.435302734375 50 C 128.084027534375 50 122.935302734375 44.8512752 122.935302734375 38.5 Z" opacity="0.2"/></g><g transform="translate(-10,-10) scale(1,1)"><path fill="#ffffff" stroke="none" d="M 115.935302734375 31.5 C 115.935302734375 25.1487248 121.084027534375 20 127.435302734375 20 C 133.786577934375 20 138.935302734375 25.1487248 138.935302734375 31.5 C 138.935302734375 37.8512752 133.786577934375 43 127.435302734375 43 C 121.084027534375 43 115.935302734375 37.8512752 115.935302734375 31.5 Z"/></g><g transform="translate(-10,-10) scale(1,1)"><path fill="none" stroke="#000000" d="M 115.935302734375 31.5 C 115.935302734375 25.1487248 121.084027534375 20 127.435302734375 20 C 133.786577934375 20 138.935302734375 25.1487248 138.935302734375 31.5 C 138.935302734375 37.8512752 133.786577934375 43 127.435302734375 43 C 121.084027534375 43 115.935302734375 37.8512752 115.935302734375 31.5 Z" stroke-miterlimit="10"/></g><g transform="translate(-10,-10) scale(1,1)"><g><path fill="none" stroke="none"/><text fill="#000000" stroke="none" font-family="Arial" font-size="14px" font-style="normal" font-weight="bold" text-decoration="none" x="111.873291015625" y="63.5">Exec</text></g></g><g transform="translate(-10,-10) scale(1,1)"><rect fill="#C0C0C0" stroke="none" x="27" y="107" width="119.3525390625" height="25" opacity="0.2"/></g><g transform="translate(-10,-10) scale(1,1)"><rect fill="#ffffff" stroke="none" x="20" y="100" width="119.3525390625" height="25"/></g><g transform="translate(-10,-10) scale(1,1)"><path fill="none" stroke="#000000" d="M 20 100 L 139.3525390625 100 L 139.3525390625 125 L 20 125 L 20 100 Z Z" stroke-miterlimit="10"/></g><g transform="translate(-10,-10) scale(1,1)"><g><path fill="none" stroke="none"/><text fill="#000000" stroke="none" font-family="Arial" font-size="14px" font-style="italic" font-weight="bold" text-decoration="none" x="27.603515625" y="120.5">ExecWithSender</text></g></g><g transform="translate(-10,-10) scale(1,1)"><rect fill="#C0C0C0" stroke="none" x="163.71484375" y="107" width="47.6572265625" height="25" opacity="0.2"/></g><g transform="translate(-10,-10) scale(1,1)"><rect fill="#ffffff" stroke="none" x="156.71484375" y="100" width="47.6572265625" height="25"/></g><g transform="translate(-10,-10) scale(1,1)"><path fill="none" stroke="#000000" d="M 156.71484375 100 L 204.3720703125 100 L 204.3720703125 125 L 156.71484375 125 L 156.71484375 100 Z Z" stroke-miterlimit="10"/></g><g transform="translate(-10,-10) scale(1,1)"><g><path fill="none" stroke="none"/><text fill="#000000" stroke="none" font-family="Arial" font-size="14px" font-style="normal" font-weight="bold" text-decoration="none" x="162.650390625" y="120.5">Tasks</text></g></g><g transform="translate(-10,-10) scale(1,1)"><rect fill="#C0C0C0" stroke="none" x="182.352783203125" y="31.5" width="19.599999999999994" height="15" opacity="0.2"/></g><g transform="translate(-10,-10) scale(1,1)"><rect fill="#C0C0C0" stroke="none" x="182.352783203125" y="45.5" width="49" height="26" opacity="0.2"/></g><g transform="translate(-10,-10) scale(1,1)"><rect fill="#ffffff" stroke="none" x="175.352783203125" y="39.5" width="49" height="25"/></g><g transform="translate(-10,-10) scale(1,1)"><path fill="none" stroke="#000000" d="M 175.352783203125 39.5 L 224.352783203125 39.5 L 224.352783203125 64.5 L 175.352783203125 64.5 L 175.352783203125 39.5 Z Z" stroke-miterlimit="10"/></g><g transform="translate(-10,-10) scale(1,1)"><rect fill="#ffffff" stroke="none" x="175.352783203125" y="24.5" width="19.599999999999994" height="15"/></g><g transform="translate(-10,-10) scale(1,1)"><path fill="none" stroke="#000000" d="M 175.352783203125 24.5 L 194.952783203125 24.5 L 194.952783203125 39.5 L 175.352783203125 39.5 L 175.352783203125 24.5 Z Z" stroke-miterlimit="10"/></g><g transform="translate(-10,-10) scale(1,1)"><rect fill="#ffffff" stroke="none" x="175.352783203125" y="38.5" width="49" height="26"/></g><g transform="translate(-10,-10) scale(1,1)"><path fill="none" stroke="#000000" d="M 175.352783203125 38.5 L 224.352783203125 38.5 L 224.352783203125 64.5 L 175.352783203125 64.5 L 175.352783203125 38.5 Z Z" stroke-miterlimit="10"/></g><g transform="translate(-10,-10) scale(1,1)"><g><path fill="none" stroke="none"/><text fill="#000000" stroke="none" font-family="Arial" font-size="14px" font-style="normal" font-weight="bold" text-decoration="none" x="183.125244140625" y="60">recall</text></g></g><g transform="translate(-10,-10) scale(1,1)"><rect fill="#C0C0C0" stroke="none" x="262.352783203125" y="31.5" width="35.66054687500002" height="15" opacity="0.2"/></g><g transform="translate(-10,-10) scale(1,1)"><rect fill="#C0C0C0" stroke="none" x="262.352783203125" y="45.5" width="89.1513671875" height="26" opacity="0.2"/></g><g transform="translate(-10,-10) scale(1,1)"><rect fill="#ffffff" stroke="none" x="255.352783203125" y="39.5" width="89.1513671875" height="25"/></g><g transform="translate(-10,-10) scale(1,1)"><path fill="none" stroke="#000000" d="M 255.352783203125 39.5 L 344.504150390625 39.5 L 344.504150390625 64.5 L 255.352783203125 64.5 L 255.352783203125 39.5 Z Z" stroke-miterlimit="10"/></g><g transform="translate(-10,-10) scale(1,1)"><rect fill="#ffffff" stroke="none" x="255.352783203125" y="24.5" width="35.66054687500002" height="15"/></g><g transform="translate(-10,-10) scale(1,1)"><path fill="none" stroke="#000000" d="M 255.352783203125 24.5 L 291.013330078125 24.5 L 291.013330078125 39.5 L 255.352783203125 39.5 L 255.352783203125 24.5 Z Z" stroke-miterlimit="10"/></g><g transform="translate(-10,-10) scale(1,1)"><rect fill="#ffffff" stroke="none" x="255.352783203125" y="38.5" width="89.1513671875" height="26"/></g><g transform="translate(-10,-10) scale(1,1)"><path fill="none" stroke="#000000" d="M 255.352783203125 38.5 L 344.504150390625 38.5 L 344.504150390625 64.5 L 255.352783203125 64.5 L 255.352783203125 38.5 Z Z" stroke-miterlimit="10"/></g><g transform="translate(-10,-10) scale(1,1)"><g><path fill="none" stroke="none"/><text fill="#000000" stroke="none" font-family="Arial" font-size="14px" font-style="normal" font-weight="bold" text-decoration="none" x="262.580322265625" y="60">tasksCenter</text></g></g><g transform="translate(-10,-10) scale(1,1)"><path fill="none" stroke="#000000" d="M 76 99 Q 73 85 118.3103448275862 43" stroke-miterlimit="10"/></g><g transform="translate(-10,-10) scale(1,1)"><path fill="none" stroke="#000000" d="M 170 99 L 133.15384615384616 43" stroke-miterlimit="10"/></g><g transform="translate(-10,-10) scale(1,1)"><path fill="none" stroke="#000000" d="M 180 99 Q 179 85 149 62" stroke-miterlimit="10"/></g><g transform="translate(-10,-10) scale(1,1)"><path fill="none" stroke="#000000" d="M 159.62636680109688 64.84259188216427 L 149 62 L 154.50396002840702 71.52399202045538" stroke-miterlimit="10"/></g><g transform="translate(-10,-10) scale(1,1)"><g><path fill="none" stroke="none"/><text fill="#000000" stroke="none" font-family="Arial" font-size="14px" font-style="normal" font-weight="normal" text-decoration="none" x="120.5" y="95.5">-tasksQueue</text></g></g><g transform="translate(-10,-10) scale(1,1)"><g><path fill="none" stroke="none"/><text fill="#000000" stroke="none" font-family="Arial" font-size="14px" font-style="normal" font-weight="normal" text-decoration="none" x="58.5" y="107.5">{readOnly, collection="Queue"}</text></g></g><g transform="translate(-10,-10) scale(1,1)"><g><path fill="none" stroke="none"/><text fill="#000000" stroke="none" font-family="Arial" font-size="14px" font-style="normal" font-weight="normal" text-decoration="none" x="170.27587890625" y="71.5">*</text></g></g></g></svg>