<svg version="1.1" xmlns="http://www.w3.org/2000/svg" xmlns:xlink="http://www.w3.org/1999/xlink" width="703.767578125" height="200"><defs/><g><g transform="translate(-10,-10) scale(1,1)"><rect fill="#C0C0C0" stroke="none" x="27" y="172.5" width="147.4619140625" height="25" opacity="0.2"/></g><g transform="translate(-10,-10) scale(1,1)"><rect fill="#ffffff" stroke="none" x="20" y="165.5" width="147.4619140625" height="25"/></g><g transform="translate(-10,-10) scale(1,1)"><path fill="none" stroke="#000000" d="M 20 165.5 L 167.4619140625 165.5 L 167.4619140625 190.5 L 20 190.5 L 20 165.5 Z Z" stroke-miterlimit="10"/></g><g transform="translate(-10,-10) scale(1,1)"><g><path fill="none" stroke="none"/><text fill="#000000" stroke="none" font-family="Arial" font-size="14px" font-style="normal" font-weight="bold" text-decoration="none" x="29.91748046875" y="186">LookOnlyOperations</text></g></g><g transform="translate(-10,-10) scale(1,1)"><rect fill="#C0C0C0" stroke="none" x="194.5791015625" y="172.5" width="133.455078125" height="25" opacity="0.2"/></g><g transform="translate(-10,-10) scale(1,1)"><rect fill="#ffffff" stroke="none" x="187.5791015625" y="165.5" width="133.455078125" height="25"/></g><g transform="translate(-10,-10) scale(1,1)"><path fill="none" stroke="#000000" d="M 187.5791015625 165.5 L 321.0341796875 165.5 L 321.0341796875 190.5 L 187.5791015625 190.5 L 187.5791015625 165.5 Z Z" stroke-miterlimit="10"/></g><g transform="translate(-10,-10) scale(1,1)"><g><path fill="none" stroke="none"/><text fill="#000000" stroke="none" font-family="Arial" font-size="14px" font-style="normal" font-weight="bold" text-decoration="none" x="195.55517578125" y="186">MenuUIOperations</text></g></g><g transform="translate(-10,-10) scale(1,1)"><rect fill="#C0C0C0" stroke="none" x="352.02734375" y="172.5" width="145.158203125" height="25" opacity="0.2"/></g><g transform="translate(-10,-10) scale(1,1)"><rect fill="#ffffff" stroke="none" x="345.02734375" y="165.5" width="145.158203125" height="25"/></g><g transform="translate(-10,-10) scale(1,1)"><path fill="none" stroke="#000000" d="M 345.02734375 165.5 L 490.185546875 165.5 L 490.185546875 190.5 L 345.02734375 190.5 L 345.02734375 165.5 Z Z" stroke-miterlimit="10"/></g><g transform="translate(-10,-10) scale(1,1)"><g><path fill="none" stroke="none"/><text fill="#000000" stroke="none" font-family="Arial" font-size="14px" font-style="normal" font-weight="bold" text-decoration="none" x="353.41015625" y="186">PaymentUIPerations</text></g></g><g transform="translate(-10,-10) scale(1,1)"><path fill="#C0C0C0" stroke="none" d="M 331.67529296875 38.5 C 331.67529296875 32.1487248 336.82401776875 27 343.17529296875 27 C 349.52656816875 27 354.67529296875 32.1487248 354.67529296875 38.5 C 354.67529296875 44.8512752 349.52656816875 50 343.17529296875 50 C 336.82401776875 50 331.67529296875 44.8512752 331.67529296875 38.5 Z" opacity="0.2"/></g><g transform="translate(-10,-10) scale(1,1)"><path fill="#ffffff" stroke="none" d="M 324.67529296875 31.5 C 324.67529296875 25.1487248 329.82401776875 20 336.17529296875 20 C 342.52656816875 20 347.67529296875 25.1487248 347.67529296875 31.5 C 347.67529296875 37.8512752 342.52656816875 43 336.17529296875 43 C 329.82401776875 43 324.67529296875 37.8512752 324.67529296875 31.5 Z"/></g><g transform="translate(-10,-10) scale(1,1)"><path fill="none" stroke="#000000" d="M 324.67529296875 31.5 C 324.67529296875 25.1487248 329.82401776875 20 336.17529296875 20 C 342.52656816875 20 347.67529296875 25.1487248 347.67529296875 31.5 C 347.67529296875 37.8512752 342.52656816875 43 336.17529296875 43 C 329.82401776875 43 324.67529296875 37.8512752 324.67529296875 31.5 Z" stroke-miterlimit="10"/></g><g transform="translate(-10,-10) scale(1,1)"><g><path fill="none" stroke="none"/><text fill="#000000" stroke="none" font-family="Arial" font-size="14px" font-style="normal" font-weight="bold" text-decoration="none" x="266.92041015625" y="63.5">UIOPerationsInterface</text></g></g><g transform="translate(-10,-10) scale(1,1)"><rect fill="#C0C0C0" stroke="none" x="292.7412109375" y="107" width="96.9033203125" height="25" opacity="0.2"/></g><g transform="translate(-10,-10) scale(1,1)"><rect fill="#ffffff" stroke="none" x="285.7412109375" y="100" width="96.9033203125" height="25"/></g><g transform="translate(-10,-10) scale(1,1)"><path fill="none" stroke="#000000" d="M 285.7412109375 100 L 382.64453125 100 L 382.64453125 125 L 285.7412109375 125 L 285.7412109375 100 Z Z" stroke-miterlimit="10"/></g><g transform="translate(-10,-10) scale(1,1)"><g><path fill="none" stroke="none"/><text fill="#000000" stroke="none" font-family="Arial" font-size="14px" font-style="normal" font-weight="bold" text-decoration="none" x="292.95166015625" y="120.5">UIOperations</text></g></g><g transform="translate(-10,-10) scale(1,1)"><rect fill="#C0C0C0" stroke="none" x="517.2275390625" y="182" width="194.5595703125" height="25" opacity="0.2"/></g><g transform="translate(-10,-10) scale(1,1)"><rect fill="#C0C0C0" stroke="none" x="702.44921875" y="163" width="18.337890625" height="23" opacity="0.2"/></g><g transform="translate(-10,-10) scale(1,1)"><rect fill="#ffffff" stroke="none" x="510.2275390625" y="175" width="194.5595703125" height="25"/></g><g transform="translate(-10,-10) scale(1,1)"><path fill="none" stroke="#000000" d="M 510.2275390625 175 L 704.787109375 175 L 704.787109375 200 L 510.2275390625 200 L 510.2275390625 175 Z Z" stroke-miterlimit="10"/></g><g transform="translate(-10,-10) scale(1,1)"><g><path fill="none" stroke="none"/><text fill="#000000" stroke="none" font-family="Arial" font-size="14px" font-style="normal" font-weight="bold" text-decoration="none" x="529.69384765625" y="195.5">UIOperationsWithSender</text></g></g><g transform="translate(-10,-10) scale(1,1)"><rect fill="#ffffff" stroke="none" x="695.44921875" y="156" width="18.337890625" height="23"/></g><g transform="translate(-10,-10) scale(1,1)"><path fill="none" stroke="#000000" d="M 695.44921875 156 L 713.787109375 156 L 713.787109375 179 L 695.44921875 179 L 695.44921875 156 Z Z" stroke-miterlimit="10" stroke-dasharray="3"/></g><g transform="translate(-10,-10) scale(1,1)"><g><path fill="none" stroke="none"/><text fill="#000000" stroke="none" font-family="Arial" font-size="14px" font-style="normal" font-weight="normal" text-decoration="none" x="700.44921875" y="174.5">E</text></g></g><g transform="translate(-10,-10) scale(1,1)"><path fill="none" stroke="#000000" d="M 92 165 Q 89 141 285 118" stroke-miterlimit="10"/></g><g transform="translate(-10,-10) scale(1,1)"><path fill="#FFFFFF" stroke="none" d="M 265.7943798273593 128.73052439465366 L 285 118 L 263.83194917388533 112.00720230417988"/></g><g transform="translate(-10,-10) scale(1,1)"><path fill="none" stroke="#000000" d="M 265.7943798273593 128.73052439465366 L 285 118 L 263.83194917388533 112.00720230417988 L 265.7943798273593 128.73052439465366" stroke-miterlimit="10"/></g><g transform="translate(-10,-10) scale(1,1)"><path fill="none" stroke="#000000" d="M 253 165 Q 251 141 294 126" stroke-miterlimit="10"/></g><g transform="translate(-10,-10) scale(1,1)"><path fill="#FFFFFF" stroke="none" d="M 277.58179699163196 140.6438591216938 L 294 126 L 272.0358052301954 124.74534940557574"/></g><g transform="translate(-10,-10) scale(1,1)"><path fill="none" stroke="#000000" d="M 277.58179699163196 140.6438591216938 L 294 126 L 272.0358052301954 124.74534940557574 L 277.58179699163196 140.6438591216938" stroke-miterlimit="10"/></g><g transform="translate(-10,-10) scale(1,1)"><path fill="none" stroke="#000000" d="M 416 165 Q 413 141 372 126" stroke-miterlimit="10"/></g><g transform="translate(-10,-10) scale(1,1)"><path fill="#FFFFFF" stroke="none" d="M 393.980625507913 125.07690613647007 L 372 126 L 388.1953752819409 140.88992342079354"/></g><g transform="translate(-10,-10) scale(1,1)"><path fill="none" stroke="#000000" d="M 393.980625507913 125.07690613647007 L 372 126 L 388.1953752819409 140.88992342079354 L 393.980625507913 125.07690613647007" stroke-miterlimit="10"/></g><g transform="translate(-10,-10) scale(1,1)"><path fill="none" stroke="#000000" d="M 333 99 Q 332 85 335.0769230769231 43" stroke-miterlimit="10"/></g><g transform="translate(-10,-10) scale(1,1)"><path fill="none" stroke="#000000" d="M 609 155 Q 607 141 384 117" stroke-miterlimit="10"/></g><g transform="translate(-10,-10) scale(1,1)"><path fill="#FFFFFF" stroke="none" d="M 405.1095327055761 110.80422491110168 L 384 117 L 403.3077683038588 127.54561914372539"/></g><g transform="translate(-10,-10) scale(1,1)"><path fill="none" stroke="#000000" d="M 405.1095327055761 110.80422491110168 L 384 117 L 403.3077683038588 127.54561914372539 L 405.1095327055761 110.80422491110168" stroke-miterlimit="10"/></g></g></svg>