<svg version="1.1" xmlns="http://www.w3.org/2000/svg" xmlns:xlink="http://www.w3.org/1999/xlink" width="3760.4990234375" height="69"><defs/><g><g transform="translate(-10,-10) scale(1,1)"><rect fill="#C0C0C0" stroke="none" x="27" y="31.5" width="27.878515625" height="15" opacity="0.2"/></g><g transform="translate(-10,-10) scale(1,1)"><rect fill="#C0C0C0" stroke="none" x="27" y="45.5" width="69.6962890625" height="26" opacity="0.2"/></g><g transform="translate(-10,-10) scale(1,1)"><rect fill="#ffffff" stroke="none" x="20" y="39.5" width="69.6962890625" height="25"/></g><g transform="translate(-10,-10) scale(1,1)"><path fill="none" stroke="#000000" d="M 20 39.5 L 89.6962890625 39.5 L 89.6962890625 64.5 L 20 64.5 L 20 39.5 Z Z" stroke-miterlimit="10"/></g><g transform="translate(-10,-10) scale(1,1)"><rect fill="#ffffff" stroke="none" x="20" y="24.5" width="27.878515625" height="15"/></g><g transform="translate(-10,-10) scale(1,1)"><path fill="none" stroke="#000000" d="M 20 24.5 L 47.878515625 24.5 L 47.878515625 39.5 L 20 39.5 L 20 24.5 Z Z" stroke-miterlimit="10"/></g><g transform="translate(-10,-10) scale(1,1)"><rect fill="#ffffff" stroke="none" x="20" y="38.5" width="69.6962890625" height="26"/></g><g transform="translate(-10,-10) scale(1,1)"><path fill="none" stroke="#000000" d="M 20 38.5 L 89.6962890625 38.5 L 89.6962890625 64.5 L 20 64.5 L 20 38.5 Z Z" stroke-miterlimit="10"/></g><g transform="translate(-10,-10) scale(1,1)"><g><path fill="none" stroke="none"/><text fill="#000000" stroke="none" font-family="Arial" font-size="14px" font-style="normal" font-weight="bold" text-decoration="none" x="26.044921875" y="60">database</text></g></g><g transform="translate(-10,-10) scale(1,1)"><rect fill="#C0C0C0" stroke="none" x="119.896484375" y="31.5" width="19.599999999999994" height="15" opacity="0.2"/></g><g transform="translate(-10,-10) scale(1,1)"><rect fill="#C0C0C0" stroke="none" x="119.896484375" y="45.5" width="49" height="26" opacity="0.2"/></g><g transform="translate(-10,-10) scale(1,1)"><rect fill="#ffffff" stroke="none" x="112.896484375" y="39.5" width="49" height="25"/></g><g transform="translate(-10,-10) scale(1,1)"><path fill="none" stroke="#000000" d="M 112.896484375 39.5 L 161.896484375 39.5 L 161.896484375 64.5 L 112.896484375 64.5 L 112.896484375 39.5 Z Z" stroke-miterlimit="10"/></g><g transform="translate(-10,-10) scale(1,1)"><rect fill="#ffffff" stroke="none" x="112.896484375" y="24.5" width="19.599999999999994" height="15"/></g><g transform="translate(-10,-10) scale(1,1)"><path fill="none" stroke="#000000" d="M 112.896484375 24.5 L 132.496484375 24.5 L 132.496484375 39.5 L 112.896484375 39.5 L 112.896484375 24.5 Z Z" stroke-miterlimit="10"/></g><g transform="translate(-10,-10) scale(1,1)"><rect fill="#ffffff" stroke="none" x="112.896484375" y="38.5" width="49" height="26"/></g><g transform="translate(-10,-10) scale(1,1)"><path fill="none" stroke="#000000" d="M 112.896484375 38.5 L 161.896484375 38.5 L 161.896484375 64.5 L 112.896484375 64.5 L 112.896484375 38.5 Z Z" stroke-miterlimit="10"/></g><g transform="translate(-10,-10) scale(1,1)"><g><path fill="none" stroke="none"/><text fill="#000000" stroke="none" font-family="Arial" font-size="14px" font-style="normal" font-weight="bold" text-decoration="none" x="122.6103515625" y="60">exec</text></g></g><g transform="translate(-10,-10) scale(1,1)"><rect fill="#C0C0C0" stroke="none" x="199.896484375" y="31.5" width="25.078515624999994" height="15" opacity="0.2"/></g><g transform="translate(-10,-10) scale(1,1)"><rect fill="#C0C0C0" stroke="none" x="199.896484375" y="45.5" width="62.6962890625" height="26" opacity="0.2"/></g><g transform="translate(-10,-10) scale(1,1)"><rect fill="#ffffff" stroke="none" x="192.896484375" y="39.5" width="62.6962890625" height="25"/></g><g transform="translate(-10,-10) scale(1,1)"><path fill="none" stroke="#000000" d="M 192.896484375 39.5 L 255.5927734375 39.5 L 255.5927734375 64.5 L 192.896484375 64.5 L 192.896484375 39.5 Z Z" stroke-miterlimit="10"/></g><g transform="translate(-10,-10) scale(1,1)"><rect fill="#ffffff" stroke="none" x="192.896484375" y="24.5" width="25.078515624999994" height="15"/></g><g transform="translate(-10,-10) scale(1,1)"><path fill="none" stroke="#000000" d="M 192.896484375 24.5 L 217.975 24.5 L 217.975 39.5 L 192.896484375 39.5 L 192.896484375 24.5 Z Z" stroke-miterlimit="10"/></g><g transform="translate(-10,-10) scale(1,1)"><rect fill="#ffffff" stroke="none" x="192.896484375" y="38.5" width="62.6962890625" height="26"/></g><g transform="translate(-10,-10) scale(1,1)"><path fill="none" stroke="#000000" d="M 192.896484375 38.5 L 255.5927734375 38.5 L 255.5927734375 64.5 L 192.896484375 64.5 L 192.896484375 38.5 Z Z" stroke-miterlimit="10"/></g><g transform="translate(-10,-10) scale(1,1)"><g><path fill="none" stroke="none"/><text fill="#000000" stroke="none" font-family="Arial" font-size="14px" font-style="normal" font-weight="bold" text-decoration="none" x="199.734375" y="60">process</text></g></g><g transform="translate(-10,-10) scale(1,1)"><rect fill="#C0C0C0" stroke="none" x="283.974609375" y="31.5" width="19.600000000000023" height="15" opacity="0.2"/></g><g transform="translate(-10,-10) scale(1,1)"><rect fill="#C0C0C0" stroke="none" x="283.974609375" y="45.5" width="49" height="26" opacity="0.2"/></g><g transform="translate(-10,-10) scale(1,1)"><rect fill="#ffffff" stroke="none" x="276.974609375" y="39.5" width="49" height="25"/></g><g transform="translate(-10,-10) scale(1,1)"><path fill="none" stroke="#000000" d="M 276.974609375 39.5 L 325.974609375 39.5 L 325.974609375 64.5 L 276.974609375 64.5 L 276.974609375 39.5 Z Z" stroke-miterlimit="10"/></g><g transform="translate(-10,-10) scale(1,1)"><rect fill="#ffffff" stroke="none" x="276.974609375" y="24.5" width="19.600000000000023" height="15"/></g><g transform="translate(-10,-10) scale(1,1)"><path fill="none" stroke="#000000" d="M 276.974609375 24.5 L 296.574609375 24.5 L 296.574609375 39.5 L 276.974609375 39.5 L 276.974609375 24.5 Z Z" stroke-miterlimit="10"/></g><g transform="translate(-10,-10) scale(1,1)"><rect fill="#ffffff" stroke="none" x="276.974609375" y="38.5" width="49" height="26"/></g><g transform="translate(-10,-10) scale(1,1)"><path fill="none" stroke="#000000" d="M 276.974609375 38.5 L 325.974609375 38.5 L 325.974609375 64.5 L 276.974609375 64.5 L 276.974609375 38.5 Z Z" stroke-miterlimit="10"/></g><g transform="translate(-10,-10) scale(1,1)"><g><path fill="none" stroke="none"/><text fill="#000000" stroke="none" font-family="Arial" font-size="14px" font-style="normal" font-weight="bold" text-decoration="none" x="296.0263671875" y="60">ui</text></g></g><g transform="translate(-10,-10) scale(1,1)"><path fill="#C0C0C0" stroke="none" d="M 381.87451171875 38.5 C 381.87451171875 32.1487248 387.02323651875 27 393.37451171875 27 C 399.72578691875 27 404.87451171875 32.1487248 404.87451171875 38.5 C 404.87451171875 44.8512752 399.72578691875 50 393.37451171875 50 C 387.02323651875 50 381.87451171875 44.8512752 381.87451171875 38.5 Z" opacity="0.2"/></g><g transform="translate(-10,-10) scale(1,1)"><path fill="#ffffff" stroke="none" d="M 374.87451171875 31.5 C 374.87451171875 25.1487248 380.02323651875 20 386.37451171875 20 C 392.72578691875 20 397.87451171875 25.1487248 397.87451171875 31.5 C 397.87451171875 37.8512752 392.72578691875 43 386.37451171875 43 C 380.02323651875 43 374.87451171875 37.8512752 374.87451171875 31.5 Z"/></g><g transform="translate(-10,-10) scale(1,1)"><path fill="none" stroke="#000000" d="M 374.87451171875 31.5 C 374.87451171875 25.1487248 380.02323651875 20 386.37451171875 20 C 392.72578691875 20 397.87451171875 25.1487248 397.87451171875 31.5 C 397.87451171875 37.8512752 392.72578691875 43 386.37451171875 43 C 380.02323651875 43 374.87451171875 37.8512752 374.87451171875 31.5 Z" stroke-miterlimit="10"/></g><g transform="translate(-10,-10) scale(1,1)"><g><path fill="none" stroke="none"/><text fill="#000000" stroke="none" font-family="Arial" font-size="14px" font-style="normal" font-weight="bold" text-decoration="none" x="363.0263671875" y="63.5">Iterable</text></g></g><g transform="translate(-10,-10) scale(1,1)"><path fill="#C0C0C0" stroke="none" d="M 460.75048828125 38.5 C 460.75048828125 32.1487248 465.89921308125 27 472.25048828125 27 C 478.60176348125 27 483.75048828125 32.1487248 483.75048828125 38.5 C 483.75048828125 44.8512752 478.60176348125 50 472.25048828125 50 C 465.89921308125 50 460.75048828125 44.8512752 460.75048828125 38.5 Z" opacity="0.2"/></g><g transform="translate(-10,-10) scale(1,1)"><path fill="#ffffff" stroke="none" d="M 453.75048828125 31.5 C 453.75048828125 25.1487248 458.89921308125 20 465.25048828125 20 C 471.60176348125 20 476.75048828125 25.1487248 476.75048828125 31.5 C 476.75048828125 37.8512752 471.60176348125 43 465.25048828125 43 C 458.89921308125 43 453.75048828125 37.8512752 453.75048828125 31.5 Z"/></g><g transform="translate(-10,-10) scale(1,1)"><path fill="none" stroke="#000000" d="M 453.75048828125 31.5 C 453.75048828125 25.1487248 458.89921308125 20 465.25048828125 20 C 471.60176348125 20 476.75048828125 25.1487248 476.75048828125 31.5 C 476.75048828125 37.8512752 471.60176348125 43 465.25048828125 43 C 458.89921308125 43 453.75048828125 37.8512752 453.75048828125 31.5 Z" stroke-miterlimit="10"/></g><g transform="translate(-10,-10) scale(1,1)"><g><path fill="none" stroke="none"/><text fill="#000000" stroke="none" font-family="Arial" font-size="14px" font-style="normal" font-weight="bold" text-decoration="none" x="449.6884765625" y="63.5">Exec</text></g></g><g transform="translate(-10,-10) scale(1,1)"><rect fill="#C0C0C0" stroke="none" x="520.16796875" y="39" width="119.3525390625" height="25" opacity="0.2"/></g><g transform="translate(-10,-10) scale(1,1)"><rect fill="#ffffff" stroke="none" x="513.16796875" y="32" width="119.3525390625" height="25"/></g><g transform="translate(-10,-10) scale(1,1)"><path fill="none" stroke="#000000" d="M 513.16796875 32 L 632.5205078125 32 L 632.5205078125 57 L 513.16796875 57 L 513.16796875 32 Z Z" stroke-miterlimit="10"/></g><g transform="translate(-10,-10) scale(1,1)"><g><path fill="none" stroke="none"/><text fill="#000000" stroke="none" font-family="Arial" font-size="14px" font-style="normal" font-weight="bold" text-decoration="none" x="520.7099609375" y="52.5">ExecWithSender</text></g></g><g transform="translate(-10,-10) scale(1,1)"><path fill="#C0C0C0" stroke="none" d="M 692.93212890625 38.5 C 692.93212890625 32.1487248 698.08085370625 27 704.43212890625 27 C 710.78340410625 27 715.93212890625 32.1487248 715.93212890625 38.5 C 715.93212890625 44.8512752 710.78340410625 50 704.43212890625 50 C 698.08085370625 50 692.93212890625 44.8512752 692.93212890625 38.5 Z" opacity="0.2"/></g><g transform="translate(-10,-10) scale(1,1)"><path fill="#ffffff" stroke="none" d="M 685.93212890625 31.5 C 685.93212890625 25.1487248 691.08085370625 20 697.43212890625 20 C 703.78340410625 20 708.93212890625 25.1487248 708.93212890625 31.5 C 708.93212890625 37.8512752 703.78340410625 43 697.43212890625 43 C 691.08085370625 43 685.93212890625 37.8512752 685.93212890625 31.5 Z"/></g><g transform="translate(-10,-10) scale(1,1)"><path fill="none" stroke="#000000" d="M 685.93212890625 31.5 C 685.93212890625 25.1487248 691.08085370625 20 697.43212890625 20 C 703.78340410625 20 708.93212890625 25.1487248 708.93212890625 31.5 C 708.93212890625 37.8512752 703.78340410625 43 697.43212890625 43 C 691.08085370625 43 685.93212890625 37.8512752 685.93212890625 31.5 Z" stroke-miterlimit="10"/></g><g transform="translate(-10,-10) scale(1,1)"><g><path fill="none" stroke="none"/><text fill="#000000" stroke="none" font-family="Arial" font-size="14px" font-style="normal" font-weight="bold" text-decoration="none" x="661.24609375" y="63.5">Displayable</text></g></g><g transform="translate(-10,-10) scale(1,1)"><rect fill="#C0C0C0" stroke="none" x="771.0390625" y="39" width="104.6826171875" height="25" opacity="0.2"/></g><g transform="translate(-10,-10) scale(1,1)"><rect fill="#ffffff" stroke="none" x="764.0390625" y="32" width="104.6826171875" height="25"/></g><g transform="translate(-10,-10) scale(1,1)"><path fill="none" stroke="#000000" d="M 764.0390625 32 L 868.7216796875 32 L 868.7216796875 57 L 764.0390625 57 L 764.0390625 32 Z Z" stroke-miterlimit="10"/></g><g transform="translate(-10,-10) scale(1,1)"><g><path fill="none" stroke="none"/><text fill="#000000" stroke="none" font-family="Arial" font-size="14px" font-style="normal" font-weight="bold" text-decoration="none" x="771.63232421875" y="52.5">SQLException</text></g></g><g transform="translate(-10,-10) scale(1,1)"><rect fill="#C0C0C0" stroke="none" x="898.9423828125" y="39" width="44.5263671875" height="25" opacity="0.2"/></g><g transform="translate(-10,-10) scale(1,1)"><rect fill="#ffffff" stroke="none" x="891.9423828125" y="32" width="44.5263671875" height="25"/></g><g transform="translate(-10,-10) scale(1,1)"><path fill="none" stroke="#000000" d="M 891.9423828125 32 L 936.46875 32 L 936.46875 57 L 891.9423828125 57 L 891.9423828125 32 Z Z" stroke-miterlimit="10"/></g><g transform="translate(-10,-10) scale(1,1)"><g><path fill="none" stroke="none"/><text fill="#000000" stroke="none" font-family="Arial" font-size="14px" font-style="normal" font-weight="bold" text-decoration="none" x="897.47119140625" y="52.5">Table</text></g></g><g transform="translate(-10,-10) scale(1,1)"><rect fill="#C0C0C0" stroke="none" x="971.884765625" y="39" width="64.2275390625" height="25" opacity="0.2"/></g><g transform="translate(-10,-10) scale(1,1)"><rect fill="#ffffff" stroke="none" x="964.884765625" y="32" width="64.2275390625" height="25"/></g><g transform="translate(-10,-10) scale(1,1)"><path fill="none" stroke="#000000" d="M 964.884765625 32 L 1029.1123046875 32 L 1029.1123046875 57 L 964.884765625 57 L 964.884765625 32 Z Z" stroke-miterlimit="10"/></g><g transform="translate(-10,-10) scale(1,1)"><g><path fill="none" stroke="none"/><text fill="#000000" stroke="none" font-family="Arial" font-size="14px" font-style="normal" font-weight="bold" text-decoration="none" x="971.30908203125" y="52.5">Boolean</text></g></g><g transform="translate(-10,-10) scale(1,1)"><rect fill="#C0C0C0" stroke="none" x="1060.1123046875" y="39" width="114.5400390625" height="25" opacity="0.2"/></g><g transform="translate(-10,-10) scale(1,1)"><rect fill="#ffffff" stroke="none" x="1053.1123046875" y="32" width="114.5400390625" height="25"/></g><g transform="translate(-10,-10) scale(1,1)"><path fill="none" stroke="#000000" d="M 1053.1123046875 32 L 1167.65234375 32 L 1167.65234375 57 L 1053.1123046875 57 L 1053.1123046875 32 Z Z" stroke-miterlimit="10"/></g><g transform="translate(-10,-10) scale(1,1)"><g><path fill="none" stroke="none"/><text fill="#000000" stroke="none" font-family="Arial" font-size="14px" font-style="normal" font-weight="bold" text-decoration="none" x="1060.96875" y="52.5">ImmutableTable</text></g></g><g transform="translate(-10,-10) scale(1,1)"><rect fill="#C0C0C0" stroke="none" x="1199.1650390625" y="39" width="117.91015625" height="25" opacity="0.2"/></g><g transform="translate(-10,-10) scale(1,1)"><rect fill="#ffffff" stroke="none" x="1192.1650390625" y="32" width="117.91015625" height="25"/></g><g transform="translate(-10,-10) scale(1,1)"><path fill="none" stroke="#000000" d="M 1192.1650390625 32 L 1310.0751953125 32 L 1310.0751953125 57 L 1192.1650390625 57 L 1192.1650390625 32 Z Z" stroke-miterlimit="10"/></g><g transform="translate(-10,-10) scale(1,1)"><g><path fill="none" stroke="none"/><text fill="#000000" stroke="none" font-family="Arial" font-size="14px" font-style="normal" font-weight="bold" text-decoration="none" x="1199.75830078125" y="52.5">MuteableRecord</text></g></g><g transform="translate(-10,-10) scale(1,1)"><rect fill="#C0C0C0" stroke="none" x="1339.46875" y="39" width="155.220703125" height="25" opacity="0.2"/></g><g transform="translate(-10,-10) scale(1,1)"><rect fill="#ffffff" stroke="none" x="1332.46875" y="32" width="155.220703125" height="25"/></g><g transform="translate(-10,-10) scale(1,1)"><path fill="none" stroke="#000000" d="M 1332.46875 32 L 1487.689453125 32 L 1487.689453125 57 L 1332.46875 57 L 1332.46875 32 Z Z" stroke-miterlimit="10"/></g><g transform="translate(-10,-10) scale(1,1)"><g><path fill="none" stroke="none"/><text fill="#000000" stroke="none" font-family="Arial" font-size="14px" font-style="normal" font-weight="bold" text-decoration="none" x="1344.3310546875" y="52.5">AttributesConstructor</text></g></g><g transform="translate(-10,-10) scale(1,1)"><rect fill="#C0C0C0" stroke="none" x="1514" y="39" width="70.181640625" height="25" opacity="0.2"/></g><g transform="translate(-10,-10) scale(1,1)"><rect fill="#ffffff" stroke="none" x="1507" y="32" width="70.181640625" height="25"/></g><g transform="translate(-10,-10) scale(1,1)"><path fill="none" stroke="#000000" d="M 1507 32 L 1577.181640625 32 L 1577.181640625 57 L 1507 57 L 1507 32 Z Z" stroke-miterlimit="10"/></g><g transform="translate(-10,-10) scale(1,1)"><g><path fill="none" stroke="none"/><text fill="#000000" stroke="none" font-family="Arial" font-size="14px" font-style="normal" font-weight="bold" text-decoration="none" x="1513.6806640625" y="52.5">TableInfo</text></g></g><g transform="translate(-10,-10) scale(1,1)"><rect fill="#C0C0C0" stroke="none" x="1611.8388671875" y="39" width="61.14453125" height="25" opacity="0.2"/></g><g transform="translate(-10,-10) scale(1,1)"><rect fill="#ffffff" stroke="none" x="1604.8388671875" y="32" width="61.14453125" height="25"/></g><g transform="translate(-10,-10) scale(1,1)"><path fill="none" stroke="#000000" d="M 1604.8388671875 32 L 1665.9833984375 32 L 1665.9833984375 57 L 1604.8388671875 57 L 1604.8388671875 32 Z Z" stroke-miterlimit="10"/></g><g transform="translate(-10,-10) scale(1,1)"><g><path fill="none" stroke="none"/><text fill="#000000" stroke="none" font-family="Arial" font-size="14px" font-style="normal" font-weight="bold" text-decoration="none" x="1610.90087890625" y="52.5">KeyPair</text></g></g><g transform="translate(-10,-10) scale(1,1)"><rect fill="#C0C0C0" stroke="none" x="1701.59765625" y="39" width="73.572265625" height="25" opacity="0.2"/></g><g transform="translate(-10,-10) scale(1,1)"><rect fill="#ffffff" stroke="none" x="1694.59765625" y="32" width="73.572265625" height="25"/></g><g transform="translate(-10,-10) scale(1,1)"><path fill="none" stroke="#000000" d="M 1694.59765625 32 L 1768.169921875 32 L 1768.169921875 57 L 1694.59765625 57 L 1694.59765625 32 Z Z" stroke-miterlimit="10"/></g><g transform="translate(-10,-10) scale(1,1)"><g><path fill="none" stroke="none"/><text fill="#000000" stroke="none" font-family="Arial" font-size="14px" font-style="normal" font-weight="bold" text-decoration="none" x="1701.03564453125" y="52.5">ResultSet</text></g></g><g transform="translate(-10,-10) scale(1,1)"><rect fill="#C0C0C0" stroke="none" x="1798.3701171875" y="39" width="76.6826171875" height="25" opacity="0.2"/></g><g transform="translate(-10,-10) scale(1,1)"><rect fill="#ffffff" stroke="none" x="1791.3701171875" y="32" width="76.6826171875" height="25"/></g><g transform="translate(-10,-10) scale(1,1)"><path fill="none" stroke="#000000" d="M 1791.3701171875 32 L 1868.052734375 32 L 1868.052734375 57 L 1791.3701171875 57 L 1791.3701171875 32 Z Z" stroke-miterlimit="10"/></g><g transform="translate(-10,-10) scale(1,1)"><g><path fill="none" stroke="none"/><text fill="#000000" stroke="none" font-family="Arial" font-size="14px" font-style="normal" font-weight="bold" text-decoration="none" x="1797.8046875" y="52.5">Statement</text></g></g><g transform="translate(-10,-10) scale(1,1)"><rect fill="#C0C0C0" stroke="none" x="1899.0185546875" y="39" width="127.248046875" height="25" opacity="0.2"/></g><g transform="translate(-10,-10) scale(1,1)"><rect fill="#ffffff" stroke="none" x="1892.0185546875" y="32" width="127.248046875" height="25"/></g><g transform="translate(-10,-10) scale(1,1)"><path fill="none" stroke="#000000" d="M 1892.0185546875 32 L 2019.2666015625 32 L 2019.2666015625 57 L 1892.0185546875 57 L 1892.0185546875 32 Z Z" stroke-miterlimit="10"/></g><g transform="translate(-10,-10) scale(1,1)"><g><path fill="none" stroke="none"/><text fill="#000000" stroke="none" font-family="Arial" font-size="14px" font-style="normal" font-weight="bold" text-decoration="none" x="1900.39794921875" y="52.5">ImmutableRecord</text></g></g><g transform="translate(-10,-10) scale(1,1)"><rect fill="#C0C0C0" stroke="none" x="2048.6669921875" y="39" width="85.9931640625" height="25" opacity="0.2"/></g><g transform="translate(-10,-10) scale(1,1)"><rect fill="#ffffff" stroke="none" x="2041.6669921875" y="32" width="85.9931640625" height="25"/></g><g transform="translate(-10,-10) scale(1,1)"><path fill="none" stroke="#000000" d="M 2041.6669921875 32 L 2127.66015625 32 L 2127.66015625 57 L 2041.6669921875 57 L 2041.6669921875 32 Z Z" stroke-miterlimit="10"/></g><g transform="translate(-10,-10) scale(1,1)"><g><path fill="none" stroke="none"/><text fill="#000000" stroke="none" font-family="Arial" font-size="14px" font-style="normal" font-weight="bold" text-decoration="none" x="2049.25" y="52.5">Connection</text></g></g><g transform="translate(-10,-10) scale(1,1)"><rect fill="#C0C0C0" stroke="none" x="2157.115234375" y="39" width="111.4365234375" height="25" opacity="0.2"/></g><g transform="translate(-10,-10) scale(1,1)"><rect fill="#ffffff" stroke="none" x="2150.115234375" y="32" width="111.4365234375" height="25"/></g><g transform="translate(-10,-10) scale(1,1)"><path fill="none" stroke="#000000" d="M 2150.115234375 32 L 2261.5517578125 32 L 2261.5517578125 57 L 2150.115234375 57 L 2150.115234375 32 Z Z" stroke-miterlimit="10"/></g><g transform="translate(-10,-10) scale(1,1)"><g><path fill="none" stroke="none"/><text fill="#000000" stroke="none" font-family="Arial" font-size="14px" font-style="normal" font-weight="bold" text-decoration="none" x="2157.58203125" y="52.5">TableGenerator</text></g></g><g transform="translate(-10,-10) scale(1,1)"><rect fill="#C0C0C0" stroke="none" x="2292.2509765625" y="39" width="141.767578125" height="25" opacity="0.2"/></g><g transform="translate(-10,-10) scale(1,1)"><rect fill="#ffffff" stroke="none" x="2285.2509765625" y="32" width="141.767578125" height="25"/></g><g transform="translate(-10,-10) scale(1,1)"><path fill="none" stroke="#000000" d="M 2285.2509765625 32 L 2427.0185546875 32 L 2427.0185546875 57 L 2285.2509765625 57 L 2285.2509765625 32 Z Z" stroke-miterlimit="10"/></g><g transform="translate(-10,-10) scale(1,1)"><g><path fill="none" stroke="none"/><text fill="#000000" stroke="none" font-family="Arial" font-size="14px" font-style="normal" font-weight="bold" text-decoration="none" x="2293.873046875" y="52.5">TablePoolGenerator</text></g></g><g transform="translate(-10,-10) scale(1,1)"><rect fill="#C0C0C0" stroke="none" x="2453.828125" y="39" width="74.857421875" height="25" opacity="0.2"/></g><g transform="translate(-10,-10) scale(1,1)"><rect fill="#ffffff" stroke="none" x="2446.828125" y="32" width="74.857421875" height="25"/></g><g transform="translate(-10,-10) scale(1,1)"><path fill="none" stroke="#000000" d="M 2446.828125 32 L 2521.685546875 32 L 2521.685546875 57 L 2446.828125 57 L 2446.828125 32 Z Z" stroke-miterlimit="10"/></g><g transform="translate(-10,-10) scale(1,1)"><g><path fill="none" stroke="none"/><text fill="#000000" stroke="none" font-family="Arial" font-size="14px" font-style="normal" font-weight="bold" text-decoration="none" x="2453.51220703125" y="52.5">TablePool</text></g></g><g transform="translate(-10,-10) scale(1,1)"><rect fill="#C0C0C0" stroke="none" x="2553.2119140625" y="39" width="137.3447265625" height="25" opacity="0.2"/></g><g transform="translate(-10,-10) scale(1,1)"><rect fill="#ffffff" stroke="none" x="2546.2119140625" y="32" width="137.3447265625" height="25"/></g><g transform="translate(-10,-10) scale(1,1)"><path fill="none" stroke="#000000" d="M 2546.2119140625 32 L 2683.556640625 32 L 2683.556640625 57 L 2546.2119140625 57 L 2546.2119140625 32 Z Z" stroke-miterlimit="10"/></g><g transform="translate(-10,-10) scale(1,1)"><g><path fill="none" stroke="none"/><text fill="#000000" stroke="none" font-family="Arial" font-size="14px" font-style="normal" font-weight="bold" text-decoration="none" x="2556.1396484375" y="52.5">RecordConstructor</text></g></g><g transform="translate(-10,-10) scale(1,1)"><rect fill="#C0C0C0" stroke="none" x="2709.8466796875" y="39" width="57.234375" height="25" opacity="0.2"/></g><g transform="translate(-10,-10) scale(1,1)"><rect fill="#ffffff" stroke="none" x="2702.8466796875" y="32" width="57.234375" height="25"/></g><g transform="translate(-10,-10) scale(1,1)"><path fill="none" stroke="#000000" d="M 2702.8466796875 32 L 2760.0810546875 32 L 2760.0810546875 57 L 2702.8466796875 57 L 2702.8466796875 32 Z Z" stroke-miterlimit="10"/></g><g transform="translate(-10,-10) scale(1,1)"><g><path fill="none" stroke="none"/><text fill="#000000" stroke="none" font-family="Arial" font-size="14px" font-style="normal" font-weight="bold" text-decoration="none" x="2709.2880859375" y="52.5">Iterator</text></g></g><g transform="translate(-10,-10) scale(1,1)"><rect fill="#C0C0C0" stroke="none" x="2797.2607421875" y="39" width="95.0986328125" height="25" opacity="0.2"/></g><g transform="translate(-10,-10) scale(1,1)"><rect fill="#ffffff" stroke="none" x="2790.2607421875" y="32" width="95.0986328125" height="25"/></g><g transform="translate(-10,-10) scale(1,1)"><path fill="none" stroke="#000000" d="M 2790.2607421875 32 L 2885.359375 32 L 2885.359375 57 L 2790.2607421875 57 L 2790.2607421875 32 Z Z" stroke-miterlimit="10"/></g><g transform="translate(-10,-10) scale(1,1)"><g><path fill="none" stroke="none"/><text fill="#000000" stroke="none" font-family="Arial" font-size="14px" font-style="normal" font-weight="bold" text-decoration="none" x="2797.73779296875" y="52.5">TableFactory</text></g></g><g transform="translate(-10,-10) scale(1,1)"><rect fill="#C0C0C0" stroke="none" x="2916.8447265625" y="39" width="131.9306640625" height="25" opacity="0.2"/></g><g transform="translate(-10,-10) scale(1,1)"><rect fill="#ffffff" stroke="none" x="2909.8447265625" y="32" width="131.9306640625" height="25"/></g><g transform="translate(-10,-10) scale(1,1)"><path fill="none" stroke="#000000" d="M 2909.8447265625 32 L 3041.775390625 32 L 3041.775390625 57 L 2909.8447265625 57 L 2909.8447265625 32 Z Z" stroke-miterlimit="10"/></g><g transform="translate(-10,-10) scale(1,1)"><g><path fill="none" stroke="none"/><text fill="#000000" stroke="none" font-family="Arial" font-size="14px" font-style="normal" font-weight="bold" text-decoration="none" x="2918.220703125" y="52.5">AdvanceResultSet</text></g></g><g transform="translate(-10,-10) scale(1,1)"><rect fill="#C0C0C0" stroke="none" x="3065.7275390625" y="39" width="67.37890625" height="25" opacity="0.2"/></g><g transform="translate(-10,-10) scale(1,1)"><rect fill="#ffffff" stroke="none" x="3058.7275390625" y="32" width="67.37890625" height="25"/></g><g transform="translate(-10,-10) scale(1,1)"><path fill="none" stroke="#000000" d="M 3058.7275390625 32 L 3126.1064453125 32 L 3126.1064453125 57 L 3058.7275390625 57 L 3058.7275390625 32 Z Z" stroke-miterlimit="10"/></g><g transform="translate(-10,-10) scale(1,1)"><g><path fill="none" stroke="none"/><text fill="#000000" stroke="none" font-family="Arial" font-size="14px" font-style="normal" font-weight="bold" text-decoration="none" x="3064.79638671875" y="52.5">Recevier</text></g></g><g transform="translate(-10,-10) scale(1,1)"><rect fill="#C0C0C0" stroke="none" x="3157.796875" y="39" width="132.67578125" height="25" opacity="0.2"/></g><g transform="translate(-10,-10) scale(1,1)"><rect fill="#ffffff" stroke="none" x="3150.796875" y="32" width="132.67578125" height="25"/></g><g transform="translate(-10,-10) scale(1,1)"><path fill="none" stroke="#000000" d="M 3150.796875 32 L 3283.47265625 32 L 3283.47265625 57 L 3150.796875 57 L 3150.796875 32 Z Z" stroke-miterlimit="10"/></g><g transform="translate(-10,-10) scale(1,1)"><g><path fill="none" stroke="none"/><text fill="#000000" stroke="none" font-family="Arial" font-size="14px" font-style="normal" font-weight="bold" text-decoration="none" x="3159.9453125" y="52.5">UIStatusController</text></g></g><g transform="translate(-10,-10) scale(1,1)"><rect fill="#C0C0C0" stroke="none" x="3313.43359375" y="39" width="37" height="25" opacity="0.2"/></g><g transform="translate(-10,-10) scale(1,1)"><rect fill="#ffffff" stroke="none" x="3306.43359375" y="32" width="37" height="25"/></g><g transform="translate(-10,-10) scale(1,1)"><path fill="none" stroke="#000000" d="M 3306.43359375 32 L 3343.43359375 32 L 3343.43359375 57 L 3306.43359375 57 L 3306.43359375 32 Z Z" stroke-miterlimit="10"/></g><g transform="translate(-10,-10) scale(1,1)"><g><path fill="none" stroke="none"/><text fill="#000000" stroke="none" font-family="Arial" font-size="14px" font-style="normal" font-weight="bold" text-decoration="none" x="3311.31640625" y="52.5">Map</text></g></g><g transform="translate(-10,-10) scale(1,1)"><rect fill="#C0C0C0" stroke="none" x="3381.43359375" y="39" width="65.7998046875" height="25" opacity="0.2"/></g><g transform="translate(-10,-10) scale(1,1)"><rect fill="#ffffff" stroke="none" x="3374.43359375" y="32" width="65.7998046875" height="25"/></g><g transform="translate(-10,-10) scale(1,1)"><path fill="none" stroke="#000000" d="M 3374.43359375 32 L 3440.2333984375 32 L 3440.2333984375 57 L 3374.43359375 57 L 3374.43359375 32 Z Z" stroke-miterlimit="10"/></g><g transform="translate(-10,-10) scale(1,1)"><g><path fill="none" stroke="none"/><text fill="#000000" stroke="none" font-family="Arial" font-size="14px" font-style="normal" font-weight="bold" text-decoration="none" x="3379.5830078125" y="52.5">TreeMap</text></g></g><g transform="translate(-10,-10) scale(1,1)"><rect fill="#C0C0C0" stroke="none" x="3476.134765625" y="39" width="93.068359375" height="25" opacity="0.2"/></g><g transform="translate(-10,-10) scale(1,1)"><rect fill="#ffffff" stroke="none" x="3469.134765625" y="32" width="93.068359375" height="25"/></g><g transform="translate(-10,-10) scale(1,1)"><path fill="none" stroke="#000000" d="M 3469.134765625 32 L 3562.203125 32 L 3562.203125 57 L 3469.134765625 57 L 3469.134765625 32 Z Z" stroke-miterlimit="10"/></g><g transform="translate(-10,-10) scale(1,1)"><g><path fill="none" stroke="none"/><text fill="#000000" stroke="none" font-family="Arial" font-size="14px" font-style="normal" font-weight="bold" text-decoration="none" x="3475.20361328125" y="52.5">Recevier&lt;E&gt;</text></g></g><g transform="translate(-10,-10) scale(1,1)"><rect fill="#C0C0C0" stroke="none" x="3593.4970703125" y="39" width="56.4619140625" height="25" opacity="0.2"/></g><g transform="translate(-10,-10) scale(1,1)"><rect fill="#ffffff" stroke="none" x="3586.4970703125" y="32" width="56.4619140625" height="25"/></g><g transform="translate(-10,-10) scale(1,1)"><path fill="none" stroke="#000000" d="M 3586.4970703125 32 L 3642.958984375 32 L 3642.958984375 57 L 3586.4970703125 57 L 3586.4970703125 32 Z Z" stroke-miterlimit="10"/></g><g transform="translate(-10,-10) scale(1,1)"><g><path fill="none" stroke="none"/><text fill="#000000" stroke="none" font-family="Arial" font-size="14px" font-style="normal" font-weight="bold" text-decoration="none" x="3592.15576171875" y="52.5">Sender</text></g></g><g transform="translate(-10,-10) scale(1,1)"><rect fill="#C0C0C0" stroke="none" x="3675.4970703125" y="39" width="92.001953125" height="25" opacity="0.2"/></g><g transform="translate(-10,-10) scale(1,1)"><rect fill="#ffffff" stroke="none" x="3668.4970703125" y="32" width="92.001953125" height="25"/></g><g transform="translate(-10,-10) scale(1,1)"><path fill="none" stroke="#000000" d="M 3668.4970703125 32 L 3760.4990234375 32 L 3760.4990234375 57 L 3668.4970703125 57 L 3668.4970703125 32 Z Z" stroke-miterlimit="10"/></g><g transform="translate(-10,-10) scale(1,1)"><g><path fill="none" stroke="none"/><text fill="#000000" stroke="none" font-family="Arial" font-size="14px" font-style="normal" font-weight="bold" text-decoration="none" x="3675.5947265625" y="52.5">TasksCenter</text></g></g></g></svg>