<svg version="1.1" xmlns="http://www.w3.org/2000/svg" xmlns:xlink="http://www.w3.org/1999/xlink" width="192.1123046875" height="125"><defs/><g><g transform="translate(-10,-10) scale(1,1)"><rect fill="#C0C0C0" stroke="none" x="27" y="107" width="172.1123046875" height="25" opacity="0.2"/></g><g transform="translate(-10,-10) scale(1,1)"><rect fill="#ffffff" stroke="none" x="20" y="100" width="172.1123046875" height="25"/></g><g transform="translate(-10,-10) scale(1,1)"><path fill="none" stroke="#000000" d="M 20 100 L 192.1123046875 100 L 192.1123046875 125 L 20 125 L 20 100 Z Z" stroke-miterlimit="10"/></g><g transform="translate(-10,-10) scale(1,1)"><g><path fill="none" stroke="none"/><text fill="#000000" stroke="none" font-family="Arial" font-size="14px" font-style="normal" font-weight="bold" text-decoration="none" x="29.39453125" y="120.5">StandardTableGenerator</text></g></g><g transform="translate(-10,-10) scale(1,1)"><path fill="#C0C0C0" stroke="none" d="M 99.228515625 38.5 C 99.228515625 32.1487248 104.377240425 27 110.728515625 27 C 117.079790825 27 122.228515625 32.1487248 122.228515625 38.5 C 122.228515625 44.8512752 117.079790825 50 110.728515625 50 C 104.377240425 50 99.228515625 44.8512752 99.228515625 38.5 Z" opacity="0.2"/></g><g transform="translate(-10,-10) scale(1,1)"><path fill="#ffffff" stroke="none" d="M 92.228515625 31.5 C 92.228515625 25.1487248 97.377240425 20 103.728515625 20 C 110.079790825 20 115.228515625 25.1487248 115.228515625 31.5 C 115.228515625 37.8512752 110.079790825 43 103.728515625 43 C 97.377240425 43 92.228515625 37.8512752 92.228515625 31.5 Z"/></g><g transform="translate(-10,-10) scale(1,1)"><path fill="none" stroke="#000000" d="M 92.228515625 31.5 C 92.228515625 25.1487248 97.377240425 20 103.728515625 20 C 110.079790825 20 115.228515625 25.1487248 115.228515625 31.5 C 115.228515625 37.8512752 110.079790825 43 103.728515625 43 C 97.377240425 43 92.228515625 37.8512752 92.228515625 31.5 Z" stroke-miterlimit="10"/></g><g transform="translate(-10,-10) scale(1,1)"><g><path fill="none" stroke="none"/><text fill="#000000" stroke="none" font-family="Arial" font-size="14px" font-style="normal" font-weight="bold" text-decoration="none" x="55.47705078125" y="63.5">TableGenerator</text></g></g><g transform="translate(-10,-10) scale(1,1)"><path fill="none" stroke="#000000" d="M 104 99 Q 101 85 102.6923076923077 43" stroke-miterlimit="10"/></g></g></svg>