<svg version="1.1" xmlns="http://www.w3.org/2000/svg" xmlns:xlink="http://www.w3.org/1999/xlink" width="112.001953125" height="69"><defs/><g><g transform="translate(-10,-10) scale(1,1)"><path fill="#C0C0C0" stroke="none" d="M 61.5009765625 38.5 C 61.5009765625 32.1487248 66.6497013625 27 73.0009765625 27 C 79.3522517625 27 84.5009765625 32.1487248 84.5009765625 38.5 C 84.5009765625 44.8512752 79.3522517625 50 73.0009765625 50 C 66.6497013625 50 61.5009765625 44.8512752 61.5009765625 38.5 Z" opacity="0.2"/></g><g transform="translate(-10,-10) scale(1,1)"><path fill="#ffffff" stroke="none" d="M 54.5009765625 31.5 C 54.5009765625 25.1487248 59.6497013625 20 66.0009765625 20 C 72.3522517625 20 77.5009765625 25.1487248 77.5009765625 31.5 C 77.5009765625 37.8512752 72.3522517625 43 66.0009765625 43 C 59.6497013625 43 54.5009765625 37.8512752 54.5009765625 31.5 Z"/></g><g transform="translate(-10,-10) scale(1,1)"><path fill="none" stroke="#000000" d="M 54.5009765625 31.5 C 54.5009765625 25.1487248 59.6497013625 20 66.0009765625 20 C 72.3522517625 20 77.5009765625 25.1487248 77.5009765625 31.5 C 77.5009765625 37.8512752 72.3522517625 43 66.0009765625 43 C 59.6497013625 43 54.5009765625 37.8512752 54.5009765625 31.5 Z" stroke-miterlimit="10"/></g><g transform="translate(-10,-10) scale(1,1)"><g><path fill="none" stroke="none"/><text fill="#000000" stroke="none" font-family="Arial" font-size="14px" font-style="normal" font-weight="bold" text-decoration="none" x="27.09765625" y="63.5">TasksCenter</text></g></g></g></svg>