<svg version="1.1" xmlns="http://www.w3.org/2000/svg" xmlns:xlink="http://www.w3.org/1999/xlink" width="381.1796875" height="251"><defs/><g><g transform="translate(12,-10) scale(1,1)"><rect fill="#C0C0C0" stroke="none" x="67.6943359375" y="233" width="178.2490234375" height="25" opacity="0.2"/></g><g transform="translate(12,-10) scale(1,1)"><rect fill="#C0C0C0" stroke="none" x="235.8330078125" y="198" width="19.1103515625" height="39" opacity="0.2"/></g><g transform="translate(12,-10) scale(1,1)"><rect fill="#ffffff" stroke="none" x="60.6943359375" y="226" width="178.2490234375" height="25"/></g><g transform="translate(12,-10) scale(1,1)"><path fill="none" stroke="#000000" d="M 60.6943359375 226 L 238.943359375 226 L 238.943359375 251 L 60.6943359375 251 L 60.6943359375 226 Z Z" stroke-miterlimit="10"/></g><g transform="translate(12,-10) scale(1,1)"><g><path fill="none" stroke="none"/><text fill="#000000" stroke="none" font-family="Arial" font-size="14px" font-style="normal" font-weight="bold" text-decoration="none" x="79.0087890625" y="246.5">DataWithRecallSender</text></g></g><g transform="translate(12,-10) scale(1,1)"><rect fill="#ffffff" stroke="none" x="228.8330078125" y="191" width="19.1103515625" height="39"/></g><g transform="translate(12,-10) scale(1,1)"><path fill="none" stroke="#000000" d="M 228.8330078125 191 L 247.943359375 191 L 247.943359375 230 L 228.8330078125 230 L 228.8330078125 191 Z Z" stroke-miterlimit="10" stroke-dasharray="3"/></g><g transform="translate(12,-10) scale(1,1)"><g><path fill="none" stroke="none"/><text fill="#000000" stroke="none" font-family="Arial" font-size="14px" font-style="normal" font-weight="normal" text-decoration="none" x="233.8330078125" y="209.5">E</text></g></g><g transform="translate(12,-10) scale(1,1)"><g><path fill="none" stroke="none"/><text fill="#000000" stroke="none" font-family="Arial" font-size="14px" font-style="normal" font-weight="normal" text-decoration="none" x="233.8330078125" y="225.5">R</text></g></g><g transform="translate(12,-10) scale(1,1)"><rect fill="#C0C0C0" stroke="none" x="139" y="142" width="217.1796875" height="25" opacity="0.2"/></g><g transform="translate(12,-10) scale(1,1)"><rect fill="#C0C0C0" stroke="none" x="346.0693359375" y="107" width="19.1103515625" height="39" opacity="0.2"/></g><g transform="translate(12,-10) scale(1,1)"><rect fill="#ffffff" stroke="none" x="132" y="135" width="217.1796875" height="25"/></g><g transform="translate(12,-10) scale(1,1)"><path fill="none" stroke="#000000" d="M 132 135 L 349.1796875 135 L 349.1796875 160 L 132 160 L 132 135 Z Z" stroke-miterlimit="10"/></g><g transform="translate(12,-10) scale(1,1)"><g><path fill="none" stroke="none"/><text fill="#000000" stroke="none" font-family="Arial" font-size="14px" font-style="normal" font-weight="bold" text-decoration="none" x="151.4970703125" y="155.5">DataWithRecallableRecevier</text></g></g><g transform="translate(12,-10) scale(1,1)"><rect fill="#ffffff" stroke="none" x="339.0693359375" y="100" width="19.1103515625" height="39"/></g><g transform="translate(12,-10) scale(1,1)"><path fill="none" stroke="#000000" d="M 339.0693359375 100 L 358.1796875 100 L 358.1796875 139 L 339.0693359375 139 L 339.0693359375 100 Z Z" stroke-miterlimit="10" stroke-dasharray="3"/></g><g transform="translate(12,-10) scale(1,1)"><g><path fill="none" stroke="none"/><text fill="#000000" stroke="none" font-family="Arial" font-size="14px" font-style="normal" font-weight="normal" text-decoration="none" x="344.0693359375" y="118.5">E</text></g></g><g transform="translate(12,-10) scale(1,1)"><g><path fill="none" stroke="none"/><text fill="#000000" stroke="none" font-family="Arial" font-size="14px" font-style="normal" font-weight="normal" text-decoration="none" x="344.0693359375" y="134.5">R</text></g></g><g transform="translate(12,-10) scale(1,1)"><path fill="#C0C0C0" stroke="none" d="M 236.72509765625 38.5 C 236.72509765625 32.1487248 241.87382245625 27 248.22509765625 27 C 254.57637285625 27 259.72509765625 32.1487248 259.72509765625 38.5 C 259.72509765625 44.8512752 254.57637285625 50 248.22509765625 50 C 241.87382245625 50 236.72509765625 44.8512752 236.72509765625 38.5 Z" opacity="0.2"/></g><g transform="translate(12,-10) scale(1,1)"><path fill="#ffffff" stroke="none" d="M 229.72509765625 31.5 C 229.72509765625 25.1487248 234.87382245625 20 241.22509765625 20 C 247.57637285625 20 252.72509765625 25.1487248 252.72509765625 31.5 C 252.72509765625 37.8512752 247.57637285625 43 241.22509765625 43 C 234.87382245625 43 229.72509765625 37.8512752 229.72509765625 31.5 Z"/></g><g transform="translate(12,-10) scale(1,1)"><path fill="none" stroke="#000000" d="M 229.72509765625 31.5 C 229.72509765625 25.1487248 234.87382245625 20 241.22509765625 20 C 247.57637285625 20 252.72509765625 25.1487248 252.72509765625 31.5 C 252.72509765625 37.8512752 247.57637285625 43 241.22509765625 43 C 234.87382245625 43 229.72509765625 37.8512752 229.72509765625 31.5 Z" stroke-miterlimit="10"/></g><g transform="translate(12,-10) scale(1,1)"><g><path fill="none" stroke="none"/><text fill="#000000" stroke="none" font-family="Arial" font-size="14px" font-style="normal" font-weight="bold" text-decoration="none" x="213.6044921875" y="63.5">Recevier</text></g></g><g transform="translate(12,-10) scale(1,1)"><rect fill="#C0C0C0" stroke="none" x="27" y="126" width="76.4619140625" height="41" opacity="0.2"/></g><g transform="translate(12,-10) scale(1,1)"><rect fill="#C0C0C0" stroke="none" x="94.1240234375" y="107" width="18.337890625" height="23" opacity="0.2"/></g><g transform="translate(12,-10) scale(1,1)"><rect fill="#ffffff" stroke="none" x="20" y="119" width="76.4619140625" height="41"/></g><g transform="translate(12,-10) scale(1,1)"><path fill="none" stroke="#000000" d="M 20 119 L 96.4619140625 119 L 96.4619140625 160 L 20 160 L 20 119 Z Z" stroke-miterlimit="10"/></g><g transform="translate(12,-10) scale(1,1)"><g><path fill="none" stroke="none"/><text fill="#000000" stroke="none" font-family="Arial" font-size="14px" font-style="normal" font-weight="bold" text-decoration="none" x="35.65869140625" y="139.5">Sender</text></g></g><g transform="translate(12,-10) scale(1,1)"><g><path fill="none" stroke="none"/><text fill="#000000" stroke="none" font-family="Arial" font-size="14px" font-style="normal" font-weight="normal" text-decoration="none" x="59.5380859375" y="155.5">{leaf}</text></g></g><g transform="translate(12,-10) scale(1,1)"><rect fill="#ffffff" stroke="none" x="87.1240234375" y="100" width="18.337890625" height="23"/></g><g transform="translate(12,-10) scale(1,1)"><path fill="none" stroke="#000000" d="M 87.1240234375 100 L 105.4619140625 100 L 105.4619140625 123 L 87.1240234375 123 L 87.1240234375 100 Z Z" stroke-miterlimit="10" stroke-dasharray="3"/></g><g transform="translate(12,-10) scale(1,1)"><g><path fill="none" stroke="none"/><text fill="#000000" stroke="none" font-family="Arial" font-size="14px" font-style="normal" font-weight="normal" text-decoration="none" x="92.1240234375" y="118.5">E</text></g></g><g transform="translate(12,-10) scale(1,1)"><path fill="none" stroke="#000000" d="M 90 190 Q 61 176 62 161" stroke-miterlimit="10"/></g><g transform="translate(12,-10) scale(1,1)"><path fill="none" stroke="#000000" d="M 65.52418326288262 171.42017909297235 L 62 161 L 57.1237945855094 170.86015318114747" stroke-miterlimit="10"/></g><g transform="translate(12,-10) scale(1,1)"><g><path fill="none" stroke="none"/><text fill="#000000" stroke="none" font-family="Arial" font-size="14px" font-style="normal" font-weight="normal" text-decoration="none" x="21.5" y="191.5">-sender</text></g></g><g transform="translate(12,-10) scale(1,1)"><g><path fill="none" stroke="none"/><text fill="#000000" stroke="none" font-family="Arial" font-size="14px" font-style="normal" font-weight="normal" text-decoration="none" x="-2.5" y="193.5">{readOnly}</text></g></g><g transform="translate(12,-10) scale(1,1)"><path fill="none" stroke="#000000" d="M 213 190 Q 239 176 241 161" stroke-miterlimit="10"/></g><g transform="translate(12,-10) scale(1,1)"><path fill="none" stroke="#000000" d="M 243.82945453292294 171.62987239086726 L 241 161 L 235.48427163655893 170.5171813380187" stroke-miterlimit="10"/></g><g transform="translate(12,-10) scale(1,1)"><g><path fill="none" stroke="none"/><text fill="#000000" stroke="none" font-family="Arial" font-size="14px" font-style="normal" font-weight="normal" text-decoration="none" x="131.5" y="190.5">-dataWithRecallableRecevier</text></g></g><g transform="translate(12,-10) scale(1,1)"><g><path fill="none" stroke="none"/><text fill="#000000" stroke="none" font-family="Arial" font-size="14px" font-style="normal" font-weight="normal" text-decoration="none" x="175.5" y="191.5">{readOnly}</text></g></g><g transform="translate(12,-10) scale(1,1)"><path fill="none" stroke="#000000" d="M 241 99 Q 239 85 240 70" stroke-miterlimit="10"/></g><g transform="translate(12,-10) scale(1,1)"><path fill="none" stroke="#000000" d="M 243.52418326288262 80.42017909297235 L 240 70 L 235.1237945855094 79.86015318114747" stroke-miterlimit="10"/></g><g transform="translate(12,-10) scale(1,1)"><g><path fill="none" stroke="none"/><text fill="#000000" stroke="none" font-family="Arial" font-size="14px" font-style="normal" font-weight="normal" text-decoration="none" x="161.5" y="100.5">+recallableReceiver</text></g></g></g></svg>