<svg version="1.1" xmlns="http://www.w3.org/2000/svg" xmlns:xlink="http://www.w3.org/1999/xlink" width="384.73828125" height="125"><defs/><g><g transform="translate(-10,-10) scale(1,1)"><rect fill="#C0C0C0" stroke="none" x="27" y="107" width="167.6826171875" height="25" opacity="0.2"/></g><g transform="translate(-10,-10) scale(1,1)"><rect fill="#ffffff" stroke="none" x="20" y="100" width="167.6826171875" height="25"/></g><g transform="translate(-10,-10) scale(1,1)"><path fill="none" stroke="#000000" d="M 20 100 L 187.6826171875 100 L 187.6826171875 125 L 20 125 L 20 100 Z Z" stroke-miterlimit="10"/></g><g transform="translate(-10,-10) scale(1,1)"><g><path fill="none" stroke="none"/><text fill="#000000" stroke="none" font-family="Arial" font-size="14px" font-style="normal" font-weight="bold" text-decoration="none" x="31.09326171875" y="120.5">ColsRecordConstructor</text></g></g><g transform="translate(-10,-10) scale(1,1)"><path fill="#C0C0C0" stroke="none" d="M 196.3310546875 38.5 C 196.3310546875 32.1487248 201.4797794875 27 207.8310546875 27 C 214.1823298875 27 219.3310546875 32.1487248 219.3310546875 38.5 C 219.3310546875 44.8512752 214.1823298875 50 207.8310546875 50 C 201.4797794875 50 196.3310546875 44.8512752 196.3310546875 38.5 Z" opacity="0.2"/></g><g transform="translate(-10,-10) scale(1,1)"><path fill="#ffffff" stroke="none" d="M 189.3310546875 31.5 C 189.3310546875 25.1487248 194.4797794875 20 200.8310546875 20 C 207.1823298875 20 212.3310546875 25.1487248 212.3310546875 31.5 C 212.3310546875 37.8512752 207.1823298875 43 200.8310546875 43 C 194.4797794875 43 189.3310546875 37.8512752 189.3310546875 31.5 Z"/></g><g transform="translate(-10,-10) scale(1,1)"><path fill="none" stroke="#000000" d="M 189.3310546875 31.5 C 189.3310546875 25.1487248 194.4797794875 20 200.8310546875 20 C 207.1823298875 20 212.3310546875 25.1487248 212.3310546875 31.5 C 212.3310546875 37.8512752 207.1823298875 43 200.8310546875 43 C 194.4797794875 43 189.3310546875 37.8512752 189.3310546875 31.5 Z" stroke-miterlimit="10"/></g><g transform="translate(-10,-10) scale(1,1)"><g><path fill="none" stroke="none"/><text fill="#000000" stroke="none" font-family="Arial" font-size="14px" font-style="normal" font-weight="bold" text-decoration="none" x="142.08642578125" y="63.5">RecordConstructor</text></g></g><g transform="translate(-10,-10) scale(1,1)"><rect fill="#C0C0C0" stroke="none" x="210.0830078125" y="107" width="198.0205078125" height="25" opacity="0.2"/></g><g transform="translate(-10,-10) scale(1,1)"><rect fill="#ffffff" stroke="none" x="203.0830078125" y="100" width="198.0205078125" height="25"/></g><g transform="translate(-10,-10) scale(1,1)"><path fill="none" stroke="#000000" d="M 203.0830078125 100 L 401.103515625 100 L 401.103515625 125 L 203.0830078125 125 L 203.0830078125 100 Z Z" stroke-miterlimit="10"/></g><g transform="translate(-10,-10) scale(1,1)"><g><path fill="none" stroke="none"/><text fill="#000000" stroke="none" font-family="Arial" font-size="14px" font-style="normal" font-weight="bold" text-decoration="none" x="214.9384765625" y="120.5">StandardRecordConstructor</text></g></g><g transform="translate(-10,-10) scale(1,1)"><path fill="none" stroke="#000000" d="M 100 99 Q 97 85 189.3310546875 37.4013671875" stroke-miterlimit="10"/></g><g transform="translate(-10,-10) scale(1,1)"><path fill="none" stroke="#000000" d="M 298 99 Q 294 85 212.3310546875 39.015185546875" stroke-miterlimit="10"/></g></g></svg>