<svg version="1.1" xmlns="http://www.w3.org/2000/svg" xmlns:xlink="http://www.w3.org/1999/xlink" width="206.59765625" height="125"><defs/><g><g transform="translate(-10,-10) scale(1,1)"><rect fill="#C0C0C0" stroke="none" x="27" y="107" width="202.443359375" height="25" opacity="0.2"/></g><g transform="translate(-10,-10) scale(1,1)"><rect fill="#ffffff" stroke="none" x="20" y="100" width="202.443359375" height="25"/></g><g transform="translate(-10,-10) scale(1,1)"><path fill="none" stroke="#000000" d="M 20 100 L 222.443359375 100 L 222.443359375 125 L 20 125 L 20 100 Z Z" stroke-miterlimit="10"/></g><g transform="translate(-10,-10) scale(1,1)"><g><path fill="none" stroke="none"/><text fill="#000000" stroke="none" font-family="Arial" font-size="14px" font-style="normal" font-weight="bold" text-decoration="none" x="30.5498046875" y="120.5">StandardTablePoolGenerator</text></g></g><g transform="translate(-10,-10) scale(1,1)"><path fill="#C0C0C0" stroke="none" d="M 114.39404296875 38.5 C 114.39404296875 32.1487248 119.54276776875 27 125.89404296875 27 C 132.24531816875 27 137.39404296875 32.1487248 137.39404296875 38.5 C 137.39404296875 44.8512752 132.24531816875 50 125.89404296875 50 C 119.54276776875 50 114.39404296875 44.8512752 114.39404296875 38.5 Z" opacity="0.2"/></g><g transform="translate(-10,-10) scale(1,1)"><path fill="#ffffff" stroke="none" d="M 107.39404296875 31.5 C 107.39404296875 25.1487248 112.54276776875 20 118.89404296875 20 C 125.24531816875 20 130.39404296875 25.1487248 130.39404296875 31.5 C 130.39404296875 37.8512752 125.24531816875 43 118.89404296875 43 C 112.54276776875 43 107.39404296875 37.8512752 107.39404296875 31.5 Z"/></g><g transform="translate(-10,-10) scale(1,1)"><path fill="none" stroke="#000000" d="M 107.39404296875 31.5 C 107.39404296875 25.1487248 112.54276776875 20 118.89404296875 20 C 125.24531816875 20 130.39404296875 25.1487248 130.39404296875 31.5 C 130.39404296875 37.8512752 125.24531816875 43 118.89404296875 43 C 112.54276776875 43 107.39404296875 37.8512752 107.39404296875 31.5 Z" stroke-miterlimit="10"/></g><g transform="translate(-10,-10) scale(1,1)"><g><path fill="none" stroke="none"/><text fill="#000000" stroke="none" font-family="Arial" font-size="14px" font-style="normal" font-weight="bold" text-decoration="none" x="56.63232421875" y="63.5">TablePoolGenerator</text></g></g><g transform="translate(-10,-10) scale(1,1)"><path fill="none" stroke="#000000" d="M 118 99 Q 114 85 117.07692307692308 43" stroke-miterlimit="10"/></g></g></svg>