<svg version="1.1" xmlns="http://www.w3.org/2000/svg" xmlns:xlink="http://www.w3.org/1999/xlink" width="538.5673828125" height="200"><defs/><g><g transform="translate(-10,-10) scale(1,1)"><rect fill="#C0C0C0" stroke="none" x="27" y="172.5" width="147.4619140625" height="25" opacity="0.2"/></g><g transform="translate(-10,-10) scale(1,1)"><rect fill="#ffffff" stroke="none" x="20" y="165.5" width="147.4619140625" height="25"/></g><g transform="translate(-10,-10) scale(1,1)"><path fill="none" stroke="#000000" d="M 20 165.5 L 167.4619140625 165.5 L 167.4619140625 190.5 L 20 190.5 L 20 165.5 Z Z" stroke-miterlimit="10"/></g><g transform="translate(-10,-10) scale(1,1)"><g><path fill="none" stroke="none"/><text fill="#000000" stroke="none" font-family="Arial" font-size="14px" font-style="normal" font-weight="bold" text-decoration="none" x="29.91748046875" y="186">LookOnlyOperations</text></g></g><g transform="translate(-10,-10) scale(1,1)"><rect fill="#C0C0C0" stroke="none" x="194.5791015625" y="172.5" width="133.455078125" height="25" opacity="0.2"/></g><g transform="translate(-10,-10) scale(1,1)"><rect fill="#ffffff" stroke="none" x="187.5791015625" y="165.5" width="133.455078125" height="25"/></g><g transform="translate(-10,-10) scale(1,1)"><path fill="none" stroke="#000000" d="M 187.5791015625 165.5 L 321.0341796875 165.5 L 321.0341796875 190.5 L 187.5791015625 190.5 L 187.5791015625 165.5 Z Z" stroke-miterlimit="10"/></g><g transform="translate(-10,-10) scale(1,1)"><g><path fill="none" stroke="none"/><text fill="#000000" stroke="none" font-family="Arial" font-size="14px" font-style="normal" font-weight="bold" text-decoration="none" x="195.55517578125" y="186">MenuUIOperations</text></g></g><g transform="translate(-10,-10) scale(1,1)"><path fill="#C0C0C0" stroke="none" d="M 251.01318359375 38.5 C 251.01318359375 32.1487248 256.16190839375 27 262.51318359375 27 C 268.86445879375 27 274.01318359375 32.1487248 274.01318359375 38.5 C 274.01318359375 44.8512752 268.86445879375 50 262.51318359375 50 C 256.16190839375 50 251.01318359375 44.8512752 251.01318359375 38.5 Z" opacity="0.2"/></g><g transform="translate(-10,-10) scale(1,1)"><path fill="#ffffff" stroke="none" d="M 244.01318359375 31.5 C 244.01318359375 25.1487248 249.16190839375 20 255.51318359375 20 C 261.86445879375 20 267.01318359375 25.1487248 267.01318359375 31.5 C 267.01318359375 37.8512752 261.86445879375 43 255.51318359375 43 C 249.16190839375 43 244.01318359375 37.8512752 244.01318359375 31.5 Z"/></g><g transform="translate(-10,-10) scale(1,1)"><path fill="none" stroke="#000000" d="M 244.01318359375 31.5 C 244.01318359375 25.1487248 249.16190839375 20 255.51318359375 20 C 261.86445879375 20 267.01318359375 25.1487248 267.01318359375 31.5 C 267.01318359375 37.8512752 261.86445879375 43 255.51318359375 43 C 249.16190839375 43 244.01318359375 37.8512752 244.01318359375 31.5 Z" stroke-miterlimit="10"/></g><g transform="translate(-10,-10) scale(1,1)"><g><path fill="none" stroke="none"/><text fill="#000000" stroke="none" font-family="Arial" font-size="14px" font-style="normal" font-weight="bold" text-decoration="none" x="186.25830078125" y="63.5">UIOPerationsInterface</text></g></g><g transform="translate(-10,-10) scale(1,1)"><rect fill="#C0C0C0" stroke="none" x="212.0791015625" y="107" width="96.9033203125" height="25" opacity="0.2"/></g><g transform="translate(-10,-10) scale(1,1)"><rect fill="#ffffff" stroke="none" x="205.0791015625" y="100" width="96.9033203125" height="25"/></g><g transform="translate(-10,-10) scale(1,1)"><path fill="none" stroke="#000000" d="M 205.0791015625 100 L 301.982421875 100 L 301.982421875 125 L 205.0791015625 125 L 205.0791015625 100 Z Z" stroke-miterlimit="10"/></g><g transform="translate(-10,-10) scale(1,1)"><g><path fill="none" stroke="none"/><text fill="#000000" stroke="none" font-family="Arial" font-size="14px" font-style="normal" font-weight="bold" text-decoration="none" x="212.28955078125" y="120.5">UIOperations</text></g></g><g transform="translate(-10,-10) scale(1,1)"><rect fill="#C0C0C0" stroke="none" x="352.02734375" y="182" width="194.5595703125" height="25" opacity="0.2"/></g><g transform="translate(-10,-10) scale(1,1)"><rect fill="#C0C0C0" stroke="none" x="537.2490234375" y="163" width="18.337890625" height="23" opacity="0.2"/></g><g transform="translate(-10,-10) scale(1,1)"><rect fill="#ffffff" stroke="none" x="345.02734375" y="175" width="194.5595703125" height="25"/></g><g transform="translate(-10,-10) scale(1,1)"><path fill="none" stroke="#000000" d="M 345.02734375 175 L 539.5869140625 175 L 539.5869140625 200 L 345.02734375 200 L 345.02734375 175 Z Z" stroke-miterlimit="10"/></g><g transform="translate(-10,-10) scale(1,1)"><g><path fill="none" stroke="none"/><text fill="#000000" stroke="none" font-family="Arial" font-size="14px" font-style="normal" font-weight="bold" text-decoration="none" x="364.49365234375" y="195.5">UIOperationsWithSender</text></g></g><g transform="translate(-10,-10) scale(1,1)"><rect fill="#ffffff" stroke="none" x="530.2490234375" y="156" width="18.337890625" height="23"/></g><g transform="translate(-10,-10) scale(1,1)"><path fill="none" stroke="#000000" d="M 530.2490234375 156 L 548.5869140625 156 L 548.5869140625 179 L 530.2490234375 179 L 530.2490234375 156 Z Z" stroke-miterlimit="10" stroke-dasharray="3"/></g><g transform="translate(-10,-10) scale(1,1)"><g><path fill="none" stroke="none"/><text fill="#000000" stroke="none" font-family="Arial" font-size="14px" font-style="normal" font-weight="normal" text-decoration="none" x="535.2490234375" y="174.5">E</text></g></g><g transform="translate(-10,-10) scale(1,1)"><path fill="none" stroke="#000000" d="M 92 165 Q 89 141 204 121" stroke-miterlimit="10"/></g><g transform="translate(-10,-10) scale(1,1)"><path fill="#FFFFFF" stroke="none" d="M 185.41775397462067 132.77710204813877 L 204 121 L 182.53269910481262 116.18803654674241"/></g><g transform="translate(-10,-10) scale(1,1)"><path fill="none" stroke="#000000" d="M 185.41775397462067 132.77710204813877 L 204 121 L 182.53269910481262 116.18803654674241 L 185.41775397462067 132.77710204813877" stroke-miterlimit="10"/></g><g transform="translate(-10,-10) scale(1,1)"><path fill="none" stroke="#000000" d="M 253 165 Q 251 141 252 126" stroke-miterlimit="10"/></g><g transform="translate(-10,-10) scale(1,1)"><path fill="#FFFFFF" stroke="none" d="M 259.04836652576523 146.8403581859447 L 252 126 L 242.2475891710188 145.72030636229493"/></g><g transform="translate(-10,-10) scale(1,1)"><path fill="none" stroke="#000000" d="M 259.04836652576523 146.8403581859447 L 252 126 L 242.2475891710188 145.72030636229493 L 259.04836652576523 146.8403581859447" stroke-miterlimit="10"/></g><g transform="translate(-10,-10) scale(1,1)"><path fill="none" stroke="#000000" d="M 252 99 Q 251 85 254.07692307692307 43" stroke-miterlimit="10"/></g><g transform="translate(-10,-10) scale(1,1)"><path fill="none" stroke="#000000" d="M 444 155 Q 442 141 303 120" stroke-miterlimit="10"/></g><g transform="translate(-10,-10) scale(1,1)"><path fill="#FFFFFF" stroke="none" d="M 324.3549529698538 114.71171259713198 L 303 120 L 321.8396159403348 131.36084817347205"/></g><g transform="translate(-10,-10) scale(1,1)"><path fill="none" stroke="#000000" d="M 324.3549529698538 114.71171259713198 L 303 120 L 321.8396159403348 131.36084817347205 L 324.3549529698538 114.71171259713198" stroke-miterlimit="10"/></g></g></svg>