<svg version="1.1" xmlns="http://www.w3.org/2000/svg" xmlns:xlink="http://www.w3.org/1999/xlink" width="219.5517578125" height="125"><defs/><g><g transform="translate(-10,-10) scale(1,1)"><path fill="#C0C0C0" stroke="none" d="M 121.12060546875 38.5 C 121.12060546875 32.1487248 126.26933026875 27 132.62060546875 27 C 138.97188066875 27 144.12060546875 32.1487248 144.12060546875 38.5 C 144.12060546875 44.8512752 138.97188066875 50 132.62060546875 50 C 126.26933026875 50 121.12060546875 44.8512752 121.12060546875 38.5 Z" opacity="0.2"/></g><g transform="translate(-10,-10) scale(1,1)"><path fill="#ffffff" stroke="none" d="M 114.12060546875 31.5 C 114.12060546875 25.1487248 119.26933026875 20 125.62060546875 20 C 131.97188066875 20 137.12060546875 25.1487248 137.12060546875 31.5 C 137.12060546875 37.8512752 131.97188066875 43 125.62060546875 43 C 119.26933026875 43 114.12060546875 37.8512752 114.12060546875 31.5 Z"/></g><g transform="translate(-10,-10) scale(1,1)"><path fill="none" stroke="#000000" d="M 114.12060546875 31.5 C 114.12060546875 25.1487248 119.26933026875 20 125.62060546875 20 C 131.97188066875 20 137.12060546875 25.1487248 137.12060546875 31.5 C 137.12060546875 37.8512752 131.97188066875 43 125.62060546875 43 C 119.26933026875 43 114.12060546875 37.8512752 114.12060546875 31.5 Z" stroke-miterlimit="10"/></g><g transform="translate(-10,-10) scale(1,1)"><g><path fill="none" stroke="none"/><text fill="#000000" stroke="none" font-family="Arial" font-size="14px" font-style="normal" font-weight="bold" text-decoration="none" x="59.87255859375" y="63.5">AttributesConstructor</text></g></g><g transform="translate(-10,-10) scale(1,1)"><rect fill="#C0C0C0" stroke="none" x="27" y="107" width="215.896484375" height="25" opacity="0.2"/></g><g transform="translate(-10,-10) scale(1,1)"><rect fill="#ffffff" stroke="none" x="20" y="100" width="215.896484375" height="25"/></g><g transform="translate(-10,-10) scale(1,1)"><path fill="none" stroke="#000000" d="M 20 100 L 235.896484375 100 L 235.896484375 125 L 20 125 L 20 100 Z Z" stroke-miterlimit="10"/></g><g transform="translate(-10,-10) scale(1,1)"><g><path fill="none" stroke="none"/><text fill="#000000" stroke="none" font-family="Arial" font-size="14px" font-style="normal" font-weight="bold" text-decoration="none" x="33.7900390625" y="120.5">StandardAttributesConstructor</text></g></g><g transform="translate(-10,-10) scale(1,1)"><path fill="none" stroke="#000000" d="M 124 99 Q 120 85 124.07692307692308 43" stroke-miterlimit="10"/></g></g></svg>