<svg version="1.1" xmlns="http://www.w3.org/2000/svg" xmlns:xlink="http://www.w3.org/1999/xlink" width="392.138671875" height="200"><defs/><g><g transform="translate(-10,-10) scale(1,1)"><rect fill="#C0C0C0" stroke="none" x="27" y="172.5" width="147.4619140625" height="25" opacity="0.2"/></g><g transform="translate(-10,-10) scale(1,1)"><rect fill="#ffffff" stroke="none" x="20" y="165.5" width="147.4619140625" height="25"/></g><g transform="translate(-10,-10) scale(1,1)"><path fill="none" stroke="#000000" d="M 20 165.5 L 167.4619140625 165.5 L 167.4619140625 190.5 L 20 190.5 L 20 165.5 Z Z" stroke-miterlimit="10"/></g><g transform="translate(-10,-10) scale(1,1)"><g><path fill="none" stroke="none"/><text fill="#000000" stroke="none" font-family="Arial" font-size="14px" font-style="normal" font-weight="bold" text-decoration="none" x="29.91748046875" y="186">LookOnlyOperations</text></g></g><g transform="translate(-10,-10) scale(1,1)"><path fill="#C0C0C0" stroke="none" d="M 186.529296875 38.5 C 186.529296875 32.1487248 191.678021675 27 198.029296875 27 C 204.380572075 27 209.529296875 32.1487248 209.529296875 38.5 C 209.529296875 44.8512752 204.380572075 50 198.029296875 50 C 191.678021675 50 186.529296875 44.8512752 186.529296875 38.5 Z" opacity="0.2"/></g><g transform="translate(-10,-10) scale(1,1)"><path fill="#ffffff" stroke="none" d="M 179.529296875 31.5 C 179.529296875 25.1487248 184.678021675 20 191.029296875 20 C 197.380572075 20 202.529296875 25.1487248 202.529296875 31.5 C 202.529296875 37.8512752 197.380572075 43 191.029296875 43 C 184.678021675 43 179.529296875 37.8512752 179.529296875 31.5 Z"/></g><g transform="translate(-10,-10) scale(1,1)"><path fill="none" stroke="#000000" d="M 179.529296875 31.5 C 179.529296875 25.1487248 184.678021675 20 191.029296875 20 C 197.380572075 20 202.529296875 25.1487248 202.529296875 31.5 C 202.529296875 37.8512752 197.380572075 43 191.029296875 43 C 184.678021675 43 179.529296875 37.8512752 179.529296875 31.5 Z" stroke-miterlimit="10"/></g><g transform="translate(-10,-10) scale(1,1)"><g><path fill="none" stroke="none"/><text fill="#000000" stroke="none" font-family="Arial" font-size="14px" font-style="normal" font-weight="bold" text-decoration="none" x="121.7744140625" y="63.5">UIOPerationsInterface</text></g></g><g transform="translate(-10,-10) scale(1,1)"><rect fill="#C0C0C0" stroke="none" x="147.59521484375" y="107" width="96.9033203125" height="25" opacity="0.2"/></g><g transform="translate(-10,-10) scale(1,1)"><rect fill="#ffffff" stroke="none" x="140.59521484375" y="100" width="96.9033203125" height="25"/></g><g transform="translate(-10,-10) scale(1,1)"><path fill="none" stroke="#000000" d="M 140.59521484375 100 L 237.49853515625 100 L 237.49853515625 125 L 140.59521484375 125 L 140.59521484375 100 Z Z" stroke-miterlimit="10"/></g><g transform="translate(-10,-10) scale(1,1)"><g><path fill="none" stroke="none"/><text fill="#000000" stroke="none" font-family="Arial" font-size="14px" font-style="normal" font-weight="bold" text-decoration="none" x="147.8056640625" y="120.5">UIOperations</text></g></g><g transform="translate(-10,-10) scale(1,1)"><rect fill="#C0C0C0" stroke="none" x="194.5791015625" y="182" width="194.5595703125" height="25" opacity="0.2"/></g><g transform="translate(-10,-10) scale(1,1)"><rect fill="#C0C0C0" stroke="none" x="379.80078125" y="163" width="18.337890625" height="23" opacity="0.2"/></g><g transform="translate(-10,-10) scale(1,1)"><rect fill="#ffffff" stroke="none" x="187.5791015625" y="175" width="194.5595703125" height="25"/></g><g transform="translate(-10,-10) scale(1,1)"><path fill="none" stroke="#000000" d="M 187.5791015625 175 L 382.138671875 175 L 382.138671875 200 L 187.5791015625 200 L 187.5791015625 175 Z Z" stroke-miterlimit="10"/></g><g transform="translate(-10,-10) scale(1,1)"><g><path fill="none" stroke="none"/><text fill="#000000" stroke="none" font-family="Arial" font-size="14px" font-style="normal" font-weight="bold" text-decoration="none" x="207.04541015625" y="195.5">UIOperationsWithSender</text></g></g><g transform="translate(-10,-10) scale(1,1)"><rect fill="#ffffff" stroke="none" x="372.80078125" y="156" width="18.337890625" height="23"/></g><g transform="translate(-10,-10) scale(1,1)"><path fill="none" stroke="#000000" d="M 372.80078125 156 L 391.138671875 156 L 391.138671875 179 L 372.80078125 179 L 372.80078125 156 Z Z" stroke-miterlimit="10" stroke-dasharray="3"/></g><g transform="translate(-10,-10) scale(1,1)"><g><path fill="none" stroke="none"/><text fill="#000000" stroke="none" font-family="Arial" font-size="14px" font-style="normal" font-weight="normal" text-decoration="none" x="377.80078125" y="174.5">E</text></g></g><g transform="translate(-10,-10) scale(1,1)"><path fill="none" stroke="#000000" d="M 92 165 Q 89 141 141 126" stroke-miterlimit="10"/></g><g transform="translate(-10,-10) scale(1,1)"><path fill="#FFFFFF" stroke="none" d="M 123.80434986043852 139.72259509997286 L 141 126 L 119.13749912873658 123.54417923007279"/></g><g transform="translate(-10,-10) scale(1,1)"><path fill="none" stroke="#000000" d="M 123.80434986043852 139.72259509997286 L 141 126 L 119.13749912873658 123.54417923007279 L 123.80434986043852 139.72259509997286" stroke-miterlimit="10"/></g><g transform="translate(-10,-10) scale(1,1)"><path fill="none" stroke="#000000" d="M 188 99 Q 187 85 190.07692307692307 43" stroke-miterlimit="10"/></g><g transform="translate(-10,-10) scale(1,1)"><path fill="none" stroke="#000000" d="M 287 155 Q 285 141 235 126" stroke-miterlimit="10"/></g><g transform="translate(-10,-10) scale(1,1)"><path fill="#FFFFFF" stroke="none" d="M 256.88734626646743 123.77647275443859 L 235 126 L 252.0489621606867 139.90441977370767"/></g><g transform="translate(-10,-10) scale(1,1)"><path fill="none" stroke="#000000" d="M 256.88734626646743 123.77647275443859 L 235 126 L 252.0489621606867 139.90441977370767 L 256.88734626646743 123.77647275443859" stroke-miterlimit="10"/></g></g></svg>