<svg version="1.1" xmlns="http://www.w3.org/2000/svg" xmlns:xlink="http://www.w3.org/1999/xlink" width="276.7236328125" height="45"><defs/><g><g transform="translate(-10,-10) scale(1,1)"><rect fill="#C0C0C0" stroke="none" x="27" y="27" width="101.080078125" height="25" opacity="0.2"/></g><g transform="translate(-10,-10) scale(1,1)"><rect fill="#ffffff" stroke="none" x="20" y="20" width="101.080078125" height="25"/></g><g transform="translate(-10,-10) scale(1,1)"><path fill="none" stroke="#000000" d="M 20 20 L 121.080078125 20 L 121.080078125 45 L 20 45 L 20 20 Z Z" stroke-miterlimit="10"/></g><g transform="translate(-10,-10) scale(1,1)"><g><path fill="none" stroke="none"/><text fill="#000000" stroke="none" font-family="Arial" font-size="14px" font-style="normal" font-weight="bold" text-decoration="none" x="27.10107421875" y="40.5">WelcomeTask</text></g></g><g transform="translate(-10,-10) scale(1,1)"><rect fill="#C0C0C0" stroke="none" x="149.71484375" y="27" width="134.0087890625" height="25" opacity="0.2"/></g><g transform="translate(-10,-10) scale(1,1)"><rect fill="#ffffff" stroke="none" x="142.71484375" y="20" width="134.0087890625" height="25"/></g><g transform="translate(-10,-10) scale(1,1)"><path fill="none" stroke="#000000" d="M 142.71484375 20 L 276.7236328125 20 L 276.7236328125 45 L 142.71484375 45 L 142.71484375 20 Z Z" stroke-miterlimit="10"/></g><g transform="translate(-10,-10) scale(1,1)"><g><path fill="none" stroke="none"/><text fill="#000000" stroke="none" font-family="Arial" font-size="14px" font-style="normal" font-weight="bold" text-decoration="none" x="150.7216796875" y="40.5">WelcomeUIDisplay</text></g></g></g></svg>