<svg version="1.1" xmlns="http://www.w3.org/2000/svg" xmlns:xlink="http://www.w3.org/1999/xlink" width="1142.1884765625" height="125"><defs/><g><g transform="translate(-10,-10) scale(1,1)"><rect fill="#C0C0C0" stroke="none" x="27" y="107" width="189.44140625" height="25" opacity="0.2"/></g><g transform="translate(-10,-10) scale(1,1)"><rect fill="#ffffff" stroke="none" x="20" y="100" width="189.44140625" height="25"/></g><g transform="translate(-10,-10) scale(1,1)"><path fill="none" stroke="#000000" d="M 20 100 L 209.44140625 100 L 209.44140625 125 L 20 125 L 20 100 Z Z" stroke-miterlimit="10"/></g><g transform="translate(-10,-10) scale(1,1)"><g><path fill="none" stroke="none"/><text fill="#000000" stroke="none" font-family="Arial" font-size="14px" font-style="normal" font-weight="bold" text-decoration="none" x="31.05224609375" y="120.5">ChangeAppointmentStatus</text></g></g><g transform="translate(-10,-10) scale(1,1)"><rect fill="#C0C0C0" stroke="none" x="229.5859375" y="107" width="117.390625" height="25" opacity="0.2"/></g><g transform="translate(-10,-10) scale(1,1)"><rect fill="#ffffff" stroke="none" x="222.5859375" y="100" width="117.390625" height="25"/></g><g transform="translate(-10,-10) scale(1,1)"><path fill="none" stroke="#000000" d="M 222.5859375 100 L 339.9765625 100 L 339.9765625 125 L 222.5859375 125 L 222.5859375 100 Z Z" stroke-miterlimit="10"/></g><g transform="translate(-10,-10) scale(1,1)"><g><path fill="none" stroke="none"/><text fill="#000000" stroke="none" font-family="Arial" font-size="14px" font-style="normal" font-weight="bold" text-decoration="none" x="230.30908203125" y="120.5">GetAllTableType</text></g></g><g transform="translate(-10,-10) scale(1,1)"><rect fill="#C0C0C0" stroke="none" x="371.4892578125" y="107" width="168.796875" height="25" opacity="0.2"/></g><g transform="translate(-10,-10) scale(1,1)"><rect fill="#ffffff" stroke="none" x="364.4892578125" y="100" width="168.796875" height="25"/></g><g transform="translate(-10,-10) scale(1,1)"><path fill="none" stroke="#000000" d="M 364.4892578125 100 L 533.2861328125 100 L 533.2861328125 125 L 364.4892578125 125 L 364.4892578125 100 Z Z" stroke-miterlimit="10"/></g><g transform="translate(-10,-10) scale(1,1)"><g><path fill="none" stroke="none"/><text fill="#000000" stroke="none" font-family="Arial" font-size="14px" font-style="normal" font-weight="bold" text-decoration="none" x="374.3212890625" y="120.5">GetAvailablePrimarykey</text></g></g><g transform="translate(-10,-10) scale(1,1)"><rect fill="#C0C0C0" stroke="none" x="560.533203125" y="107" width="142.779296875" height="25" opacity="0.2"/></g><g transform="translate(-10,-10) scale(1,1)"><rect fill="#ffffff" stroke="none" x="553.533203125" y="100" width="142.779296875" height="25"/></g><g transform="translate(-10,-10) scale(1,1)"><path fill="none" stroke="#000000" d="M 553.533203125 100 L 696.3125 100 L 696.3125 125 L 553.533203125 125 L 553.533203125 100 Z Z" stroke-miterlimit="10"/></g><g transform="translate(-10,-10) scale(1,1)"><g><path fill="none" stroke="none"/><text fill="#000000" stroke="none" font-family="Arial" font-size="14px" font-style="normal" font-weight="bold" text-decoration="none" x="562.93115234375" y="120.5">GetTableWaitingList</text></g></g><g transform="translate(-10,-10) scale(1,1)"><rect fill="#C0C0C0" stroke="none" x="726.041015625" y="107" width="149.7861328125" height="25" opacity="0.2"/></g><g transform="translate(-10,-10) scale(1,1)"><rect fill="#ffffff" stroke="none" x="719.041015625" y="100" width="149.7861328125" height="25"/></g><g transform="translate(-10,-10) scale(1,1)"><path fill="none" stroke="#000000" d="M 719.041015625 100 L 868.8271484375 100 L 868.8271484375 125 L 719.041015625 125 L 719.041015625 100 Z Z" stroke-miterlimit="10"/></g><g transform="translate(-10,-10) scale(1,1)"><g><path fill="none" stroke="none"/><text fill="#000000" stroke="none" font-family="Arial" font-size="14px" font-style="normal" font-weight="bold" text-decoration="none" x="728.56884765625" y="120.5">GetUserAppointment</text></g></g><g transform="translate(-10,-10) scale(1,1)"><rect fill="#C0C0C0" stroke="none" x="895.1376953125" y="107" width="154.482421875" height="25" opacity="0.2"/></g><g transform="translate(-10,-10) scale(1,1)"><rect fill="#ffffff" stroke="none" x="888.1376953125" y="100" width="154.482421875" height="25"/></g><g transform="translate(-10,-10) scale(1,1)"><path fill="none" stroke="#000000" d="M 888.1376953125 100 L 1042.6201171875 100 L 1042.6201171875 125 L 888.1376953125 125 L 888.1376953125 100 Z Z" stroke-miterlimit="10"/></g><g transform="translate(-10,-10) scale(1,1)"><g><path fill="none" stroke="none"/><text fill="#000000" stroke="none" font-family="Arial" font-size="14px" font-style="normal" font-weight="bold" text-decoration="none" x="896.12744140625" y="120.5">GetUserOrderedMenu</text></g></g><g transform="translate(-10,-10) scale(1,1)"><path fill="#C0C0C0" stroke="none" d="M 617.982421875 38.5 C 617.982421875 32.1487248 623.131146675 27 629.482421875 27 C 635.833697075 27 640.982421875 32.1487248 640.982421875 38.5 C 640.982421875 44.8512752 635.833697075 50 629.482421875 50 C 623.131146675 50 617.982421875 44.8512752 617.982421875 38.5 Z" opacity="0.2"/></g><g transform="translate(-10,-10) scale(1,1)"><path fill="#ffffff" stroke="none" d="M 610.982421875 31.5 C 610.982421875 25.1487248 616.131146675 20 622.482421875 20 C 628.833697075 20 633.982421875 25.1487248 633.982421875 31.5 C 633.982421875 37.8512752 628.833697075 43 622.482421875 43 C 616.131146675 43 610.982421875 37.8512752 610.982421875 31.5 Z"/></g><g transform="translate(-10,-10) scale(1,1)"><path fill="none" stroke="#000000" d="M 610.982421875 31.5 C 610.982421875 25.1487248 616.131146675 20 622.482421875 20 C 628.833697075 20 633.982421875 25.1487248 633.982421875 31.5 C 633.982421875 37.8512752 628.833697075 43 622.482421875 43 C 616.131146675 43 610.982421875 37.8512752 610.982421875 31.5 Z" stroke-miterlimit="10"/></g><g transform="translate(-10,-10) scale(1,1)"><g><path fill="none" stroke="none"/><text fill="#000000" stroke="none" font-family="Arial" font-size="14px" font-style="normal" font-weight="bold" text-decoration="none" x="608.08935546875" y="63.5">Proc</text></g></g><g transform="translate(-10,-10) scale(1,1)"><rect fill="#C0C0C0" stroke="none" x="1070.9609375" y="107" width="78.2275390625" height="25" opacity="0.2"/></g><g transform="translate(-10,-10) scale(1,1)"><rect fill="#ffffff" stroke="none" x="1063.9609375" y="100" width="78.2275390625" height="25"/></g><g transform="translate(-10,-10) scale(1,1)"><path fill="none" stroke="#000000" d="M 1063.9609375 100 L 1142.1884765625 100 L 1142.1884765625 125 L 1063.9609375 125 L 1063.9609375 100 Z Z" stroke-miterlimit="10"/></g><g transform="translate(-10,-10) scale(1,1)"><g><path fill="none" stroke="none"/><text fill="#000000" stroke="none" font-family="Arial" font-size="14px" font-style="normal" font-weight="bold" text-decoration="none" x="1071.16796875" y="120.5">UserLogin</text></g></g><g transform="translate(-10,-10) scale(1,1)"><path fill="none" stroke="#000000" d="M 110 99 Q 106 85 610.982421875 38.869698660714285" stroke-miterlimit="10"/></g><g transform="translate(-10,-10) scale(1,1)"><path fill="none" stroke="#000000" d="M 280 99 Q 279 85 610.982421875 38.869698660714285" stroke-miterlimit="10"/></g><g transform="translate(-10,-10) scale(1,1)"><path fill="none" stroke="#000000" d="M 446 99 Q 444 85 610.982421875 40.44363839285714" stroke-miterlimit="10"/></g><g transform="translate(-10,-10) scale(1,1)"><path fill="none" stroke="#000000" d="M 623 99 Q 621 85 621.6923076923077 43" stroke-miterlimit="10"/></g><g transform="translate(-10,-10) scale(1,1)"><path fill="none" stroke="#000000" d="M 791 99 Q 789 85 633.982421875 40.80379971590909" stroke-miterlimit="10"/></g><g transform="translate(-10,-10) scale(1,1)"><path fill="none" stroke="#000000" d="M 963 99 Q 961 85 633.982421875 39.71448863636364" stroke-miterlimit="10"/></g><g transform="translate(-10,-10) scale(1,1)"><path fill="none" stroke="#000000" d="M 1102 99 Q 1100 85 633.982421875 39.16983309659091" stroke-miterlimit="10"/></g></g></svg>