<svg version="1.1" xmlns="http://www.w3.org/2000/svg" xmlns:xlink="http://www.w3.org/1999/xlink" width="285.99658203125" height="221"><defs/><g><g transform="translate(-10,-10) scale(1,1)"><path fill="#C0C0C0" stroke="none" d="M 77.17236328125 118.5 C 77.17236328125 112.1487248 82.32108808125 107 88.67236328125 107 C 95.02363848125 107 100.17236328125 112.1487248 100.17236328125 118.5 C 100.17236328125 124.8512752 95.02363848125 130 88.67236328125 130 C 82.32108808125 130 77.17236328125 124.8512752 77.17236328125 118.5 Z" opacity="0.2"/></g><g transform="translate(-10,-10) scale(1,1)"><path fill="#ffffff" stroke="none" d="M 70.17236328125 111.5 C 70.17236328125 105.1487248 75.32108808125 100 81.67236328125 100 C 88.02363848125 100 93.17236328125 105.1487248 93.17236328125 111.5 C 93.17236328125 117.8512752 88.02363848125 123 81.67236328125 123 C 75.32108808125 123 70.17236328125 117.8512752 70.17236328125 111.5 Z"/></g><g transform="translate(-10,-10) scale(1,1)"><path fill="none" stroke="#000000" d="M 70.17236328125 111.5 C 70.17236328125 105.1487248 75.32108808125 100 81.67236328125 100 C 88.02363848125 100 93.17236328125 105.1487248 93.17236328125 111.5 C 93.17236328125 117.8512752 88.02363848125 123 81.67236328125 123 C 75.32108808125 123 70.17236328125 117.8512752 70.17236328125 111.5 Z" stroke-miterlimit="10"/></g><g transform="translate(-10,-10) scale(1,1)"><g><path fill="none" stroke="none"/><text fill="#000000" stroke="none" font-family="Arial" font-size="14px" font-style="normal" font-weight="bold" text-decoration="none" x="29.15185546875" y="143.5">ConstructRecord</text></g></g><g transform="translate(-10,-10) scale(1,1)"><path fill="#C0C0C0" stroke="none" d="M 217.87255859375 38.5 C 217.87255859375 32.1487248 223.02128339375 27 229.37255859375 27 C 235.72383379375 27 240.87255859375 32.1487248 240.87255859375 38.5 C 240.87255859375 44.8512752 235.72383379375 50 229.37255859375 50 C 223.02128339375 50 217.87255859375 44.8512752 217.87255859375 38.5 Z" opacity="0.2"/></g><g transform="translate(-10,-10) scale(1,1)"><path fill="#ffffff" stroke="none" d="M 210.87255859375 31.5 C 210.87255859375 25.1487248 216.02128339375 20 222.37255859375 20 C 228.72383379375 20 233.87255859375 25.1487248 233.87255859375 31.5 C 233.87255859375 37.8512752 228.72383379375 43 222.37255859375 43 C 216.02128339375 43 210.87255859375 37.8512752 210.87255859375 31.5 Z"/></g><g transform="translate(-10,-10) scale(1,1)"><path fill="none" stroke="#000000" d="M 210.87255859375 31.5 C 210.87255859375 25.1487248 216.02128339375 20 222.37255859375 20 C 228.72383379375 20 233.87255859375 25.1487248 233.87255859375 31.5 C 233.87255859375 37.8512752 228.72383379375 43 222.37255859375 43 C 216.02128339375 43 210.87255859375 37.8512752 210.87255859375 31.5 Z" stroke-miterlimit="10"/></g><g transform="translate(-10,-10) scale(1,1)"><g><path fill="none" stroke="none"/><text fill="#000000" stroke="none" font-family="Arial" font-size="14px" font-style="normal" font-weight="bold" text-decoration="none" x="167.1279296875" y="63.5">ImmutableRecord</text></g></g><g transform="translate(-10,-10) scale(1,1)"><path fill="#C0C0C0" stroke="none" d="M 217.8759765625 118.5 C 217.8759765625 112.1487248 223.0247013625 107 229.3759765625 107 C 235.7272517625 107 240.8759765625 112.1487248 240.8759765625 118.5 C 240.8759765625 124.8512752 235.7272517625 130 229.3759765625 130 C 223.0247013625 130 217.8759765625 124.8512752 217.8759765625 118.5 Z" opacity="0.2"/></g><g transform="translate(-10,-10) scale(1,1)"><path fill="#ffffff" stroke="none" d="M 210.8759765625 111.5 C 210.8759765625 105.1487248 216.0247013625 100 222.3759765625 100 C 228.7272517625 100 233.8759765625 105.1487248 233.8759765625 111.5 C 233.8759765625 117.8512752 228.7272517625 123 222.3759765625 123 C 216.0247013625 123 210.8759765625 117.8512752 210.8759765625 111.5 Z"/></g><g transform="translate(-10,-10) scale(1,1)"><path fill="none" stroke="#000000" d="M 210.8759765625 111.5 C 210.8759765625 105.1487248 216.0247013625 100 222.3759765625 100 C 228.7272517625 100 233.8759765625 105.1487248 233.8759765625 111.5 C 233.8759765625 117.8512752 228.7272517625 123 222.3759765625 123 C 216.0247013625 123 210.8759765625 117.8512752 210.8759765625 111.5 Z" stroke-miterlimit="10"/></g><g transform="translate(-10,-10) scale(1,1)"><g><path fill="none" stroke="none"/><text fill="#000000" stroke="none" font-family="Arial" font-size="14px" font-style="normal" font-weight="bold" text-decoration="none" x="171.01416015625" y="143.5">MuteableRecord</text></g></g><g transform="translate(-10,-10) scale(1,1)"><rect fill="#C0C0C0" stroke="none" x="127.87255859375" y="187" width="57.234375" height="41" opacity="0.2"/></g><g transform="translate(-10,-10) scale(1,1)"><rect fill="#ffffff" stroke="none" x="120.87255859375" y="180" width="57.234375" height="41"/></g><g transform="translate(-10,-10) scale(1,1)"><path fill="none" stroke="#000000" d="M 120.87255859375 180 L 178.10693359375 180 L 178.10693359375 221 L 120.87255859375 221 L 120.87255859375 180 Z Z" stroke-miterlimit="10"/></g><g transform="translate(-10,-10) scale(1,1)"><g><path fill="none" stroke="none"/><text fill="#000000" stroke="none" font-family="Arial" font-size="14px" font-style="normal" font-weight="bold" text-decoration="none" x="126.92431640625" y="200.5">Record</text></g></g><g transform="translate(-10,-10) scale(1,1)"><g><path fill="none" stroke="none"/><text fill="#000000" stroke="none" font-family="Arial" font-size="14px" font-style="normal" font-weight="normal" text-decoration="none" x="141.18310546875" y="216.5">{leaf}</text></g></g><g transform="translate(-10,-10) scale(1,1)"><path fill="none" stroke="#000000" d="M 120 186 Q 77 165 80.07692307692308 123" stroke-miterlimit="10"/></g><g transform="translate(-10,-10) scale(1,1)"><path fill="none" stroke="#000000" d="M 220 99 Q 219 85 220 70" stroke-miterlimit="10"/></g><g transform="translate(-10,-10) scale(1,1)"><path fill="#FFFFFF" stroke="none" d="M 227.04836652576523 90.8403581859447 L 220 70 L 210.2475891710188 89.72030636229493"/></g><g transform="translate(-10,-10) scale(1,1)"><path fill="none" stroke="#000000" d="M 227.04836652576523 90.8403581859447 L 220 70 L 210.2475891710188 89.72030636229493 L 227.04836652576523 90.8403581859447" stroke-miterlimit="10"/></g><g transform="translate(-10,-10) scale(1,1)"><path fill="none" stroke="#000000" d="M 179 185 Q 219 165 221.3846153846154 123" stroke-miterlimit="10"/></g></g></svg>