<svg version="1.1" xmlns="http://www.w3.org/2000/svg" xmlns:xlink="http://www.w3.org/1999/xlink" width="158.7724609375" height="69"><defs/><g><g transform="translate(-10,-10) scale(1,1)"><path fill="#C0C0C0" stroke="none" d="M 48 38.5 C 48 32.1487248 53.1487248 27 59.5 27 C 65.8512752 27 71 32.1487248 71 38.5 C 71 44.8512752 65.8512752 50 59.5 50 C 53.1487248 50 48 44.8512752 48 38.5 Z" opacity="0.2"/></g><g transform="translate(-10,-10) scale(1,1)"><path fill="#ffffff" stroke="none" d="M 41 31.5 C 41 25.1487248 46.1487248 20 52.5 20 C 58.8512752 20 64 25.1487248 64 31.5 C 64 37.8512752 58.8512752 43 52.5 43 C 46.1487248 43 41 37.8512752 41 31.5 Z"/></g><g transform="translate(-10,-10) scale(1,1)"><path fill="none" stroke="#000000" d="M 41 31.5 C 41 25.1487248 46.1487248 20 52.5 20 C 58.8512752 20 64 25.1487248 64 31.5 C 64 37.8512752 58.8512752 43 52.5 43 C 46.1487248 43 41 37.8512752 41 31.5 Z" stroke-miterlimit="10"/></g><g transform="translate(-10,-10) scale(1,1)"><g><path fill="none" stroke="none"/><text fill="#000000" stroke="none" font-family="Arial" font-size="14px" font-style="normal" font-weight="bold" text-decoration="none" x="27.20703125" y="63.5">Account</text></g></g><g transform="translate(-10,-10) scale(1,1)"><rect fill="#C0C0C0" stroke="none" x="116.7724609375" y="31.5" width="20.09101562500001" height="15" opacity="0.2"/></g><g transform="translate(-10,-10) scale(1,1)"><rect fill="#C0C0C0" stroke="none" x="116.7724609375" y="45.5" width="50.2275390625" height="26" opacity="0.2"/></g><g transform="translate(-10,-10) scale(1,1)"><rect fill="#ffffff" stroke="none" x="109.7724609375" y="39.5" width="50.2275390625" height="25"/></g><g transform="translate(-10,-10) scale(1,1)"><path fill="none" stroke="#000000" d="M 109.7724609375 39.5 L 160 39.5 L 160 64.5 L 109.7724609375 64.5 L 109.7724609375 39.5 Z Z" stroke-miterlimit="10"/></g><g transform="translate(-10,-10) scale(1,1)"><rect fill="#ffffff" stroke="none" x="109.7724609375" y="24.5" width="20.09101562500001" height="15"/></g><g transform="translate(-10,-10) scale(1,1)"><path fill="none" stroke="#000000" d="M 109.7724609375 24.5 L 129.8634765625 24.5 L 129.8634765625 39.5 L 109.7724609375 39.5 L 109.7724609375 24.5 Z Z" stroke-miterlimit="10"/></g><g transform="translate(-10,-10) scale(1,1)"><rect fill="#ffffff" stroke="none" x="109.7724609375" y="38.5" width="50.2275390625" height="26"/></g><g transform="translate(-10,-10) scale(1,1)"><path fill="none" stroke="#000000" d="M 109.7724609375 38.5 L 160 38.5 L 160 64.5 L 109.7724609375 64.5 L 109.7724609375 38.5 Z Z" stroke-miterlimit="10"/></g><g transform="translate(-10,-10) scale(1,1)"><g><path fill="none" stroke="none"/><text fill="#000000" stroke="none" font-family="Arial" font-size="14px" font-style="normal" font-weight="bold" text-decoration="none" x="115.82080078125" y="60">admin</text></g></g></g></svg>