<svg version="1.1" xmlns="http://www.w3.org/2000/svg" xmlns:xlink="http://www.w3.org/1999/xlink" width="273.275390625" height="125"><defs/><g><g transform="translate(-10,-10) scale(1,1)"><rect fill="#C0C0C0" stroke="none" x="27" y="107" width="253.275390625" height="25" opacity="0.2"/></g><g transform="translate(-10,-10) scale(1,1)"><rect fill="#ffffff" stroke="none" x="20" y="100" width="253.275390625" height="25"/></g><g transform="translate(-10,-10) scale(1,1)"><path fill="none" stroke="#000000" d="M 20 100 L 273.275390625 100 L 273.275390625 125 L 20 125 L 20 100 Z Z" stroke-miterlimit="10"/></g><g transform="translate(-10,-10) scale(1,1)"><g><path fill="none" stroke="none"/><text fill="#000000" stroke="none" font-family="Arial" font-size="14px" font-style="normal" font-weight="bold" text-decoration="none" x="32.2314453125" y="120.5">StandardUnifiedDatabaseOperations</text></g></g><g transform="translate(-10,-10) scale(1,1)"><path fill="#C0C0C0" stroke="none" d="M 139.81005859375 38.5 C 139.81005859375 32.1487248 144.95878339375 27 151.31005859375 27 C 157.66133379375 27 162.81005859375 32.1487248 162.81005859375 38.5 C 162.81005859375 44.8512752 157.66133379375 50 151.31005859375 50 C 144.95878339375 50 139.81005859375 44.8512752 139.81005859375 38.5 Z" opacity="0.2"/></g><g transform="translate(-10,-10) scale(1,1)"><path fill="#ffffff" stroke="none" d="M 132.81005859375 31.5 C 132.81005859375 25.1487248 137.95878339375 20 144.31005859375 20 C 150.66133379375 20 155.81005859375 25.1487248 155.81005859375 31.5 C 155.81005859375 37.8512752 150.66133379375 43 144.31005859375 43 C 137.95878339375 43 132.81005859375 37.8512752 132.81005859375 31.5 Z"/></g><g transform="translate(-10,-10) scale(1,1)"><path fill="none" stroke="#000000" d="M 132.81005859375 31.5 C 132.81005859375 25.1487248 137.95878339375 20 144.31005859375 20 C 150.66133379375 20 155.81005859375 25.1487248 155.81005859375 31.5 C 155.81005859375 37.8512752 150.66133379375 43 144.31005859375 43 C 137.95878339375 43 132.81005859375 37.8512752 132.81005859375 31.5 Z" stroke-miterlimit="10"/></g><g transform="translate(-10,-10) scale(1,1)"><g><path fill="none" stroke="none"/><text fill="#000000" stroke="none" font-family="Arial" font-size="14px" font-style="normal" font-weight="bold" text-decoration="none" x="58.31396484375" y="63.5">UnifiedDatabaseOperations</text></g></g><g transform="translate(-10,-10) scale(1,1)"><path fill="none" stroke="#000000" d="M 141 99 Q 136 85 142.46153846153845 43" stroke-miterlimit="10"/></g></g></svg>