<svg version="1.1" xmlns="http://www.w3.org/2000/svg" xmlns:xlink="http://www.w3.org/1999/xlink" width="1921.9423828125" height="273"><defs/><g><g transform="translate(-10,-10) scale(1,1)"><rect fill="#C0C0C0" stroke="none" x="240.119384765625" y="27" width="27.878515624999977" height="15" opacity="0.2"/></g><g transform="translate(-10,-10) scale(1,1)"><rect fill="#C0C0C0" stroke="none" x="240.119384765625" y="41" width="69.6962890625" height="26" opacity="0.2"/></g><g transform="translate(-10,-10) scale(1,1)"><rect fill="#ffffff" stroke="none" x="233.119384765625" y="35" width="69.6962890625" height="25"/></g><g transform="translate(-10,-10) scale(1,1)"><path fill="none" stroke="#000000" d="M 233.119384765625 35 L 302.815673828125 35 L 302.815673828125 60 L 233.119384765625 60 L 233.119384765625 35 Z Z" stroke-miterlimit="10"/></g><g transform="translate(-10,-10) scale(1,1)"><rect fill="#ffffff" stroke="none" x="233.119384765625" y="20" width="27.878515624999977" height="15"/></g><g transform="translate(-10,-10) scale(1,1)"><path fill="none" stroke="#000000" d="M 233.119384765625 20 L 260.997900390625 20 L 260.997900390625 35 L 233.119384765625 35 L 233.119384765625 20 Z Z" stroke-miterlimit="10"/></g><g transform="translate(-10,-10) scale(1,1)"><rect fill="#ffffff" stroke="none" x="233.119384765625" y="34" width="69.6962890625" height="26"/></g><g transform="translate(-10,-10) scale(1,1)"><path fill="none" stroke="#000000" d="M 233.119384765625 34 L 302.815673828125 34 L 302.815673828125 60 L 233.119384765625 60 L 233.119384765625 34 Z Z" stroke-miterlimit="10"/></g><g transform="translate(-10,-10) scale(1,1)"><g><path fill="none" stroke="none"/><text fill="#000000" stroke="none" font-family="Arial" font-size="14px" font-style="normal" font-weight="bold" text-decoration="none" x="239.164306640625" y="55.5">database</text></g></g><g transform="translate(-10,-10) scale(1,1)"><rect fill="#C0C0C0" stroke="none" x="27" y="98" width="27.575000000000003" height="15" opacity="0.2"/></g><g transform="translate(-10,-10) scale(1,1)"><rect fill="#C0C0C0" stroke="none" x="27" y="112" width="68.9375" height="26" opacity="0.2"/></g><g transform="translate(-10,-10) scale(1,1)"><rect fill="#ffffff" stroke="none" x="20" y="106" width="68.9375" height="25"/></g><g transform="translate(-10,-10) scale(1,1)"><path fill="none" stroke="#000000" d="M 20 106 L 88.9375 106 L 88.9375 131 L 20 131 L 20 106 Z Z" stroke-miterlimit="10"/></g><g transform="translate(-10,-10) scale(1,1)"><rect fill="#ffffff" stroke="none" x="20" y="91" width="27.575000000000003" height="15"/></g><g transform="translate(-10,-10) scale(1,1)"><path fill="none" stroke="#000000" d="M 20 91 L 47.575 91 L 47.575 106 L 20 106 L 20 91 Z Z" stroke-miterlimit="10"/></g><g transform="translate(-10,-10) scale(1,1)"><rect fill="#ffffff" stroke="none" x="20" y="105" width="68.9375" height="26"/></g><g transform="translate(-10,-10) scale(1,1)"><path fill="none" stroke="#000000" d="M 20 105 L 88.9375 105 L 88.9375 131 L 20 131 L 20 105 Z Z" stroke-miterlimit="10"/></g><g transform="translate(-10,-10) scale(1,1)"><g><path fill="none" stroke="none"/><text fill="#000000" stroke="none" font-family="Arial" font-size="14px" font-style="normal" font-weight="bold" text-decoration="none" x="26.19189453125" y="126.5">keyValue</text></g></g><g transform="translate(-10,-10) scale(1,1)"><rect fill="#C0C0C0" stroke="none" x="121.71484375" y="98" width="19.599999999999994" height="15" opacity="0.2"/></g><g transform="translate(-10,-10) scale(1,1)"><rect fill="#C0C0C0" stroke="none" x="121.71484375" y="112" width="49" height="26" opacity="0.2"/></g><g transform="translate(-10,-10) scale(1,1)"><rect fill="#ffffff" stroke="none" x="114.71484375" y="106" width="49" height="25"/></g><g transform="translate(-10,-10) scale(1,1)"><path fill="none" stroke="#000000" d="M 114.71484375 106 L 163.71484375 106 L 163.71484375 131 L 114.71484375 131 L 114.71484375 106 Z Z" stroke-miterlimit="10"/></g><g transform="translate(-10,-10) scale(1,1)"><rect fill="#ffffff" stroke="none" x="114.71484375" y="91" width="19.599999999999994" height="15"/></g><g transform="translate(-10,-10) scale(1,1)"><path fill="none" stroke="#000000" d="M 114.71484375 91 L 134.31484375 91 L 134.31484375 106 L 114.71484375 106 L 114.71484375 91 Z Z" stroke-miterlimit="10"/></g><g transform="translate(-10,-10) scale(1,1)"><rect fill="#ffffff" stroke="none" x="114.71484375" y="105" width="49" height="26"/></g><g transform="translate(-10,-10) scale(1,1)"><path fill="none" stroke="#000000" d="M 114.71484375 105 L 163.71484375 105 L 163.71484375 131 L 114.71484375 131 L 114.71484375 105 Z Z" stroke-miterlimit="10"/></g><g transform="translate(-10,-10) scale(1,1)"><g><path fill="none" stroke="none"/><text fill="#000000" stroke="none" font-family="Arial" font-size="14px" font-style="normal" font-weight="bold" text-decoration="none" x="122.09765625" y="126.5">procs</text></g></g><g transform="translate(-10,-10) scale(1,1)"><rect fill="#C0C0C0" stroke="none" x="201.71484375" y="98" width="21.028906250000006" height="15" opacity="0.2"/></g><g transform="translate(-10,-10) scale(1,1)"><rect fill="#C0C0C0" stroke="none" x="201.71484375" y="112" width="52.572265625" height="26" opacity="0.2"/></g><g transform="translate(-10,-10) scale(1,1)"><rect fill="#ffffff" stroke="none" x="194.71484375" y="106" width="52.572265625" height="25"/></g><g transform="translate(-10,-10) scale(1,1)"><path fill="none" stroke="#000000" d="M 194.71484375 106 L 247.287109375 106 L 247.287109375 131 L 194.71484375 131 L 194.71484375 106 Z Z" stroke-miterlimit="10"/></g><g transform="translate(-10,-10) scale(1,1)"><rect fill="#ffffff" stroke="none" x="194.71484375" y="91" width="21.028906250000006" height="15"/></g><g transform="translate(-10,-10) scale(1,1)"><path fill="none" stroke="#000000" d="M 194.71484375 91 L 215.74375 91 L 215.74375 106 L 194.71484375 106 L 194.71484375 91 Z Z" stroke-miterlimit="10"/></g><g transform="translate(-10,-10) scale(1,1)"><rect fill="#ffffff" stroke="none" x="194.71484375" y="105" width="52.572265625" height="26"/></g><g transform="translate(-10,-10) scale(1,1)"><path fill="none" stroke="#000000" d="M 194.71484375 105 L 247.287109375 105 L 247.287109375 131 L 194.71484375 131 L 194.71484375 105 Z Z" stroke-miterlimit="10"/></g><g transform="translate(-10,-10) scale(1,1)"><g><path fill="none" stroke="none"/><text fill="#000000" stroke="none" font-family="Arial" font-size="14px" font-style="normal" font-weight="bold" text-decoration="none" x="201.15966796875" y="126.5">record</text></g></g><g transform="translate(-10,-10) scale(1,1)"><rect fill="#C0C0C0" stroke="none" x="142.538818359375" y="169" width="34.714453125000006" height="15" opacity="0.2"/></g><g transform="translate(-10,-10) scale(1,1)"><rect fill="#C0C0C0" stroke="none" x="142.538818359375" y="183" width="86.7861328125" height="26" opacity="0.2"/></g><g transform="translate(-10,-10) scale(1,1)"><rect fill="#ffffff" stroke="none" x="135.538818359375" y="177" width="86.7861328125" height="25"/></g><g transform="translate(-10,-10) scale(1,1)"><path fill="none" stroke="#000000" d="M 135.538818359375 177 L 222.324951171875 177 L 222.324951171875 202 L 135.538818359375 202 L 135.538818359375 177 Z Z" stroke-miterlimit="10"/></g><g transform="translate(-10,-10) scale(1,1)"><rect fill="#ffffff" stroke="none" x="135.538818359375" y="162" width="34.714453125000006" height="15"/></g><g transform="translate(-10,-10) scale(1,1)"><path fill="none" stroke="#000000" d="M 135.538818359375 162 L 170.253271484375 162 L 170.253271484375 177 L 135.538818359375 177 L 135.538818359375 162 Z Z" stroke-miterlimit="10"/></g><g transform="translate(-10,-10) scale(1,1)"><rect fill="#ffffff" stroke="none" x="135.538818359375" y="176" width="86.7861328125" height="26"/></g><g transform="translate(-10,-10) scale(1,1)"><path fill="none" stroke="#000000" d="M 135.538818359375 176 L 222.324951171875 176 L 222.324951171875 202 L 135.538818359375 202 L 135.538818359375 176 Z Z" stroke-miterlimit="10"/></g><g transform="translate(-10,-10) scale(1,1)"><g><path fill="none" stroke="none"/><text fill="#000000" stroke="none" font-family="Arial" font-size="14px" font-style="normal" font-weight="bold" text-decoration="none" x="144.307861328125" y="197.5">constructor</text></g></g><g transform="translate(-10,-10) scale(1,1)"><rect fill="#C0C0C0" stroke="none" x="30.4501953125" y="240" width="61.158593749999994" height="15" opacity="0.2"/></g><g transform="translate(-10,-10) scale(1,1)"><rect fill="#C0C0C0" stroke="none" x="30.4501953125" y="254" width="152.896484375" height="26" opacity="0.2"/></g><g transform="translate(-10,-10) scale(1,1)"><rect fill="#ffffff" stroke="none" x="23.4501953125" y="248" width="152.896484375" height="25"/></g><g transform="translate(-10,-10) scale(1,1)"><path fill="none" stroke="#000000" d="M 23.4501953125 248 L 176.3466796875 248 L 176.3466796875 273 L 23.4501953125 273 L 23.4501953125 248 Z Z" stroke-miterlimit="10"/></g><g transform="translate(-10,-10) scale(1,1)"><rect fill="#ffffff" stroke="none" x="23.4501953125" y="233" width="61.158593749999994" height="15"/></g><g transform="translate(-10,-10) scale(1,1)"><path fill="none" stroke="#000000" d="M 23.4501953125 233 L 84.6087890625 233 L 84.6087890625 248 L 23.4501953125 248 L 23.4501953125 233 Z Z" stroke-miterlimit="10"/></g><g transform="translate(-10,-10) scale(1,1)"><rect fill="#ffffff" stroke="none" x="23.4501953125" y="247" width="152.896484375" height="26"/></g><g transform="translate(-10,-10) scale(1,1)"><path fill="none" stroke="#000000" d="M 23.4501953125 247 L 176.3466796875 247 L 176.3466796875 273 L 23.4501953125 273 L 23.4501953125 247 Z Z" stroke-miterlimit="10"/></g><g transform="translate(-10,-10) scale(1,1)"><g><path fill="none" stroke="none"/><text fill="#000000" stroke="none" font-family="Arial" font-size="14px" font-style="normal" font-weight="bold" text-decoration="none" x="34.92626953125" y="268.5">attributesConstructor</text></g></g><g transform="translate(-10,-10) scale(1,1)"><rect fill="#C0C0C0" stroke="none" x="201.87109375" y="240" width="53.07304687499999" height="15" opacity="0.2"/></g><g transform="translate(-10,-10) scale(1,1)"><rect fill="#C0C0C0" stroke="none" x="201.87109375" y="254" width="132.6826171875" height="26" opacity="0.2"/></g><g transform="translate(-10,-10) scale(1,1)"><rect fill="#ffffff" stroke="none" x="194.87109375" y="248" width="132.6826171875" height="25"/></g><g transform="translate(-10,-10) scale(1,1)"><path fill="none" stroke="#000000" d="M 194.87109375 248 L 327.5537109375 248 L 327.5537109375 273 L 194.87109375 273 L 194.87109375 248 Z Z" stroke-miterlimit="10"/></g><g transform="translate(-10,-10) scale(1,1)"><rect fill="#ffffff" stroke="none" x="194.87109375" y="233" width="53.07304687499999" height="15"/></g><g transform="translate(-10,-10) scale(1,1)"><path fill="none" stroke="#000000" d="M 194.87109375 233 L 247.944140625 233 L 247.944140625 248 L 194.87109375 248 L 194.87109375 233 Z Z" stroke-miterlimit="10"/></g><g transform="translate(-10,-10) scale(1,1)"><rect fill="#ffffff" stroke="none" x="194.87109375" y="247" width="132.6826171875" height="26"/></g><g transform="translate(-10,-10) scale(1,1)"><path fill="none" stroke="#000000" d="M 194.87109375 247 L 327.5537109375 247 L 327.5537109375 273 L 194.87109375 273 L 194.87109375 247 Z Z" stroke-miterlimit="10"/></g><g transform="translate(-10,-10) scale(1,1)"><g><path fill="none" stroke="none"/><text fill="#000000" stroke="none" font-family="Arial" font-size="14px" font-style="normal" font-weight="bold" text-decoration="none" x="205.19189453125" y="268.5">recordConstructor</text></g></g><g transform="translate(-10,-10) scale(1,1)"><rect fill="#C0C0C0" stroke="none" x="251.739013671875" y="169" width="19.600000000000023" height="15" opacity="0.2"/></g><g transform="translate(-10,-10) scale(1,1)"><rect fill="#C0C0C0" stroke="none" x="251.739013671875" y="183" width="49" height="26" opacity="0.2"/></g><g transform="translate(-10,-10) scale(1,1)"><rect fill="#ffffff" stroke="none" x="244.739013671875" y="177" width="49" height="25"/></g><g transform="translate(-10,-10) scale(1,1)"><path fill="none" stroke="#000000" d="M 244.739013671875 177 L 293.739013671875 177 L 293.739013671875 202 L 244.739013671875 202 L 244.739013671875 177 Z Z" stroke-miterlimit="10"/></g><g transform="translate(-10,-10) scale(1,1)"><rect fill="#ffffff" stroke="none" x="244.739013671875" y="162" width="19.600000000000023" height="15"/></g><g transform="translate(-10,-10) scale(1,1)"><path fill="none" stroke="#000000" d="M 244.739013671875 162 L 264.339013671875 162 L 264.339013671875 177 L 244.739013671875 177 L 244.739013671875 162 Z Z" stroke-miterlimit="10"/></g><g transform="translate(-10,-10) scale(1,1)"><rect fill="#ffffff" stroke="none" x="244.739013671875" y="176" width="49" height="26"/></g><g transform="translate(-10,-10) scale(1,1)"><path fill="none" stroke="#000000" d="M 244.739013671875 176 L 293.739013671875 176 L 293.739013671875 202 L 244.739013671875 202 L 244.739013671875 176 Z Z" stroke-miterlimit="10"/></g><g transform="translate(-10,-10) scale(1,1)"><g><path fill="none" stroke="none"/><text fill="#000000" stroke="none" font-family="Arial" font-size="14px" font-style="normal" font-weight="bold" text-decoration="none" x="252.508056640625" y="197.5">types</text></g></g><g transform="translate(-10,-10) scale(1,1)"><rect fill="#C0C0C0" stroke="none" x="292.0576171875" y="98" width="26.20781249999999" height="15" opacity="0.2"/></g><g transform="translate(-10,-10) scale(1,1)"><rect fill="#C0C0C0" stroke="none" x="292.0576171875" y="112" width="65.51953125" height="26" opacity="0.2"/></g><g transform="translate(-10,-10) scale(1,1)"><rect fill="#ffffff" stroke="none" x="285.0576171875" y="106" width="65.51953125" height="25"/></g><g transform="translate(-10,-10) scale(1,1)"><path fill="none" stroke="#000000" d="M 285.0576171875 106 L 350.5771484375 106 L 350.5771484375 131 L 285.0576171875 131 L 285.0576171875 106 Z Z" stroke-miterlimit="10"/></g><g transform="translate(-10,-10) scale(1,1)"><rect fill="#ffffff" stroke="none" x="285.0576171875" y="91" width="26.20781249999999" height="15"/></g><g transform="translate(-10,-10) scale(1,1)"><path fill="none" stroke="#000000" d="M 285.0576171875 91 L 311.2654296875 91 L 311.2654296875 106 L 285.0576171875 106 L 285.0576171875 91 Z Z" stroke-miterlimit="10"/></g><g transform="translate(-10,-10) scale(1,1)"><rect fill="#ffffff" stroke="none" x="285.0576171875" y="105" width="65.51953125" height="26"/></g><g transform="translate(-10,-10) scale(1,1)"><path fill="none" stroke="#000000" d="M 285.0576171875 105 L 350.5771484375 105 L 350.5771484375 131 L 285.0576171875 131 L 285.0576171875 105 Z Z" stroke-miterlimit="10"/></g><g transform="translate(-10,-10) scale(1,1)"><g><path fill="none" stroke="none"/><text fill="#000000" stroke="none" font-family="Arial" font-size="14px" font-style="normal" font-weight="bold" text-decoration="none" x="292.52783203125" y="126.5">sqlTools</text></g></g><g transform="translate(-10,-10) scale(1,1)"><rect fill="#C0C0C0" stroke="none" x="385.466796875" y="98" width="19.600000000000023" height="15" opacity="0.2"/></g><g transform="translate(-10,-10) scale(1,1)"><rect fill="#C0C0C0" stroke="none" x="385.466796875" y="112" width="49" height="26" opacity="0.2"/></g><g transform="translate(-10,-10) scale(1,1)"><rect fill="#ffffff" stroke="none" x="378.466796875" y="106" width="49" height="25"/></g><g transform="translate(-10,-10) scale(1,1)"><path fill="none" stroke="#000000" d="M 378.466796875 106 L 427.466796875 106 L 427.466796875 131 L 378.466796875 131 L 378.466796875 106 Z Z" stroke-miterlimit="10"/></g><g transform="translate(-10,-10) scale(1,1)"><rect fill="#ffffff" stroke="none" x="378.466796875" y="91" width="19.600000000000023" height="15"/></g><g transform="translate(-10,-10) scale(1,1)"><path fill="none" stroke="#000000" d="M 378.466796875 91 L 398.066796875 91 L 398.066796875 106 L 378.466796875 106 L 378.466796875 91 Z Z" stroke-miterlimit="10"/></g><g transform="translate(-10,-10) scale(1,1)"><rect fill="#ffffff" stroke="none" x="378.466796875" y="105" width="49" height="26"/></g><g transform="translate(-10,-10) scale(1,1)"><path fill="none" stroke="#000000" d="M 378.466796875 105 L 427.466796875 105 L 427.466796875 131 L 378.466796875 131 L 378.466796875 105 Z Z" stroke-miterlimit="10"/></g><g transform="translate(-10,-10) scale(1,1)"><g><path fill="none" stroke="none"/><text fill="#000000" stroke="none" font-family="Arial" font-size="14px" font-style="normal" font-weight="bold" text-decoration="none" x="387.78759765625" y="126.5">table</text></g></g><g transform="translate(-10,-10) scale(1,1)"><rect fill="#C0C0C0" stroke="none" x="331.739013671875" y="169" width="29.42890625000001" height="15" opacity="0.2"/></g><g transform="translate(-10,-10) scale(1,1)"><rect fill="#C0C0C0" stroke="none" x="331.739013671875" y="183" width="73.572265625" height="26" opacity="0.2"/></g><g transform="translate(-10,-10) scale(1,1)"><rect fill="#ffffff" stroke="none" x="324.739013671875" y="177" width="73.572265625" height="25"/></g><g transform="translate(-10,-10) scale(1,1)"><path fill="none" stroke="#000000" d="M 324.739013671875 177 L 398.311279296875 177 L 398.311279296875 202 L 324.739013671875 202 L 324.739013671875 177 Z Z" stroke-miterlimit="10"/></g><g transform="translate(-10,-10) scale(1,1)"><rect fill="#ffffff" stroke="none" x="324.739013671875" y="162" width="29.42890625000001" height="15"/></g><g transform="translate(-10,-10) scale(1,1)"><path fill="none" stroke="#000000" d="M 324.739013671875 162 L 354.167919921875 162 L 354.167919921875 177 L 324.739013671875 177 L 324.739013671875 162 Z Z" stroke-miterlimit="10"/></g><g transform="translate(-10,-10) scale(1,1)"><rect fill="#ffffff" stroke="none" x="324.739013671875" y="176" width="73.572265625" height="26"/></g><g transform="translate(-10,-10) scale(1,1)"><path fill="none" stroke="#000000" d="M 324.739013671875 176 L 398.311279296875 176 L 398.311279296875 202 L 324.739013671875 202 L 324.739013671875 176 Z Z" stroke-miterlimit="10"/></g><g transform="translate(-10,-10) scale(1,1)"><g><path fill="none" stroke="none"/><text fill="#000000" stroke="none" font-family="Arial" font-size="14px" font-style="normal" font-weight="bold" text-decoration="none" x="331.559814453125" y="197.5">generator</text></g></g><g transform="translate(-10,-10) scale(1,1)"><rect fill="#C0C0C0" stroke="none" x="437.26806640625" y="169" width="19.600000000000023" height="15" opacity="0.2"/></g><g transform="translate(-10,-10) scale(1,1)"><rect fill="#C0C0C0" stroke="none" x="437.26806640625" y="183" width="49" height="26" opacity="0.2"/></g><g transform="translate(-10,-10) scale(1,1)"><rect fill="#ffffff" stroke="none" x="430.26806640625" y="177" width="49" height="25"/></g><g transform="translate(-10,-10) scale(1,1)"><path fill="none" stroke="#000000" d="M 430.26806640625 177 L 479.26806640625 177 L 479.26806640625 202 L 430.26806640625 202 L 430.26806640625 177 Z Z" stroke-miterlimit="10"/></g><g transform="translate(-10,-10) scale(1,1)"><rect fill="#ffffff" stroke="none" x="430.26806640625" y="162" width="19.600000000000023" height="15"/></g><g transform="translate(-10,-10) scale(1,1)"><path fill="none" stroke="#000000" d="M 430.26806640625 162 L 449.86806640625 162 L 449.86806640625 177 L 430.26806640625 177 L 430.26806640625 162 Z Z" stroke-miterlimit="10"/></g><g transform="translate(-10,-10) scale(1,1)"><rect fill="#ffffff" stroke="none" x="430.26806640625" y="176" width="49" height="26"/></g><g transform="translate(-10,-10) scale(1,1)"><path fill="none" stroke="#000000" d="M 430.26806640625 176 L 479.26806640625 176 L 479.26806640625 202 L 430.26806640625 202 L 430.26806640625 176 Z Z" stroke-miterlimit="10"/></g><g transform="translate(-10,-10) scale(1,1)"><g><path fill="none" stroke="none"/><text fill="#000000" stroke="none" font-family="Arial" font-size="14px" font-style="normal" font-weight="bold" text-decoration="none" x="441.53369140625" y="197.5">pool</text></g></g><g transform="translate(-10,-10) scale(1,1)"><rect fill="#C0C0C0" stroke="none" x="428.1162109375" y="240" width="29.42890625000001" height="15" opacity="0.2"/></g><g transform="translate(-10,-10) scale(1,1)"><rect fill="#C0C0C0" stroke="none" x="428.1162109375" y="254" width="73.572265625" height="26" opacity="0.2"/></g><g transform="translate(-10,-10) scale(1,1)"><rect fill="#ffffff" stroke="none" x="421.1162109375" y="248" width="73.572265625" height="25"/></g><g transform="translate(-10,-10) scale(1,1)"><path fill="none" stroke="#000000" d="M 421.1162109375 248 L 494.6884765625 248 L 494.6884765625 273 L 421.1162109375 273 L 421.1162109375 248 Z Z" stroke-miterlimit="10"/></g><g transform="translate(-10,-10) scale(1,1)"><rect fill="#ffffff" stroke="none" x="421.1162109375" y="233" width="29.42890625000001" height="15"/></g><g transform="translate(-10,-10) scale(1,1)"><path fill="none" stroke="#000000" d="M 421.1162109375 233 L 450.5451171875 233 L 450.5451171875 248 L 421.1162109375 248 L 421.1162109375 233 Z Z" stroke-miterlimit="10"/></g><g transform="translate(-10,-10) scale(1,1)"><rect fill="#ffffff" stroke="none" x="421.1162109375" y="247" width="73.572265625" height="26"/></g><g transform="translate(-10,-10) scale(1,1)"><path fill="none" stroke="#000000" d="M 421.1162109375 247 L 494.6884765625 247 L 494.6884765625 273 L 421.1162109375 273 L 421.1162109375 247 Z Z" stroke-miterlimit="10"/></g><g transform="translate(-10,-10) scale(1,1)"><g><path fill="none" stroke="none"/><text fill="#000000" stroke="none" font-family="Arial" font-size="14px" font-style="normal" font-weight="bold" text-decoration="none" x="427.93701171875" y="268.5">generator</text></g></g><g transform="translate(-10,-10) scale(1,1)"><rect fill="#C0C0C0" stroke="none" x="517.26806640625" y="169" width="19.600000000000023" height="15" opacity="0.2"/></g><g transform="translate(-10,-10) scale(1,1)"><rect fill="#C0C0C0" stroke="none" x="517.26806640625" y="183" width="49" height="26" opacity="0.2"/></g><g transform="translate(-10,-10) scale(1,1)"><rect fill="#ffffff" stroke="none" x="510.26806640625" y="177" width="49" height="25"/></g><g transform="translate(-10,-10) scale(1,1)"><path fill="none" stroke="#000000" d="M 510.26806640625 177 L 559.26806640625 177 L 559.26806640625 202 L 510.26806640625 202 L 510.26806640625 177 Z Z" stroke-miterlimit="10"/></g><g transform="translate(-10,-10) scale(1,1)"><rect fill="#ffffff" stroke="none" x="510.26806640625" y="162" width="19.600000000000023" height="15"/></g><g transform="translate(-10,-10) scale(1,1)"><path fill="none" stroke="#000000" d="M 510.26806640625 162 L 529.86806640625 162 L 529.86806640625 177 L 510.26806640625 177 L 510.26806640625 162 Z Z" stroke-miterlimit="10"/></g><g transform="translate(-10,-10) scale(1,1)"><rect fill="#ffffff" stroke="none" x="510.26806640625" y="176" width="49" height="26"/></g><g transform="translate(-10,-10) scale(1,1)"><path fill="none" stroke="#000000" d="M 510.26806640625 176 L 559.26806640625 176 L 559.26806640625 202 L 510.26806640625 202 L 510.26806640625 176 Z Z" stroke-miterlimit="10"/></g><g transform="translate(-10,-10) scale(1,1)"><g><path fill="none" stroke="none"/><text fill="#000000" stroke="none" font-family="Arial" font-size="14px" font-style="normal" font-weight="bold" text-decoration="none" x="518.037109375" y="197.5">types</text></g></g><g transform="translate(-10,-10) scale(1,1)"><rect fill="#C0C0C0" stroke="none" x="465.466796875" y="98" width="76.41640625000002" height="15" opacity="0.2"/></g><g transform="translate(-10,-10) scale(1,1)"><rect fill="#C0C0C0" stroke="none" x="465.466796875" y="112" width="191.041015625" height="26" opacity="0.2"/></g><g transform="translate(-10,-10) scale(1,1)"><rect fill="#ffffff" stroke="none" x="458.466796875" y="106" width="191.041015625" height="25"/></g><g transform="translate(-10,-10) scale(1,1)"><path fill="none" stroke="#000000" d="M 458.466796875 106 L 649.5078125 106 L 649.5078125 131 L 458.466796875 131 L 458.466796875 106 Z Z" stroke-miterlimit="10"/></g><g transform="translate(-10,-10) scale(1,1)"><rect fill="#ffffff" stroke="none" x="458.466796875" y="91" width="76.41640625000002" height="15"/></g><g transform="translate(-10,-10) scale(1,1)"><path fill="none" stroke="#000000" d="M 458.466796875 91 L 534.883203125 91 L 534.883203125 106 L 458.466796875 106 L 458.466796875 91 Z Z" stroke-miterlimit="10"/></g><g transform="translate(-10,-10) scale(1,1)"><rect fill="#ffffff" stroke="none" x="458.466796875" y="105" width="191.041015625" height="26"/></g><g transform="translate(-10,-10) scale(1,1)"><path fill="none" stroke="#000000" d="M 458.466796875 105 L 649.5078125 105 L 649.5078125 131 L 458.466796875 131 L 458.466796875 105 Z Z" stroke-miterlimit="10"/></g><g transform="translate(-10,-10) scale(1,1)"><g><path fill="none" stroke="none"/><text fill="#000000" stroke="none" font-family="Arial" font-size="14px" font-style="normal" font-weight="bold" text-decoration="none" x="469.1533203125" y="126.5">unifiedDatabaseOperations</text></g></g><g transform="translate(-10,-10) scale(1,1)"><rect fill="#C0C0C0" stroke="none" x="764.59765625" y="27" width="19.600000000000023" height="15" opacity="0.2"/></g><g transform="translate(-10,-10) scale(1,1)"><rect fill="#C0C0C0" stroke="none" x="764.59765625" y="41" width="49" height="26" opacity="0.2"/></g><g transform="translate(-10,-10) scale(1,1)"><rect fill="#ffffff" stroke="none" x="757.59765625" y="35" width="49" height="25"/></g><g transform="translate(-10,-10) scale(1,1)"><path fill="none" stroke="#000000" d="M 757.59765625 35 L 806.59765625 35 L 806.59765625 60 L 757.59765625 60 L 757.59765625 35 Z Z" stroke-miterlimit="10"/></g><g transform="translate(-10,-10) scale(1,1)"><rect fill="#ffffff" stroke="none" x="757.59765625" y="20" width="19.600000000000023" height="15"/></g><g transform="translate(-10,-10) scale(1,1)"><path fill="none" stroke="#000000" d="M 757.59765625 20 L 777.19765625 20 L 777.19765625 35 L 757.59765625 35 L 757.59765625 20 Z Z" stroke-miterlimit="10"/></g><g transform="translate(-10,-10) scale(1,1)"><rect fill="#ffffff" stroke="none" x="757.59765625" y="34" width="49" height="26"/></g><g transform="translate(-10,-10) scale(1,1)"><path fill="none" stroke="#000000" d="M 757.59765625 34 L 806.59765625 34 L 806.59765625 60 L 757.59765625 60 L 757.59765625 34 Z Z" stroke-miterlimit="10"/></g><g transform="translate(-10,-10) scale(1,1)"><g><path fill="none" stroke="none"/><text fill="#000000" stroke="none" font-family="Arial" font-size="14px" font-style="normal" font-weight="bold" text-decoration="none" x="767.3115234375" y="55.5">exec</text></g></g><g transform="translate(-10,-10) scale(1,1)"><rect fill="#C0C0C0" stroke="none" x="668.8251953125" y="98" width="19.600000000000023" height="15" opacity="0.2"/></g><g transform="translate(-10,-10) scale(1,1)"><rect fill="#C0C0C0" stroke="none" x="668.8251953125" y="112" width="49" height="26" opacity="0.2"/></g><g transform="translate(-10,-10) scale(1,1)"><rect fill="#ffffff" stroke="none" x="661.8251953125" y="106" width="49" height="25"/></g><g transform="translate(-10,-10) scale(1,1)"><path fill="none" stroke="#000000" d="M 661.8251953125 106 L 710.8251953125 106 L 710.8251953125 131 L 661.8251953125 131 L 661.8251953125 106 Z Z" stroke-miterlimit="10"/></g><g transform="translate(-10,-10) scale(1,1)"><rect fill="#ffffff" stroke="none" x="661.8251953125" y="91" width="19.600000000000023" height="15"/></g><g transform="translate(-10,-10) scale(1,1)"><path fill="none" stroke="#000000" d="M 661.8251953125 91 L 681.4251953125 91 L 681.4251953125 106 L 661.8251953125 106 L 661.8251953125 91 Z Z" stroke-miterlimit="10"/></g><g transform="translate(-10,-10) scale(1,1)"><rect fill="#ffffff" stroke="none" x="661.8251953125" y="105" width="49" height="26"/></g><g transform="translate(-10,-10) scale(1,1)"><path fill="none" stroke="#000000" d="M 661.8251953125 105 L 710.8251953125 105 L 710.8251953125 131 L 661.8251953125 131 L 661.8251953125 105 Z Z" stroke-miterlimit="10"/></g><g transform="translate(-10,-10) scale(1,1)"><g><path fill="none" stroke="none"/><text fill="#000000" stroke="none" font-family="Arial" font-size="14px" font-style="normal" font-weight="bold" text-decoration="none" x="669.59765625" y="126.5">recall</text></g></g><g transform="translate(-10,-10) scale(1,1)"><rect fill="#C0C0C0" stroke="none" x="748.8251953125" y="98" width="35.66054687500002" height="15" opacity="0.2"/></g><g transform="translate(-10,-10) scale(1,1)"><rect fill="#C0C0C0" stroke="none" x="748.8251953125" y="112" width="89.1513671875" height="26" opacity="0.2"/></g><g transform="translate(-10,-10) scale(1,1)"><rect fill="#ffffff" stroke="none" x="741.8251953125" y="106" width="89.1513671875" height="25"/></g><g transform="translate(-10,-10) scale(1,1)"><path fill="none" stroke="#000000" d="M 741.8251953125 106 L 830.9765625 106 L 830.9765625 131 L 741.8251953125 131 L 741.8251953125 106 Z Z" stroke-miterlimit="10"/></g><g transform="translate(-10,-10) scale(1,1)"><rect fill="#ffffff" stroke="none" x="741.8251953125" y="91" width="35.66054687500002" height="15"/></g><g transform="translate(-10,-10) scale(1,1)"><path fill="none" stroke="#000000" d="M 741.8251953125 91 L 777.4857421875 91 L 777.4857421875 106 L 741.8251953125 106 L 741.8251953125 91 Z Z" stroke-miterlimit="10"/></g><g transform="translate(-10,-10) scale(1,1)"><rect fill="#ffffff" stroke="none" x="741.8251953125" y="105" width="89.1513671875" height="26"/></g><g transform="translate(-10,-10) scale(1,1)"><path fill="none" stroke="#000000" d="M 741.8251953125 105 L 830.9765625 105 L 830.9765625 131 L 741.8251953125 131 L 741.8251953125 105 Z Z" stroke-miterlimit="10"/></g><g transform="translate(-10,-10) scale(1,1)"><g><path fill="none" stroke="none"/><text fill="#000000" stroke="none" font-family="Arial" font-size="14px" font-style="normal" font-weight="bold" text-decoration="none" x="749.052734375" y="126.5">tasksCenter</text></g></g><g transform="translate(-10,-10) scale(1,1)"><rect fill="#C0C0C0" stroke="none" x="1266.36669921875" y="27" width="25.07851562499991" height="15" opacity="0.2"/></g><g transform="translate(-10,-10) scale(1,1)"><rect fill="#C0C0C0" stroke="none" x="1266.36669921875" y="41" width="62.6962890625" height="26" opacity="0.2"/></g><g transform="translate(-10,-10) scale(1,1)"><rect fill="#ffffff" stroke="none" x="1259.36669921875" y="35" width="62.6962890625" height="25"/></g><g transform="translate(-10,-10) scale(1,1)"><path fill="none" stroke="#000000" d="M 1259.36669921875 35 L 1322.06298828125 35 L 1322.06298828125 60 L 1259.36669921875 60 L 1259.36669921875 35 Z Z" stroke-miterlimit="10"/></g><g transform="translate(-10,-10) scale(1,1)"><rect fill="#ffffff" stroke="none" x="1259.36669921875" y="20" width="25.07851562499991" height="15"/></g><g transform="translate(-10,-10) scale(1,1)"><path fill="none" stroke="#000000" d="M 1259.36669921875 20 L 1284.44521484375 20 L 1284.44521484375 35 L 1259.36669921875 35 L 1259.36669921875 20 Z Z" stroke-miterlimit="10"/></g><g transform="translate(-10,-10) scale(1,1)"><rect fill="#ffffff" stroke="none" x="1259.36669921875" y="34" width="62.6962890625" height="26"/></g><g transform="translate(-10,-10) scale(1,1)"><path fill="none" stroke="#000000" d="M 1259.36669921875 34 L 1322.06298828125 34 L 1322.06298828125 60 L 1259.36669921875 60 L 1259.36669921875 34 Z Z" stroke-miterlimit="10"/></g><g transform="translate(-10,-10) scale(1,1)"><g><path fill="none" stroke="none"/><text fill="#000000" stroke="none" font-family="Arial" font-size="14px" font-style="normal" font-weight="bold" text-decoration="none" x="1266.20458984375" y="55.5">process</text></g></g><g transform="translate(-10,-10) scale(1,1)"><rect fill="#C0C0C0" stroke="none" x="860.3701171875" y="98" width="20.091015624999955" height="15" opacity="0.2"/></g><g transform="translate(-10,-10) scale(1,1)"><rect fill="#C0C0C0" stroke="none" x="860.3701171875" y="112" width="50.2275390625" height="26" opacity="0.2"/></g><g transform="translate(-10,-10) scale(1,1)"><rect fill="#ffffff" stroke="none" x="853.3701171875" y="106" width="50.2275390625" height="25"/></g><g transform="translate(-10,-10) scale(1,1)"><path fill="none" stroke="#000000" d="M 853.3701171875 106 L 903.59765625 106 L 903.59765625 131 L 853.3701171875 131 L 853.3701171875 106 Z Z" stroke-miterlimit="10"/></g><g transform="translate(-10,-10) scale(1,1)"><rect fill="#ffffff" stroke="none" x="853.3701171875" y="91" width="20.091015624999955" height="15"/></g><g transform="translate(-10,-10) scale(1,1)"><path fill="none" stroke="#000000" d="M 853.3701171875 91 L 873.4611328125 91 L 873.4611328125 106 L 853.3701171875 106 L 853.3701171875 91 Z Z" stroke-miterlimit="10"/></g><g transform="translate(-10,-10) scale(1,1)"><rect fill="#ffffff" stroke="none" x="853.3701171875" y="105" width="50.2275390625" height="26"/></g><g transform="translate(-10,-10) scale(1,1)"><path fill="none" stroke="#000000" d="M 853.3701171875 105 L 903.59765625 105 L 903.59765625 131 L 853.3701171875 131 L 853.3701171875 105 Z Z" stroke-miterlimit="10"/></g><g transform="translate(-10,-10) scale(1,1)"><g><path fill="none" stroke="none"/><text fill="#000000" stroke="none" font-family="Arial" font-size="14px" font-style="normal" font-weight="bold" text-decoration="none" x="859.41845703125" y="126.5">admin</text></g></g><g transform="translate(-10,-10) scale(1,1)"><rect fill="#C0C0C0" stroke="none" x="940.3701171875" y="98" width="37.197265625" height="15" opacity="0.2"/></g><g transform="translate(-10,-10) scale(1,1)"><rect fill="#C0C0C0" stroke="none" x="940.3701171875" y="112" width="92.9931640625" height="26" opacity="0.2"/></g><g transform="translate(-10,-10) scale(1,1)"><rect fill="#ffffff" stroke="none" x="933.3701171875" y="106" width="92.9931640625" height="25"/></g><g transform="translate(-10,-10) scale(1,1)"><path fill="none" stroke="#000000" d="M 933.3701171875 106 L 1026.36328125 106 L 1026.36328125 131 L 933.3701171875 131 L 933.3701171875 106 Z Z" stroke-miterlimit="10"/></g><g transform="translate(-10,-10) scale(1,1)"><rect fill="#ffffff" stroke="none" x="933.3701171875" y="91" width="37.197265625" height="15"/></g><g transform="translate(-10,-10) scale(1,1)"><path fill="none" stroke="#000000" d="M 933.3701171875 91 L 970.5673828125 91 L 970.5673828125 106 L 933.3701171875 106 L 933.3701171875 91 Z Z" stroke-miterlimit="10"/></g><g transform="translate(-10,-10) scale(1,1)"><rect fill="#ffffff" stroke="none" x="933.3701171875" y="105" width="92.9931640625" height="26"/></g><g transform="translate(-10,-10) scale(1,1)"><path fill="none" stroke="#000000" d="M 933.3701171875 105 L 1026.36328125 105 L 1026.36328125 131 L 933.3701171875 131 L 933.3701171875 105 Z Z" stroke-miterlimit="10"/></g><g transform="translate(-10,-10) scale(1,1)"><g><path fill="none" stroke="none"/><text fill="#000000" stroke="none" font-family="Arial" font-size="14px" font-style="normal" font-weight="bold" text-decoration="none" x="941.33935546875" y="126.5">appointment</text></g></g><g transform="translate(-10,-10) scale(1,1)"><rect fill="#C0C0C0" stroke="none" x="1056.6044921875" y="98" width="19.59999999999991" height="15" opacity="0.2"/></g><g transform="translate(-10,-10) scale(1,1)"><rect fill="#C0C0C0" stroke="none" x="1056.6044921875" y="112" width="49" height="26" opacity="0.2"/></g><g transform="translate(-10,-10) scale(1,1)"><rect fill="#ffffff" stroke="none" x="1049.6044921875" y="106" width="49" height="25"/></g><g transform="translate(-10,-10) scale(1,1)"><path fill="none" stroke="#000000" d="M 1049.6044921875 106 L 1098.6044921875 106 L 1098.6044921875 131 L 1049.6044921875 131 L 1049.6044921875 106 Z Z" stroke-miterlimit="10"/></g><g transform="translate(-10,-10) scale(1,1)"><rect fill="#ffffff" stroke="none" x="1049.6044921875" y="91" width="19.59999999999991" height="15"/></g><g transform="translate(-10,-10) scale(1,1)"><path fill="none" stroke="#000000" d="M 1049.6044921875 91 L 1069.2044921875 91 L 1069.2044921875 106 L 1049.6044921875 106 L 1049.6044921875 91 Z Z" stroke-miterlimit="10"/></g><g transform="translate(-10,-10) scale(1,1)"><rect fill="#ffffff" stroke="none" x="1049.6044921875" y="105" width="49" height="26"/></g><g transform="translate(-10,-10) scale(1,1)"><path fill="none" stroke="#000000" d="M 1049.6044921875 105 L 1098.6044921875 105 L 1098.6044921875 131 L 1049.6044921875 131 L 1049.6044921875 105 Z Z" stroke-miterlimit="10"/></g><g transform="translate(-10,-10) scale(1,1)"><g><path fill="none" stroke="none"/><text fill="#000000" stroke="none" font-family="Arial" font-size="14px" font-style="normal" font-weight="bold" text-decoration="none" x="1059.31494140625" y="126.5">login</text></g></g><g transform="translate(-10,-10) scale(1,1)"><rect fill="#C0C0C0" stroke="none" x="1136.6044921875" y="98" width="19.59999999999991" height="15" opacity="0.2"/></g><g transform="translate(-10,-10) scale(1,1)"><rect fill="#C0C0C0" stroke="none" x="1136.6044921875" y="112" width="49" height="26" opacity="0.2"/></g><g transform="translate(-10,-10) scale(1,1)"><rect fill="#ffffff" stroke="none" x="1129.6044921875" y="106" width="49" height="25"/></g><g transform="translate(-10,-10) scale(1,1)"><path fill="none" stroke="#000000" d="M 1129.6044921875 106 L 1178.6044921875 106 L 1178.6044921875 131 L 1129.6044921875 131 L 1129.6044921875 106 Z Z" stroke-miterlimit="10"/></g><g transform="translate(-10,-10) scale(1,1)"><rect fill="#ffffff" stroke="none" x="1129.6044921875" y="91" width="19.59999999999991" height="15"/></g><g transform="translate(-10,-10) scale(1,1)"><path fill="none" stroke="#000000" d="M 1129.6044921875 91 L 1149.2044921875 91 L 1149.2044921875 106 L 1129.6044921875 106 L 1129.6044921875 91 Z Z" stroke-miterlimit="10"/></g><g transform="translate(-10,-10) scale(1,1)"><rect fill="#ffffff" stroke="none" x="1129.6044921875" y="105" width="49" height="26"/></g><g transform="translate(-10,-10) scale(1,1)"><path fill="none" stroke="#000000" d="M 1129.6044921875 105 L 1178.6044921875 105 L 1178.6044921875 131 L 1129.6044921875 131 L 1129.6044921875 105 Z Z" stroke-miterlimit="10"/></g><g transform="translate(-10,-10) scale(1,1)"><g><path fill="none" stroke="none"/><text fill="#000000" stroke="none" font-family="Arial" font-size="14px" font-style="normal" font-weight="bold" text-decoration="none" x="1136.59423828125" y="126.5">menu</text></g></g><g transform="translate(-10,-10) scale(1,1)"><rect fill="#C0C0C0" stroke="none" x="1216.6044921875" y="98" width="19.59999999999991" height="15" opacity="0.2"/></g><g transform="translate(-10,-10) scale(1,1)"><rect fill="#C0C0C0" stroke="none" x="1216.6044921875" y="112" width="49" height="26" opacity="0.2"/></g><g transform="translate(-10,-10) scale(1,1)"><rect fill="#ffffff" stroke="none" x="1209.6044921875" y="106" width="49" height="25"/></g><g transform="translate(-10,-10) scale(1,1)"><path fill="none" stroke="#000000" d="M 1209.6044921875 106 L 1258.6044921875 106 L 1258.6044921875 131 L 1209.6044921875 131 L 1209.6044921875 106 Z Z" stroke-miterlimit="10"/></g><g transform="translate(-10,-10) scale(1,1)"><rect fill="#ffffff" stroke="none" x="1209.6044921875" y="91" width="19.59999999999991" height="15"/></g><g transform="translate(-10,-10) scale(1,1)"><path fill="none" stroke="#000000" d="M 1209.6044921875 91 L 1229.2044921875 91 L 1229.2044921875 106 L 1209.6044921875 106 L 1209.6044921875 91 Z Z" stroke-miterlimit="10"/></g><g transform="translate(-10,-10) scale(1,1)"><rect fill="#ffffff" stroke="none" x="1209.6044921875" y="105" width="49" height="26"/></g><g transform="translate(-10,-10) scale(1,1)"><path fill="none" stroke="#000000" d="M 1209.6044921875 105 L 1258.6044921875 105 L 1258.6044921875 131 L 1209.6044921875 131 L 1209.6044921875 105 Z Z" stroke-miterlimit="10"/></g><g transform="translate(-10,-10) scale(1,1)"><g><path fill="none" stroke="none"/><text fill="#000000" stroke="none" font-family="Arial" font-size="14px" font-style="normal" font-weight="bold" text-decoration="none" x="1217.76318359375" y="126.5">order</text></g></g><g transform="translate(-10,-10) scale(1,1)"><rect fill="#C0C0C0" stroke="none" x="1296.6044921875" y="98" width="26.62890625" height="15" opacity="0.2"/></g><g transform="translate(-10,-10) scale(1,1)"><rect fill="#C0C0C0" stroke="none" x="1296.6044921875" y="112" width="66.572265625" height="26" opacity="0.2"/></g><g transform="translate(-10,-10) scale(1,1)"><rect fill="#ffffff" stroke="none" x="1289.6044921875" y="106" width="66.572265625" height="25"/></g><g transform="translate(-10,-10) scale(1,1)"><path fill="none" stroke="#000000" d="M 1289.6044921875 106 L 1356.1767578125 106 L 1356.1767578125 131 L 1289.6044921875 131 L 1289.6044921875 106 Z Z" stroke-miterlimit="10"/></g><g transform="translate(-10,-10) scale(1,1)"><rect fill="#ffffff" stroke="none" x="1289.6044921875" y="91" width="26.62890625" height="15"/></g><g transform="translate(-10,-10) scale(1,1)"><path fill="none" stroke="#000000" d="M 1289.6044921875 91 L 1316.2333984375 91 L 1316.2333984375 106 L 1289.6044921875 106 L 1289.6044921875 91 Z Z" stroke-miterlimit="10"/></g><g transform="translate(-10,-10) scale(1,1)"><rect fill="#ffffff" stroke="none" x="1289.6044921875" y="105" width="66.572265625" height="26"/></g><g transform="translate(-10,-10) scale(1,1)"><path fill="none" stroke="#000000" d="M 1289.6044921875 105 L 1356.1767578125 105 L 1356.1767578125 131 L 1289.6044921875 131 L 1289.6044921875 105 Z Z" stroke-miterlimit="10"/></g><g transform="translate(-10,-10) scale(1,1)"><g><path fill="none" stroke="none"/><text fill="#000000" stroke="none" font-family="Arial" font-size="14px" font-style="normal" font-weight="bold" text-decoration="none" x="1296.04248046875" y="126.5">payment</text></g></g><g transform="translate(-10,-10) scale(1,1)"><rect fill="#C0C0C0" stroke="none" x="1388.71484375" y="98" width="19.59999999999991" height="15" opacity="0.2"/></g><g transform="translate(-10,-10) scale(1,1)"><rect fill="#C0C0C0" stroke="none" x="1388.71484375" y="112" width="49" height="26" opacity="0.2"/></g><g transform="translate(-10,-10) scale(1,1)"><rect fill="#ffffff" stroke="none" x="1381.71484375" y="106" width="49" height="25"/></g><g transform="translate(-10,-10) scale(1,1)"><path fill="none" stroke="#000000" d="M 1381.71484375 106 L 1430.71484375 106 L 1430.71484375 131 L 1381.71484375 131 L 1381.71484375 106 Z Z" stroke-miterlimit="10"/></g><g transform="translate(-10,-10) scale(1,1)"><rect fill="#ffffff" stroke="none" x="1381.71484375" y="91" width="19.59999999999991" height="15"/></g><g transform="translate(-10,-10) scale(1,1)"><path fill="none" stroke="#000000" d="M 1381.71484375 91 L 1401.31484375 91 L 1401.31484375 106 L 1381.71484375 106 L 1381.71484375 91 Z Z" stroke-miterlimit="10"/></g><g transform="translate(-10,-10) scale(1,1)"><rect fill="#ffffff" stroke="none" x="1381.71484375" y="105" width="49" height="26"/></g><g transform="translate(-10,-10) scale(1,1)"><path fill="none" stroke="#000000" d="M 1381.71484375 105 L 1430.71484375 105 L 1430.71484375 131 L 1381.71484375 131 L 1381.71484375 105 Z Z" stroke-miterlimit="10"/></g><g transform="translate(-10,-10) scale(1,1)"><g><path fill="none" stroke="none"/><text fill="#000000" stroke="none" font-family="Arial" font-size="14px" font-style="normal" font-weight="bold" text-decoration="none" x="1391.03564453125" y="126.5">table</text></g></g><g transform="translate(-10,-10) scale(1,1)"><rect fill="#C0C0C0" stroke="none" x="1468.71484375" y="98" width="22.88828125000009" height="15" opacity="0.2"/></g><g transform="translate(-10,-10) scale(1,1)"><rect fill="#C0C0C0" stroke="none" x="1468.71484375" y="112" width="57.220703125" height="26" opacity="0.2"/></g><g transform="translate(-10,-10) scale(1,1)"><rect fill="#ffffff" stroke="none" x="1461.71484375" y="106" width="57.220703125" height="25"/></g><g transform="translate(-10,-10) scale(1,1)"><path fill="none" stroke="#000000" d="M 1461.71484375 106 L 1518.935546875 106 L 1518.935546875 131 L 1461.71484375 131 L 1461.71484375 106 Z Z" stroke-miterlimit="10"/></g><g transform="translate(-10,-10) scale(1,1)"><rect fill="#ffffff" stroke="none" x="1461.71484375" y="91" width="22.88828125000009" height="15"/></g><g transform="translate(-10,-10) scale(1,1)"><path fill="none" stroke="#000000" d="M 1461.71484375 91 L 1484.603125 91 L 1484.603125 106 L 1461.71484375 106 L 1461.71484375 91 Z Z" stroke-miterlimit="10"/></g><g transform="translate(-10,-10) scale(1,1)"><rect fill="#ffffff" stroke="none" x="1461.71484375" y="105" width="57.220703125" height="26"/></g><g transform="translate(-10,-10) scale(1,1)"><path fill="none" stroke="#000000" d="M 1461.71484375 105 L 1518.935546875 105 L 1518.935546875 131 L 1461.71484375 131 L 1461.71484375 105 Z Z" stroke-miterlimit="10"/></g><g transform="translate(-10,-10) scale(1,1)"><g><path fill="none" stroke="none"/><text fill="#000000" stroke="none" font-family="Arial" font-size="14px" font-style="normal" font-weight="bold" text-decoration="none" x="1468.53564453125" y="126.5">waiting</text></g></g><g transform="translate(-10,-10) scale(1,1)"><rect fill="#C0C0C0" stroke="none" x="1553.052734375" y="98" width="27.255078124999955" height="15" opacity="0.2"/></g><g transform="translate(-10,-10) scale(1,1)"><rect fill="#C0C0C0" stroke="none" x="1553.052734375" y="112" width="68.1376953125" height="26" opacity="0.2"/></g><g transform="translate(-10,-10) scale(1,1)"><rect fill="#ffffff" stroke="none" x="1546.052734375" y="106" width="68.1376953125" height="25"/></g><g transform="translate(-10,-10) scale(1,1)"><path fill="none" stroke="#000000" d="M 1546.052734375 106 L 1614.1904296875 106 L 1614.1904296875 131 L 1546.052734375 131 L 1546.052734375 106 Z Z" stroke-miterlimit="10"/></g><g transform="translate(-10,-10) scale(1,1)"><rect fill="#ffffff" stroke="none" x="1546.052734375" y="91" width="27.255078124999955" height="15"/></g><g transform="translate(-10,-10) scale(1,1)"><path fill="none" stroke="#000000" d="M 1546.052734375 91 L 1573.3078125 91 L 1573.3078125 106 L 1546.052734375 106 L 1546.052734375 91 Z Z" stroke-miterlimit="10"/></g><g transform="translate(-10,-10) scale(1,1)"><rect fill="#ffffff" stroke="none" x="1546.052734375" y="105" width="68.1376953125" height="26"/></g><g transform="translate(-10,-10) scale(1,1)"><path fill="none" stroke="#000000" d="M 1546.052734375 105 L 1614.1904296875 105 L 1614.1904296875 131 L 1546.052734375 131 L 1546.052734375 105 Z Z" stroke-miterlimit="10"/></g><g transform="translate(-10,-10) scale(1,1)"><g><path fill="none" stroke="none"/><text fill="#000000" stroke="none" font-family="Arial" font-size="14px" font-style="normal" font-weight="bold" text-decoration="none" x="1552.5009765625" y="126.5">welcome</text></g></g><g transform="translate(-10,-10) scale(1,1)"><rect fill="#C0C0C0" stroke="none" x="1831.657958984375" y="27" width="19.59999999999991" height="15" opacity="0.2"/></g><g transform="translate(-10,-10) scale(1,1)"><rect fill="#C0C0C0" stroke="none" x="1831.657958984375" y="41" width="49" height="26" opacity="0.2"/></g><g transform="translate(-10,-10) scale(1,1)"><rect fill="#ffffff" stroke="none" x="1824.657958984375" y="35" width="49" height="25"/></g><g transform="translate(-10,-10) scale(1,1)"><path fill="none" stroke="#000000" d="M 1824.657958984375 35 L 1873.657958984375 35 L 1873.657958984375 60 L 1824.657958984375 60 L 1824.657958984375 35 Z Z" stroke-miterlimit="10"/></g><g transform="translate(-10,-10) scale(1,1)"><rect fill="#ffffff" stroke="none" x="1824.657958984375" y="20" width="19.59999999999991" height="15"/></g><g transform="translate(-10,-10) scale(1,1)"><path fill="none" stroke="#000000" d="M 1824.657958984375 20 L 1844.257958984375 20 L 1844.257958984375 35 L 1824.657958984375 35 L 1824.657958984375 20 Z Z" stroke-miterlimit="10"/></g><g transform="translate(-10,-10) scale(1,1)"><rect fill="#ffffff" stroke="none" x="1824.657958984375" y="34" width="49" height="26"/></g><g transform="translate(-10,-10) scale(1,1)"><path fill="none" stroke="#000000" d="M 1824.657958984375 34 L 1873.657958984375 34 L 1873.657958984375 60 L 1824.657958984375 60 L 1824.657958984375 34 Z Z" stroke-miterlimit="10"/></g><g transform="translate(-10,-10) scale(1,1)"><g><path fill="none" stroke="none"/><text fill="#000000" stroke="none" font-family="Arial" font-size="14px" font-style="normal" font-weight="bold" text-decoration="none" x="1843.709716796875" y="55.5">ui</text></g></g><g transform="translate(-10,-10) scale(1,1)"><rect fill="#C0C0C0" stroke="none" x="1644.3564453125" y="98" width="38.76132812500009" height="15" opacity="0.2"/></g><g transform="translate(-10,-10) scale(1,1)"><rect fill="#C0C0C0" stroke="none" x="1644.3564453125" y="112" width="96.9033203125" height="26" opacity="0.2"/></g><g transform="translate(-10,-10) scale(1,1)"><rect fill="#ffffff" stroke="none" x="1637.3564453125" y="106" width="96.9033203125" height="25"/></g><g transform="translate(-10,-10) scale(1,1)"><path fill="none" stroke="#000000" d="M 1637.3564453125 106 L 1734.259765625 106 L 1734.259765625 131 L 1637.3564453125 131 L 1637.3564453125 106 Z Z" stroke-miterlimit="10"/></g><g transform="translate(-10,-10) scale(1,1)"><rect fill="#ffffff" stroke="none" x="1637.3564453125" y="91" width="38.76132812500009" height="15"/></g><g transform="translate(-10,-10) scale(1,1)"><path fill="none" stroke="#000000" d="M 1637.3564453125 91 L 1676.1177734375 91 L 1676.1177734375 106 L 1637.3564453125 106 L 1637.3564453125 91 Z Z" stroke-miterlimit="10"/></g><g transform="translate(-10,-10) scale(1,1)"><rect fill="#ffffff" stroke="none" x="1637.3564453125" y="105" width="96.9033203125" height="26"/></g><g transform="translate(-10,-10) scale(1,1)"><path fill="none" stroke="#000000" d="M 1637.3564453125 105 L 1734.259765625 105 L 1734.259765625 131 L 1637.3564453125 131 L 1637.3564453125 105 Z Z" stroke-miterlimit="10"/></g><g transform="translate(-10,-10) scale(1,1)"><g><path fill="none" stroke="none"/><text fill="#000000" stroke="none" font-family="Arial" font-size="14px" font-style="normal" font-weight="bold" text-decoration="none" x="1644.56689453125" y="126.5">UIOperations</text></g></g><g transform="translate(-10,-10) scale(1,1)"><rect fill="#C0C0C0" stroke="none" x="1766.8046875" y="98" width="37.21640625000009" height="15" opacity="0.2"/></g><g transform="translate(-10,-10) scale(1,1)"><rect fill="#C0C0C0" stroke="none" x="1766.8046875" y="112" width="93.041015625" height="26" opacity="0.2"/></g><g transform="translate(-10,-10) scale(1,1)"><rect fill="#ffffff" stroke="none" x="1759.8046875" y="106" width="93.041015625" height="25"/></g><g transform="translate(-10,-10) scale(1,1)"><path fill="none" stroke="#000000" d="M 1759.8046875 106 L 1852.845703125 106 L 1852.845703125 131 L 1759.8046875 131 L 1759.8046875 106 Z Z" stroke-miterlimit="10"/></g><g transform="translate(-10,-10) scale(1,1)"><rect fill="#ffffff" stroke="none" x="1759.8046875" y="91" width="37.21640625000009" height="15"/></g><g transform="translate(-10,-10) scale(1,1)"><path fill="none" stroke="#000000" d="M 1759.8046875 91 L 1797.02109375 91 L 1797.02109375 106 L 1759.8046875 106 L 1759.8046875 91 Z Z" stroke-miterlimit="10"/></g><g transform="translate(-10,-10) scale(1,1)"><rect fill="#ffffff" stroke="none" x="1759.8046875" y="105" width="93.041015625" height="26"/></g><g transform="translate(-10,-10) scale(1,1)"><path fill="none" stroke="#000000" d="M 1759.8046875 105 L 1852.845703125 105 L 1852.845703125 131 L 1759.8046875 131 L 1759.8046875 105 Z Z" stroke-miterlimit="10"/></g><g transform="translate(-10,-10) scale(1,1)"><g><path fill="none" stroke="none"/><text fill="#000000" stroke="none" font-family="Arial" font-size="14px" font-style="normal" font-weight="bold" text-decoration="none" x="1767.80126953125" y="126.5">displayables</text></g></g><g transform="translate(-10,-10) scale(1,1)"><rect fill="#C0C0C0" stroke="none" x="1879.9423828125" y="98" width="20.09375" height="15" opacity="0.2"/></g><g transform="translate(-10,-10) scale(1,1)"><rect fill="#C0C0C0" stroke="none" x="1879.9423828125" y="112" width="50.234375" height="26" opacity="0.2"/></g><g transform="translate(-10,-10) scale(1,1)"><rect fill="#ffffff" stroke="none" x="1872.9423828125" y="106" width="50.234375" height="25"/></g><g transform="translate(-10,-10) scale(1,1)"><path fill="none" stroke="#000000" d="M 1872.9423828125 106 L 1923.1767578125 106 L 1923.1767578125 131 L 1872.9423828125 131 L 1872.9423828125 106 Z Z" stroke-miterlimit="10"/></g><g transform="translate(-10,-10) scale(1,1)"><rect fill="#ffffff" stroke="none" x="1872.9423828125" y="91" width="20.09375" height="15"/></g><g transform="translate(-10,-10) scale(1,1)"><path fill="none" stroke="#000000" d="M 1872.9423828125 91 L 1893.0361328125 91 L 1893.0361328125 106 L 1872.9423828125 106 L 1872.9423828125 91 Z Z" stroke-miterlimit="10"/></g><g transform="translate(-10,-10) scale(1,1)"><rect fill="#ffffff" stroke="none" x="1872.9423828125" y="105" width="50.234375" height="26"/></g><g transform="translate(-10,-10) scale(1,1)"><path fill="none" stroke="#000000" d="M 1872.9423828125 105 L 1923.1767578125 105 L 1923.1767578125 131 L 1872.9423828125 131 L 1872.9423828125 105 Z Z" stroke-miterlimit="10"/></g><g transform="translate(-10,-10) scale(1,1)"><g><path fill="none" stroke="none"/><text fill="#000000" stroke="none" font-family="Arial" font-size="14px" font-style="normal" font-weight="bold" text-decoration="none" x="1879.3837890625" y="126.5">status</text></g></g><g transform="translate(-10,-10) scale(1,1)"><path fill="none" stroke="#000000" d="M 53 90 Q 52 76 232 46" stroke-miterlimit="10"/></g><g transform="translate(-10,-10) scale(1,1)"><path fill="#FFFFFF" stroke="none" d="M 218.095242533175 47.1507929111375 C 218.095242533175 43.2847993111375 221.229248933175 40.1507929111375 225.095242533175 40.1507929111375 C 228.961236133175 40.1507929111375 232.095242533175 43.2847993111375 232.095242533175 47.1507929111375 C 232.095242533175 51.016786511137504 228.961236133175 54.1507929111375 225.095242533175 54.1507929111375 C 221.229248933175 54.1507929111375 218.095242533175 51.016786511137504 218.095242533175 47.1507929111375 Z"/></g><g transform="translate(-10,-10) scale(1,1)"><path fill="none" stroke="#000000" d="M 218.095242533175 47.1507929111375 C 218.095242533175 43.2847993111375 221.229248933175 40.1507929111375 225.095242533175 40.1507929111375 C 228.961236133175 40.1507929111375 232.095242533175 43.2847993111375 232.095242533175 47.1507929111375 C 232.095242533175 51.016786511137504 228.961236133175 54.1507929111375 225.095242533175 54.1507929111375 C 221.229248933175 54.1507929111375 218.095242533175 51.016786511137504 218.095242533175 47.1507929111375 Z" stroke-miterlimit="10"/></g><g transform="translate(-10,-10) scale(1,1)"><path fill="none" stroke="#000000" d="M 218.19048506635 48.301585822275 L 232 46" stroke-miterlimit="10"/></g><g transform="translate(-10,-10) scale(1,1)"><path fill="none" stroke="#000000" d="M 226.2460354443125 54.055550377962504 L 223.9444496220375 40.2460354443125" stroke-miterlimit="10"/></g><g transform="translate(-10,-10) scale(1,1)"><path fill="none" stroke="#000000" d="M 140 90 Q 140 76 232 50" stroke-miterlimit="10"/></g><g transform="translate(-10,-10) scale(1,1)"><path fill="#FFFFFF" stroke="none" d="M 218.2638341782496 51.903699036581635 C 218.2638341782496 48.03770543658163 221.3978405782496 44.903699036581635 225.2638341782496 44.903699036581635 C 229.1298277782496 44.903699036581635 232.2638341782496 48.03770543658163 232.2638341782496 51.903699036581635 C 232.2638341782496 55.76969263658164 229.1298277782496 58.903699036581635 225.2638341782496 58.903699036581635 C 221.3978405782496 58.903699036581635 218.2638341782496 55.76969263658164 218.2638341782496 51.903699036581635 Z"/></g><g transform="translate(-10,-10) scale(1,1)"><path fill="none" stroke="#000000" d="M 218.2638341782496 51.903699036581635 C 218.2638341782496 48.03770543658163 221.3978405782496 44.903699036581635 225.2638341782496 44.903699036581635 C 229.1298277782496 44.903699036581635 232.2638341782496 48.03770543658163 232.2638341782496 51.903699036581635 C 232.2638341782496 55.76969263658164 229.1298277782496 58.903699036581635 225.2638341782496 58.903699036581635 C 221.3978405782496 58.903699036581635 218.2638341782496 55.76969263658164 218.2638341782496 51.903699036581635 Z" stroke-miterlimit="10"/></g><g transform="translate(-10,-10) scale(1,1)"><path fill="none" stroke="#000000" d="M 218.52766835649922 53.80739807316327 L 232 50" stroke-miterlimit="10"/></g><g transform="translate(-10,-10) scale(1,1)"><path fill="none" stroke="#000000" d="M 227.16753321483122 58.63986485833203 L 223.36013514166797 45.16753321483124" stroke-miterlimit="10"/></g><g transform="translate(-10,-10) scale(1,1)"><path fill="none" stroke="#000000" d="M 220 90 Q 220 76 240 61" stroke-miterlimit="10"/></g><g transform="translate(-10,-10) scale(1,1)"><path fill="#FFFFFF" stroke="none" d="M 227.4 65.2 C 227.4 61.3340064 230.5340064 58.2 234.4 58.2 C 238.2659936 58.2 241.4 61.3340064 241.4 65.2 C 241.4 69.0659936 238.2659936 72.2 234.4 72.2 C 230.5340064 72.2 227.4 69.0659936 227.4 65.2 Z"/></g><g transform="translate(-10,-10) scale(1,1)"><path fill="none" stroke="#000000" d="M 227.4 65.2 C 227.4 61.3340064 230.5340064 58.2 234.4 58.2 C 238.2659936 58.2 241.4 61.3340064 241.4 65.2 C 241.4 69.0659936 238.2659936 72.2 234.4 72.2 C 230.5340064 72.2 227.4 69.0659936 227.4 65.2 Z" stroke-miterlimit="10"/></g><g transform="translate(-10,-10) scale(1,1)"><path fill="none" stroke="#000000" d="M 228.8 69.4 L 240 61" stroke-miterlimit="10"/></g><g transform="translate(-10,-10) scale(1,1)"><path fill="none" stroke="#000000" d="M 238.6 70.8 L 230.20000000000002 59.6" stroke-miterlimit="10"/></g><g transform="translate(-10,-10) scale(1,1)"><path fill="none" stroke="#000000" d="M 176 161 Q 175 147 194 132" stroke-miterlimit="10"/></g><g transform="translate(-10,-10) scale(1,1)"><path fill="#FFFFFF" stroke="none" d="M 181.505820641266 136.33751002005314 C 181.505820641266 132.47151642005315 184.63982704126602 129.33751002005314 188.505820641266 129.33751002005314 C 192.371814241266 129.33751002005314 195.505820641266 132.47151642005315 195.505820641266 136.33751002005314 C 195.505820641266 140.20350362005314 192.371814241266 143.33751002005314 188.505820641266 143.33751002005314 C 184.63982704126602 143.33751002005314 181.505820641266 140.20350362005314 181.505820641266 136.33751002005314 Z"/></g><g transform="translate(-10,-10) scale(1,1)"><path fill="none" stroke="#000000" d="M 181.505820641266 136.33751002005314 C 181.505820641266 132.47151642005315 184.63982704126602 129.33751002005314 188.505820641266 129.33751002005314 C 192.371814241266 129.33751002005314 195.505820641266 132.47151642005315 195.505820641266 136.33751002005314 C 195.505820641266 140.20350362005314 192.371814241266 143.33751002005314 188.505820641266 143.33751002005314 C 184.63982704126602 143.33751002005314 181.505820641266 140.20350362005314 181.505820641266 136.33751002005314 Z" stroke-miterlimit="10"/></g><g transform="translate(-10,-10) scale(1,1)"><path fill="none" stroke="#000000" d="M 183.01164128253203 140.6750200401063 L 194 132" stroke-miterlimit="10"/></g><g transform="translate(-10,-10) scale(1,1)"><path fill="none" stroke="#000000" d="M 192.84333066131916 141.83168937878713 L 184.16831062121287 130.84333066131916" stroke-miterlimit="10"/></g><g transform="translate(-10,-10) scale(1,1)"><path fill="none" stroke="#000000" d="M 96 232 Q 94 218 135 201" stroke-miterlimit="10"/></g><g transform="translate(-10,-10) scale(1,1)"><path fill="#FFFFFF" stroke="none" d="M 121.53380520499857 203.68110515890302 C 121.53380520499857 199.81511155890303 124.66781160499858 196.68110515890302 128.53380520499857 196.68110515890302 C 132.39979880499857 196.68110515890302 135.53380520499857 199.81511155890303 135.53380520499857 203.68110515890302 C 135.53380520499857 207.54709875890302 132.39979880499857 210.68110515890302 128.53380520499857 210.68110515890302 C 124.66781160499858 210.68110515890302 121.53380520499857 207.54709875890302 121.53380520499857 203.68110515890302 Z"/></g><g transform="translate(-10,-10) scale(1,1)"><path fill="none" stroke="#000000" d="M 121.53380520499857 203.68110515890302 C 121.53380520499857 199.81511155890303 124.66781160499858 196.68110515890302 128.53380520499857 196.68110515890302 C 132.39979880499857 196.68110515890302 135.53380520499857 199.81511155890303 135.53380520499857 203.68110515890302 C 135.53380520499857 207.54709875890302 132.39979880499857 210.68110515890302 128.53380520499857 210.68110515890302 C 124.66781160499858 210.68110515890302 121.53380520499857 207.54709875890302 121.53380520499857 203.68110515890302 Z" stroke-miterlimit="10"/></g><g transform="translate(-10,-10) scale(1,1)"><path fill="none" stroke="#000000" d="M 122.06761040999714 206.36221031780607 L 135 201" stroke-miterlimit="10"/></g><g transform="translate(-10,-10) scale(1,1)"><path fill="none" stroke="#000000" d="M 131.2149103639016 210.14729995390445 L 125.85270004609553 197.2149103639016" stroke-miterlimit="10"/></g><g transform="translate(-10,-10) scale(1,1)"><path fill="none" stroke="#000000" d="M 258 232 Q 256 218 223 203" stroke-miterlimit="10"/></g><g transform="translate(-10,-10) scale(1,1)"><path fill="#FFFFFF" stroke="none" d="M 222.37256534223823 205.8966206101083 C 222.37256534223823 202.0306270101083 225.50657174223824 198.8966206101083 229.37256534223823 198.8966206101083 C 233.23855894223823 198.8966206101083 236.37256534223823 202.0306270101083 236.37256534223823 205.8966206101083 C 236.37256534223823 209.7626142101083 233.23855894223823 212.8966206101083 229.37256534223823 212.8966206101083 C 225.50657174223824 212.8966206101083 222.37256534223823 209.7626142101083 222.37256534223823 205.8966206101083 Z"/></g><g transform="translate(-10,-10) scale(1,1)"><path fill="none" stroke="#000000" d="M 222.37256534223823 205.8966206101083 C 222.37256534223823 202.0306270101083 225.50657174223824 198.8966206101083 229.37256534223823 198.8966206101083 C 233.23855894223823 198.8966206101083 236.37256534223823 202.0306270101083 236.37256534223823 205.8966206101083 C 236.37256534223823 209.7626142101083 233.23855894223823 212.8966206101083 229.37256534223823 212.8966206101083 C 225.50657174223824 212.8966206101083 222.37256534223823 209.7626142101083 222.37256534223823 205.8966206101083 Z" stroke-miterlimit="10"/></g><g transform="translate(-10,-10) scale(1,1)"><path fill="none" stroke="#000000" d="M 235.74513068447646 208.79324122021657 L 223 203" stroke-miterlimit="10"/></g><g transform="translate(-10,-10) scale(1,1)"><path fill="none" stroke="#000000" d="M 232.26918595234653 199.52405526787007 L 226.47594473212993 212.26918595234653" stroke-miterlimit="10"/></g><g transform="translate(-10,-10) scale(1,1)"><path fill="none" stroke="#000000" d="M 270 161 Q 270 147 248 131" stroke-miterlimit="10"/></g><g transform="translate(-10,-10) scale(1,1)"><path fill="#FFFFFF" stroke="none" d="M 246.66115259012233 135.11720188372533 C 246.66115259012233 131.25120828372533 249.79515899012236 128.11720188372533 253.66115259012236 128.11720188372533 C 257.5271461901224 128.11720188372533 260.66115259012236 131.25120828372533 260.66115259012236 135.11720188372533 C 260.66115259012236 138.98319548372532 257.5271461901224 142.11720188372533 253.66115259012236 142.11720188372533 C 249.79515899012236 142.11720188372533 246.66115259012233 138.98319548372532 246.66115259012233 135.11720188372533 Z"/></g><g transform="translate(-10,-10) scale(1,1)"><path fill="none" stroke="#000000" d="M 246.66115259012233 135.11720188372533 C 246.66115259012233 131.25120828372533 249.79515899012236 128.11720188372533 253.66115259012236 128.11720188372533 C 257.5271461901224 128.11720188372533 260.66115259012236 131.25120828372533 260.66115259012236 135.11720188372533 C 260.66115259012236 138.98319548372532 257.5271461901224 142.11720188372533 253.66115259012236 142.11720188372533 C 249.79515899012236 142.11720188372533 246.66115259012233 138.98319548372532 246.66115259012233 135.11720188372533 Z" stroke-miterlimit="10"/></g><g transform="translate(-10,-10) scale(1,1)"><path fill="none" stroke="#000000" d="M 259.32230518024465 139.23440376745066 L 248 131" stroke-miterlimit="10"/></g><g transform="translate(-10,-10) scale(1,1)"><path fill="none" stroke="#000000" d="M 257.7783544738476 129.456049293603 L 249.543950706397 140.77835447384766" stroke-miterlimit="10"/></g><g transform="translate(-10,-10) scale(1,1)"><path fill="none" stroke="#000000" d="M 315 90 Q 314 76 294 61" stroke-miterlimit="10"/></g><g transform="translate(-10,-10) scale(1,1)"><path fill="#FFFFFF" stroke="none" d="M 292.6 65.2 C 292.6 61.3340064 295.7340064 58.2 299.6 58.2 C 303.46599360000005 58.2 306.6 61.3340064 306.6 65.2 C 306.6 69.0659936 303.46599360000005 72.2 299.6 72.2 C 295.7340064 72.2 292.6 69.0659936 292.6 65.2 Z"/></g><g transform="translate(-10,-10) scale(1,1)"><path fill="none" stroke="#000000" d="M 292.6 65.2 C 292.6 61.3340064 295.7340064 58.2 299.6 58.2 C 303.46599360000005 58.2 306.6 61.3340064 306.6 65.2 C 306.6 69.0659936 303.46599360000005 72.2 299.6 72.2 C 295.7340064 72.2 292.6 69.0659936 292.6 65.2 Z" stroke-miterlimit="10"/></g><g transform="translate(-10,-10) scale(1,1)"><path fill="none" stroke="#000000" d="M 305.2 69.4 L 294 61" stroke-miterlimit="10"/></g><g transform="translate(-10,-10) scale(1,1)"><path fill="none" stroke="#000000" d="M 303.8 59.6 L 295.40000000000003 70.80000000000001" stroke-miterlimit="10"/></g><g transform="translate(-10,-10) scale(1,1)"><path fill="none" stroke="#000000" d="M 403 90 Q 403 76 304 50" stroke-miterlimit="10"/></g><g transform="translate(-10,-10) scale(1,1)"><path fill="#FFFFFF" stroke="none" d="M 303.77040677811937 51.778086628597 C 303.77040677811937 47.912093028597 306.90441317811934 44.778086628597 310.77040677811937 44.778086628597 C 314.6364003781194 44.778086628597 317.77040677811937 47.912093028597 317.77040677811937 51.778086628597 C 317.77040677811937 55.644080228597005 314.6364003781194 58.778086628597 310.77040677811937 58.778086628597 C 306.90441317811934 58.778086628597 303.77040677811937 55.644080228597005 303.77040677811937 51.778086628597 Z"/></g><g transform="translate(-10,-10) scale(1,1)"><path fill="none" stroke="#000000" d="M 303.77040677811937 51.778086628597 C 303.77040677811937 47.912093028597 306.90441317811934 44.778086628597 310.77040677811937 44.778086628597 C 314.6364003781194 44.778086628597 317.77040677811937 47.912093028597 317.77040677811937 51.778086628597 C 317.77040677811937 55.644080228597005 314.6364003781194 58.778086628597 310.77040677811937 58.778086628597 C 306.90441317811934 58.778086628597 303.77040677811937 55.644080228597005 303.77040677811937 51.778086628597 Z" stroke-miterlimit="10"/></g><g transform="translate(-10,-10) scale(1,1)"><path fill="none" stroke="#000000" d="M 317.54081355623873 53.556173257194004 L 304 50" stroke-miterlimit="10"/></g><g transform="translate(-10,-10) scale(1,1)"><path fill="none" stroke="#000000" d="M 312.5484934067164 45.00767985047764 L 308.99232014952236 58.54849340671636" stroke-miterlimit="10"/></g><g transform="translate(-10,-10) scale(1,1)"><path fill="none" stroke="#000000" d="M 360 161 Q 359 147 377 132" stroke-miterlimit="10"/></g><g transform="translate(-10,-10) scale(1,1)"><path fill="#FFFFFF" stroke="none" d="M 364.6224510428184 136.48129079765135 C 364.6224510428184 132.61529719765136 367.7564574428184 129.48129079765135 371.6224510428184 129.48129079765135 C 375.4884446428184 129.48129079765135 378.6224510428184 132.61529719765136 378.6224510428184 136.48129079765135 C 378.6224510428184 140.34728439765135 375.4884446428184 143.48129079765135 371.6224510428184 143.48129079765135 C 367.7564574428184 143.48129079765135 364.6224510428184 140.34728439765135 364.6224510428184 136.48129079765135 Z"/></g><g transform="translate(-10,-10) scale(1,1)"><path fill="none" stroke="#000000" d="M 364.6224510428184 136.48129079765135 C 364.6224510428184 132.61529719765136 367.7564574428184 129.48129079765135 371.6224510428184 129.48129079765135 C 375.4884446428184 129.48129079765135 378.6224510428184 132.61529719765136 378.6224510428184 136.48129079765135 C 378.6224510428184 140.34728439765135 375.4884446428184 143.48129079765135 371.6224510428184 143.48129079765135 C 367.7564574428184 143.48129079765135 364.6224510428184 140.34728439765135 364.6224510428184 136.48129079765135 Z" stroke-miterlimit="10"/></g><g transform="translate(-10,-10) scale(1,1)"><path fill="none" stroke="#000000" d="M 366.24490208563674 140.9625815953027 L 377 132" stroke-miterlimit="10"/></g><g transform="translate(-10,-10) scale(1,1)"><path fill="none" stroke="#000000" d="M 376.10374184046975 141.85883975483299 L 367.14116024516704 131.10374184046972" stroke-miterlimit="10"/></g><g transform="translate(-10,-10) scale(1,1)"><path fill="none" stroke="#000000" d="M 455 161 Q 455 147 428 129" stroke-miterlimit="10"/></g><g transform="translate(-10,-10) scale(1,1)"><path fill="#FFFFFF" stroke="none" d="M 426.8243520603649 132.8829013735766 C 426.8243520603649 129.0169077735766 429.9583584603649 125.8829013735766 433.8243520603649 125.8829013735766 C 437.6903456603649 125.8829013735766 440.8243520603649 129.0169077735766 440.8243520603649 132.8829013735766 C 440.8243520603649 136.7488949735766 437.6903456603649 139.8829013735766 433.8243520603649 139.8829013735766 C 429.9583584603649 139.8829013735766 426.8243520603649 136.7488949735766 426.8243520603649 132.8829013735766 Z"/></g><g transform="translate(-10,-10) scale(1,1)"><path fill="none" stroke="#000000" d="M 426.8243520603649 132.8829013735766 C 426.8243520603649 129.0169077735766 429.9583584603649 125.8829013735766 433.8243520603649 125.8829013735766 C 437.6903456603649 125.8829013735766 440.8243520603649 129.0169077735766 440.8243520603649 132.8829013735766 C 440.8243520603649 136.7488949735766 437.6903456603649 139.8829013735766 433.8243520603649 139.8829013735766 C 429.9583584603649 139.8829013735766 426.8243520603649 136.7488949735766 426.8243520603649 132.8829013735766 Z" stroke-miterlimit="10"/></g><g transform="translate(-10,-10) scale(1,1)"><path fill="none" stroke="#000000" d="M 439.6487041207298 136.7658027471532 L 428 129" stroke-miterlimit="10"/></g><g transform="translate(-10,-10) scale(1,1)"><path fill="none" stroke="#000000" d="M 437.7072534339415 127.0585493132117 L 429.9414506867883 138.7072534339415" stroke-miterlimit="10"/></g><g transform="translate(-10,-10) scale(1,1)"><path fill="none" stroke="#000000" d="M 456 232 Q 455 218 455 203" stroke-miterlimit="10"/></g><g transform="translate(-10,-10) scale(1,1)"><path fill="#FFFFFF" stroke="none" d="M 448 210 C 448 206.1340064 451.1340064 203 455 203 C 458.8659936 203 462 206.1340064 462 210 C 462 213.8659936 458.8659936 217 455 217 C 451.1340064 217 448 213.8659936 448 210 Z"/></g><g transform="translate(-10,-10) scale(1,1)"><path fill="none" stroke="#000000" d="M 448 210 C 448 206.1340064 451.1340064 203 455 203 C 458.8659936 203 462 206.1340064 462 210 C 462 213.8659936 458.8659936 217 455 217 C 451.1340064 217 448 213.8659936 448 210 Z" stroke-miterlimit="10"/></g><g transform="translate(-10,-10) scale(1,1)"><path fill="none" stroke="#000000" d="M 455 217 L 455 203" stroke-miterlimit="10"/></g><g transform="translate(-10,-10) scale(1,1)"><path fill="none" stroke="#000000" d="M 462 210 L 448 210" stroke-miterlimit="10"/></g><g transform="translate(-10,-10) scale(1,1)"><path fill="none" stroke="#000000" d="M 535 161 Q 535 147 428 118" stroke-miterlimit="10"/></g><g transform="translate(-10,-10) scale(1,1)"><path fill="#FFFFFF" stroke="none" d="M 427.7562525662391 119.83113387309284 C 427.7562525662391 115.96514027309284 430.89025896623906 112.83113387309284 434.7562525662391 112.83113387309284 C 438.6222461662391 112.83113387309284 441.7562525662391 115.96514027309284 441.7562525662391 119.83113387309284 C 441.7562525662391 123.69712747309283 438.6222461662391 126.83113387309284 434.7562525662391 126.83113387309284 C 430.89025896623906 126.83113387309284 427.7562525662391 123.69712747309283 427.7562525662391 119.83113387309284 Z"/></g><g transform="translate(-10,-10) scale(1,1)"><path fill="none" stroke="#000000" d="M 427.7562525662391 119.83113387309284 C 427.7562525662391 115.96514027309284 430.89025896623906 112.83113387309284 434.7562525662391 112.83113387309284 C 438.6222461662391 112.83113387309284 441.7562525662391 115.96514027309284 441.7562525662391 119.83113387309284 C 441.7562525662391 123.69712747309283 438.6222461662391 126.83113387309284 434.7562525662391 126.83113387309284 C 430.89025896623906 126.83113387309284 427.7562525662391 123.69712747309283 427.7562525662391 119.83113387309284 Z" stroke-miterlimit="10"/></g><g transform="translate(-10,-10) scale(1,1)"><path fill="none" stroke="#000000" d="M 441.51250513247817 121.66226774618566 L 428 118" stroke-miterlimit="10"/></g><g transform="translate(-10,-10) scale(1,1)"><path fill="none" stroke="#000000" d="M 436.5873864393319 113.07488130685377 L 432.92511869314626 126.58738643933191" stroke-miterlimit="10"/></g><g transform="translate(-10,-10) scale(1,1)"><path fill="none" stroke="#000000" d="M 548 90 Q 545 76 304 45" stroke-miterlimit="10"/></g><g transform="translate(-10,-10) scale(1,1)"><path fill="#FFFFFF" stroke="none" d="M 303.94279836262206 45.89305705079371 C 303.94279836262206 42.027063450793705 307.07680476262203 38.89305705079371 310.94279836262206 38.89305705079371 C 314.8087919626221 38.89305705079371 317.94279836262206 42.027063450793705 317.94279836262206 45.89305705079371 C 317.94279836262206 49.75905065079371 314.8087919626221 52.89305705079371 310.94279836262206 52.89305705079371 C 307.07680476262203 52.89305705079371 303.94279836262206 49.75905065079371 303.94279836262206 45.89305705079371 Z"/></g><g transform="translate(-10,-10) scale(1,1)"><path fill="none" stroke="#000000" d="M 303.94279836262206 45.89305705079371 C 303.94279836262206 42.027063450793705 307.07680476262203 38.89305705079371 310.94279836262206 38.89305705079371 C 314.8087919626221 38.89305705079371 317.94279836262206 42.027063450793705 317.94279836262206 45.89305705079371 C 317.94279836262206 49.75905065079371 314.8087919626221 52.89305705079371 310.94279836262206 52.89305705079371 C 307.07680476262203 52.89305705079371 303.94279836262206 49.75905065079371 303.94279836262206 45.89305705079371 Z" stroke-miterlimit="10"/></g><g transform="translate(-10,-10) scale(1,1)"><path fill="none" stroke="#000000" d="M 317.8855967252441 46.78611410158742 L 304 45" stroke-miterlimit="10"/></g><g transform="translate(-10,-10) scale(1,1)"><path fill="none" stroke="#000000" d="M 311.83585541341574 38.950258688171644 L 310.04974131182837 52.83585541341577" stroke-miterlimit="10"/></g><g transform="translate(-10,-10) scale(1,1)"><path fill="none" stroke="#000000" d="M 687 90 Q 687 76 757 50" stroke-miterlimit="10"/></g><g transform="translate(-10,-10) scale(1,1)"><path fill="#FFFFFF" stroke="none" d="M 743.4380230959316 52.43730570722539 C 743.4380230959316 48.57131210722539 746.5720294959316 45.43730570722539 750.4380230959316 45.43730570722539 C 754.3040166959316 45.43730570722539 757.4380230959316 48.57131210722539 757.4380230959316 52.43730570722539 C 757.4380230959316 56.303299307225394 754.3040166959316 59.43730570722539 750.4380230959316 59.43730570722539 C 746.5720294959316 59.43730570722539 743.4380230959316 56.303299307225394 743.4380230959316 52.43730570722539 Z"/></g><g transform="translate(-10,-10) scale(1,1)"><path fill="none" stroke="#000000" d="M 743.4380230959316 52.43730570722539 C 743.4380230959316 48.57131210722539 746.5720294959316 45.43730570722539 750.4380230959316 45.43730570722539 C 754.3040166959316 45.43730570722539 757.4380230959316 48.57131210722539 757.4380230959316 52.43730570722539 C 757.4380230959316 56.303299307225394 754.3040166959316 59.43730570722539 750.4380230959316 59.43730570722539 C 746.5720294959316 59.43730570722539 743.4380230959316 56.303299307225394 743.4380230959316 52.43730570722539 Z" stroke-miterlimit="10"/></g><g transform="translate(-10,-10) scale(1,1)"><path fill="none" stroke="#000000" d="M 743.8760461918633 54.87461141445078 L 757 50" stroke-miterlimit="10"/></g><g transform="translate(-10,-10) scale(1,1)"><path fill="none" stroke="#000000" d="M 752.875328803157 58.99928261129375 L 748.0007173887062 45.87532880315703" stroke-miterlimit="10"/></g><g transform="translate(-10,-10) scale(1,1)"><path fill="none" stroke="#000000" d="M 784 90 Q 783 76 783 61" stroke-miterlimit="10"/></g><g transform="translate(-10,-10) scale(1,1)"><path fill="#FFFFFF" stroke="none" d="M 776 68 C 776 64.1340064 779.1340064 61 783 61 C 786.8659936 61 790 64.1340064 790 68 C 790 71.8659936 786.8659936 75 783 75 C 779.1340064 75 776 71.8659936 776 68 Z"/></g><g transform="translate(-10,-10) scale(1,1)"><path fill="none" stroke="#000000" d="M 776 68 C 776 64.1340064 779.1340064 61 783 61 C 786.8659936 61 790 64.1340064 790 68 C 790 71.8659936 786.8659936 75 783 75 C 779.1340064 75 776 71.8659936 776 68 Z" stroke-miterlimit="10"/></g><g transform="translate(-10,-10) scale(1,1)"><path fill="none" stroke="#000000" d="M 783 75 L 783 61" stroke-miterlimit="10"/></g><g transform="translate(-10,-10) scale(1,1)"><path fill="none" stroke="#000000" d="M 790 68 L 776 68" stroke-miterlimit="10"/></g><g transform="translate(-10,-10) scale(1,1)"><path fill="none" stroke="#000000" d="M 878 90 Q 878 76 1258 43" stroke-miterlimit="10"/></g><g transform="translate(-10,-10) scale(1,1)"><path fill="#FFFFFF" stroke="none" d="M 1244.0262470646255 43.60561538649304 C 1244.0262470646255 39.73962178649304 1247.1602534646256 36.60561538649304 1251.0262470646255 36.60561538649304 C 1254.8922406646254 36.60561538649304 1258.0262470646255 39.73962178649304 1258.0262470646255 43.60561538649304 C 1258.0262470646255 47.471608986493045 1254.8922406646254 50.60561538649304 1251.0262470646255 50.60561538649304 C 1247.1602534646256 50.60561538649304 1244.0262470646255 47.471608986493045 1244.0262470646255 43.60561538649304 Z"/></g><g transform="translate(-10,-10) scale(1,1)"><path fill="none" stroke="#000000" d="M 1244.0262470646255 43.60561538649304 C 1244.0262470646255 39.73962178649304 1247.1602534646256 36.60561538649304 1251.0262470646255 36.60561538649304 C 1254.8922406646254 36.60561538649304 1258.0262470646255 39.73962178649304 1258.0262470646255 43.60561538649304 C 1258.0262470646255 47.471608986493045 1254.8922406646254 50.60561538649304 1251.0262470646255 50.60561538649304 C 1247.1602534646256 50.60561538649304 1244.0262470646255 47.471608986493045 1244.0262470646255 43.60561538649304 Z" stroke-miterlimit="10"/></g><g transform="translate(-10,-10) scale(1,1)"><path fill="none" stroke="#000000" d="M 1244.0524941292513 44.211230772986085 L 1258 43" stroke-miterlimit="10"/></g><g transform="translate(-10,-10) scale(1,1)"><path fill="none" stroke="#000000" d="M 1251.6318624511186 50.57936832186743 L 1250.4206316781324 36.63186245111866" stroke-miterlimit="10"/></g><g transform="translate(-10,-10) scale(1,1)"><path fill="none" stroke="#000000" d="M 977 90 Q 976 76 1258 44" stroke-miterlimit="10"/></g><g transform="translate(-10,-10) scale(1,1)"><path fill="#FFFFFF" stroke="none" d="M 1244.0446375299032 44.78926098951453 C 1244.0446375299032 40.92326738951453 1247.1786439299033 37.78926098951453 1251.0446375299032 37.78926098951453 C 1254.910631129903 37.78926098951453 1258.0446375299032 40.92326738951453 1258.0446375299032 44.78926098951453 C 1258.0446375299032 48.655254589514534 1254.910631129903 51.78926098951453 1251.0446375299032 51.78926098951453 C 1247.1786439299033 51.78926098951453 1244.0446375299032 48.655254589514534 1244.0446375299032 44.78926098951453 Z"/></g><g transform="translate(-10,-10) scale(1,1)"><path fill="none" stroke="#000000" d="M 1244.0446375299032 44.78926098951453 C 1244.0446375299032 40.92326738951453 1247.1786439299033 37.78926098951453 1251.0446375299032 37.78926098951453 C 1254.910631129903 37.78926098951453 1258.0446375299032 40.92326738951453 1258.0446375299032 44.78926098951453 C 1258.0446375299032 48.655254589514534 1254.910631129903 51.78926098951453 1251.0446375299032 51.78926098951453 C 1247.1786439299033 51.78926098951453 1244.0446375299032 48.655254589514534 1244.0446375299032 44.78926098951453 Z" stroke-miterlimit="10"/></g><g transform="translate(-10,-10) scale(1,1)"><path fill="none" stroke="#000000" d="M 1244.0892750598064 45.578521979029055 L 1258 44" stroke-miterlimit="10"/></g><g transform="translate(-10,-10) scale(1,1)"><path fill="none" stroke="#000000" d="M 1251.8338985194177 51.7446234596113 L 1250.2553765403886 37.83389851941777" stroke-miterlimit="10"/></g><g transform="translate(-10,-10) scale(1,1)"><path fill="none" stroke="#000000" d="M 1075 90 Q 1075 76 1258 45" stroke-miterlimit="10"/></g><g transform="translate(-10,-10) scale(1,1)"><path fill="#FFFFFF" stroke="none" d="M 1244.098324807379 46.169136234815596 C 1244.098324807379 42.30314263481559 1247.232331207379 39.169136234815596 1251.098324807379 39.169136234815596 C 1254.9643184073789 39.169136234815596 1258.098324807379 42.30314263481559 1258.098324807379 46.169136234815596 C 1258.098324807379 50.0351298348156 1254.9643184073789 53.169136234815596 1251.098324807379 53.169136234815596 C 1247.232331207379 53.169136234815596 1244.098324807379 50.0351298348156 1244.098324807379 46.169136234815596 Z"/></g><g transform="translate(-10,-10) scale(1,1)"><path fill="none" stroke="#000000" d="M 1244.098324807379 46.169136234815596 C 1244.098324807379 42.30314263481559 1247.232331207379 39.169136234815596 1251.098324807379 39.169136234815596 C 1254.9643184073789 39.169136234815596 1258.098324807379 42.30314263481559 1258.098324807379 46.169136234815596 C 1258.098324807379 50.0351298348156 1254.9643184073789 53.169136234815596 1251.098324807379 53.169136234815596 C 1247.232331207379 53.169136234815596 1244.098324807379 50.0351298348156 1244.098324807379 46.169136234815596 Z" stroke-miterlimit="10"/></g><g transform="translate(-10,-10) scale(1,1)"><path fill="none" stroke="#000000" d="M 1244.196649614758 47.338272469631185 L 1258 45" stroke-miterlimit="10"/></g><g transform="translate(-10,-10) scale(1,1)"><path fill="none" stroke="#000000" d="M 1252.2674610421946 53.070811427436674 L 1249.9291885725634 39.26746104219452" stroke-miterlimit="10"/></g><g transform="translate(-10,-10) scale(1,1)"><path fill="none" stroke="#000000" d="M 1155 90 Q 1155 76 1258 48" stroke-miterlimit="10"/></g><g transform="translate(-10,-10) scale(1,1)"><path fill="#FFFFFF" stroke="none" d="M 1244.2451421201672 49.836272045003106 C 1244.2451421201672 45.9702784450031 1247.3791485201673 42.836272045003106 1251.2451421201672 42.836272045003106 C 1255.111135720167 42.836272045003106 1258.2451421201672 45.9702784450031 1258.2451421201672 49.836272045003106 C 1258.2451421201672 53.70226564500311 1255.111135720167 56.836272045003106 1251.2451421201672 56.836272045003106 C 1247.3791485201673 56.836272045003106 1244.2451421201672 53.70226564500311 1244.2451421201672 49.836272045003106 Z"/></g><g transform="translate(-10,-10) scale(1,1)"><path fill="none" stroke="#000000" d="M 1244.2451421201672 49.836272045003106 C 1244.2451421201672 45.9702784450031 1247.3791485201673 42.836272045003106 1251.2451421201672 42.836272045003106 C 1255.111135720167 42.836272045003106 1258.2451421201672 45.9702784450031 1258.2451421201672 49.836272045003106 C 1258.2451421201672 53.70226564500311 1255.111135720167 56.836272045003106 1251.2451421201672 56.836272045003106 C 1247.3791485201673 56.836272045003106 1244.2451421201672 53.70226564500311 1244.2451421201672 49.836272045003106 Z" stroke-miterlimit="10"/></g><g transform="translate(-10,-10) scale(1,1)"><path fill="none" stroke="#000000" d="M 1244.4902842403342 51.67254409000622 L 1258 48" stroke-miterlimit="10"/></g><g transform="translate(-10,-10) scale(1,1)"><path fill="none" stroke="#000000" d="M 1253.0814141651704 56.59112992483597 L 1249.408870075164 43.081414165170244" stroke-miterlimit="10"/></g><g transform="translate(-10,-10) scale(1,1)"><path fill="none" stroke="#000000" d="M 1235 90 Q 1235 76 1258 61" stroke-miterlimit="10"/></g><g transform="translate(-10,-10) scale(1,1)"><path fill="#FFFFFF" stroke="none" d="M 1245.1367258221296 64.82387446382846 C 1245.1367258221296 60.95788086382846 1248.2707322221297 57.82387446382846 1252.1367258221296 57.82387446382846 C 1256.0027194221295 57.82387446382846 1259.1367258221296 60.95788086382846 1259.1367258221296 64.82387446382846 C 1259.1367258221296 68.68986806382846 1256.0027194221295 71.82387446382846 1252.1367258221296 71.82387446382846 C 1248.2707322221297 71.82387446382846 1245.1367258221296 68.68986806382846 1245.1367258221296 64.82387446382846 Z"/></g><g transform="translate(-10,-10) scale(1,1)"><path fill="none" stroke="#000000" d="M 1245.1367258221296 64.82387446382846 C 1245.1367258221296 60.95788086382846 1248.2707322221297 57.82387446382846 1252.1367258221296 57.82387446382846 C 1256.0027194221295 57.82387446382846 1259.1367258221296 60.95788086382846 1259.1367258221296 64.82387446382846 C 1259.1367258221296 68.68986806382846 1256.0027194221295 71.82387446382846 1252.1367258221296 71.82387446382846 C 1248.2707322221297 71.82387446382846 1245.1367258221296 68.68986806382846 1245.1367258221296 64.82387446382846 Z" stroke-miterlimit="10"/></g><g transform="translate(-10,-10) scale(1,1)"><path fill="none" stroke="#000000" d="M 1246.2734516442595 68.64774892765692 L 1258 61" stroke-miterlimit="10"/></g><g transform="translate(-10,-10) scale(1,1)"><path fill="none" stroke="#000000" d="M 1255.960600285958 70.68714864169876 L 1248.3128513583013 58.96060028595816" stroke-miterlimit="10"/></g><g transform="translate(-10,-10) scale(1,1)"><path fill="none" stroke="#000000" d="M 1321 90 Q 1321 76 1308 61" stroke-miterlimit="10"/></g><g transform="translate(-10,-10) scale(1,1)"><path fill="#FFFFFF" stroke="none" d="M 1305.5845137689248 66.28982357952873 C 1305.5845137689248 62.423829979528726 1308.718520168925 59.28982357952873 1312.5845137689248 59.28982357952873 C 1316.4505073689247 59.28982357952873 1319.5845137689248 62.423829979528726 1319.5845137689248 66.28982357952873 C 1319.5845137689248 70.15581717952873 1316.4505073689247 73.28982357952873 1312.5845137689248 73.28982357952873 C 1308.718520168925 73.28982357952873 1305.5845137689248 70.15581717952873 1305.5845137689248 66.28982357952873 Z"/></g><g transform="translate(-10,-10) scale(1,1)"><path fill="none" stroke="#000000" d="M 1305.5845137689248 66.28982357952873 C 1305.5845137689248 62.423829979528726 1308.718520168925 59.28982357952873 1312.5845137689248 59.28982357952873 C 1316.4505073689247 59.28982357952873 1319.5845137689248 62.423829979528726 1319.5845137689248 66.28982357952873 C 1319.5845137689248 70.15581717952873 1316.4505073689247 73.28982357952873 1312.5845137689248 73.28982357952873 C 1308.718520168925 73.28982357952873 1305.5845137689248 70.15581717952873 1305.5845137689248 66.28982357952873 Z" stroke-miterlimit="10"/></g><g transform="translate(-10,-10) scale(1,1)"><path fill="none" stroke="#000000" d="M 1317.1690275378498 71.57964715905744 L 1308 61" stroke-miterlimit="10"/></g><g transform="translate(-10,-10) scale(1,1)"><path fill="none" stroke="#000000" d="M 1317.8743373484535 61.705309810603836 L 1307.294690189396 70.87433734845362" stroke-miterlimit="10"/></g><g transform="translate(-10,-10) scale(1,1)"><path fill="none" stroke="#000000" d="M 1407 90 Q 1407 76 1323 50" stroke-miterlimit="10"/></g><g transform="translate(-10,-10) scale(1,1)"><path fill="#FFFFFF" stroke="none" d="M 1322.6870012348395 52.069786096497914 C 1322.6870012348395 48.20379249649791 1325.8210076348396 45.069786096497914 1329.6870012348395 45.069786096497914 C 1333.5529948348394 45.069786096497914 1336.6870012348395 48.20379249649791 1336.6870012348395 52.069786096497914 C 1336.6870012348395 55.93577969649792 1333.5529948348394 59.069786096497914 1329.6870012348395 59.069786096497914 C 1325.8210076348396 59.069786096497914 1322.6870012348395 55.93577969649792 1322.6870012348395 52.069786096497914 Z"/></g><g transform="translate(-10,-10) scale(1,1)"><path fill="none" stroke="#000000" d="M 1322.6870012348395 52.069786096497914 C 1322.6870012348395 48.20379249649791 1325.8210076348396 45.069786096497914 1329.6870012348395 45.069786096497914 C 1333.5529948348394 45.069786096497914 1336.6870012348395 48.20379249649791 1336.6870012348395 52.069786096497914 C 1336.6870012348395 55.93577969649792 1333.5529948348394 59.069786096497914 1329.6870012348395 59.069786096497914 C 1325.8210076348396 59.069786096497914 1322.6870012348395 55.93577969649792 1322.6870012348395 52.069786096497914 Z" stroke-miterlimit="10"/></g><g transform="translate(-10,-10) scale(1,1)"><path fill="none" stroke="#000000" d="M 1336.3740024696788 54.13957219299583 L 1323 50" stroke-miterlimit="10"/></g><g transform="translate(-10,-10) scale(1,1)"><path fill="none" stroke="#000000" d="M 1331.7567873313374 45.38278486165849 L 1327.6172151383416 58.756787331337335" stroke-miterlimit="10"/></g><g transform="translate(-10,-10) scale(1,1)"><path fill="none" stroke="#000000" d="M 1489 90 Q 1489 76 1323 46" stroke-miterlimit="10"/></g><g transform="translate(-10,-10) scale(1,1)"><path fill="#FFFFFF" stroke="none" d="M 1322.8884133852014 47.24489398527734 C 1322.8884133852014 43.37890038527734 1326.0224197852015 40.24489398527734 1329.8884133852014 40.24489398527734 C 1333.7544069852013 40.24489398527734 1336.8884133852014 43.37890038527734 1336.8884133852014 47.24489398527734 C 1336.8884133852014 51.11088758527735 1333.7544069852013 54.24489398527734 1329.8884133852014 54.24489398527734 C 1326.0224197852015 54.24489398527734 1322.8884133852014 51.11088758527735 1322.8884133852014 47.24489398527734 Z"/></g><g transform="translate(-10,-10) scale(1,1)"><path fill="none" stroke="#000000" d="M 1322.8884133852014 47.24489398527734 C 1322.8884133852014 43.37890038527734 1326.0224197852015 40.24489398527734 1329.8884133852014 40.24489398527734 C 1333.7544069852013 40.24489398527734 1336.8884133852014 43.37890038527734 1336.8884133852014 47.24489398527734 C 1336.8884133852014 51.11088758527735 1333.7544069852013 54.24489398527734 1329.8884133852014 54.24489398527734 C 1326.0224197852015 54.24489398527734 1322.8884133852014 51.11088758527735 1322.8884133852014 47.24489398527734 Z" stroke-miterlimit="10"/></g><g transform="translate(-10,-10) scale(1,1)"><path fill="none" stroke="#000000" d="M 1336.7768267704025 48.48978797055468 L 1323 46" stroke-miterlimit="10"/></g><g transform="translate(-10,-10) scale(1,1)"><path fill="none" stroke="#000000" d="M 1331.1333073704786 40.356480600076054 L 1328.6435193999241 54.13330737047863" stroke-miterlimit="10"/></g><g transform="translate(-10,-10) scale(1,1)"><path fill="none" stroke="#000000" d="M 1578 90 Q 1577 76 1323 44" stroke-miterlimit="10"/></g><g transform="translate(-10,-10) scale(1,1)"><path fill="#FFFFFF" stroke="none" d="M 1322.9451005555852 44.87497329834144 C 1322.9451005555852 41.008979698341435 1326.0791069555853 37.87497329834144 1329.9451005555852 37.87497329834144 C 1333.8110941555851 37.87497329834144 1336.9451005555852 41.008979698341435 1336.9451005555852 44.87497329834144 C 1336.9451005555852 48.74096689834144 1333.8110941555851 51.87497329834144 1329.9451005555852 51.87497329834144 C 1326.0791069555853 51.87497329834144 1322.9451005555852 48.74096689834144 1322.9451005555852 44.87497329834144 Z"/></g><g transform="translate(-10,-10) scale(1,1)"><path fill="none" stroke="#000000" d="M 1322.9451005555852 44.87497329834144 C 1322.9451005555852 41.008979698341435 1326.0791069555853 37.87497329834144 1329.9451005555852 37.87497329834144 C 1333.8110941555851 37.87497329834144 1336.9451005555852 41.008979698341435 1336.9451005555852 44.87497329834144 C 1336.9451005555852 48.74096689834144 1333.8110941555851 51.87497329834144 1329.9451005555852 51.87497329834144 C 1326.0791069555853 51.87497329834144 1322.9451005555852 48.74096689834144 1322.9451005555852 44.87497329834144 Z" stroke-miterlimit="10"/></g><g transform="translate(-10,-10) scale(1,1)"><path fill="none" stroke="#000000" d="M 1336.8902011111704 45.749946596682875 L 1323 44" stroke-miterlimit="10"/></g><g transform="translate(-10,-10) scale(1,1)"><path fill="none" stroke="#000000" d="M 1330.8200738539267 37.92987274275626 L 1329.0701272572437 51.820073853926615" stroke-miterlimit="10"/></g><g transform="translate(-10,-10) scale(1,1)"><path fill="none" stroke="#000000" d="M 1684 90 Q 1684 76 1824 46" stroke-miterlimit="10"/></g><g transform="translate(-10,-10) scale(1,1)"><path fill="#FFFFFF" stroke="none" d="M 1810.155383101458 47.46670362111612 C 1810.155383101458 43.600710021116114 1813.2893895014581 40.46670362111612 1817.155383101458 40.46670362111612 C 1821.021376701458 40.46670362111612 1824.155383101458 43.600710021116114 1824.155383101458 47.46670362111612 C 1824.155383101458 51.33269722111612 1821.021376701458 54.46670362111612 1817.155383101458 54.46670362111612 C 1813.2893895014581 54.46670362111612 1810.155383101458 51.33269722111612 1810.155383101458 47.46670362111612 Z"/></g><g transform="translate(-10,-10) scale(1,1)"><path fill="none" stroke="#000000" d="M 1810.155383101458 47.46670362111612 C 1810.155383101458 43.600710021116114 1813.2893895014581 40.46670362111612 1817.155383101458 40.46670362111612 C 1821.021376701458 40.46670362111612 1824.155383101458 43.600710021116114 1824.155383101458 47.46670362111612 C 1824.155383101458 51.33269722111612 1821.021376701458 54.46670362111612 1817.155383101458 54.46670362111612 C 1813.2893895014581 54.46670362111612 1810.155383101458 51.33269722111612 1810.155383101458 47.46670362111612 Z" stroke-miterlimit="10"/></g><g transform="translate(-10,-10) scale(1,1)"><path fill="none" stroke="#000000" d="M 1810.3107662029163 48.933407242232235 L 1824 46" stroke-miterlimit="10"/></g><g transform="translate(-10,-10) scale(1,1)"><path fill="none" stroke="#000000" d="M 1818.622086722574 54.31132051965798 L 1815.688679480342 40.62208672257425" stroke-miterlimit="10"/></g><g transform="translate(-10,-10) scale(1,1)"><path fill="none" stroke="#000000" d="M 1803 90 Q 1801 76 1824 59" stroke-miterlimit="10"/></g><g transform="translate(-10,-10) scale(1,1)"><path fill="#FFFFFF" stroke="none" d="M 1811.3707670097358 63.16073742758664 C 1811.3707670097358 59.294743827586636 1814.504773409736 56.16073742758664 1818.3707670097358 56.16073742758664 C 1822.2367606097357 56.16073742758664 1825.3707670097358 59.294743827586636 1825.3707670097358 63.16073742758664 C 1825.3707670097358 67.02673102758664 1822.2367606097357 70.16073742758664 1818.3707670097358 70.16073742758664 C 1814.504773409736 70.16073742758664 1811.3707670097358 67.02673102758664 1811.3707670097358 63.16073742758664 Z"/></g><g transform="translate(-10,-10) scale(1,1)"><path fill="none" stroke="#000000" d="M 1811.3707670097358 63.16073742758664 C 1811.3707670097358 59.294743827586636 1814.504773409736 56.16073742758664 1818.3707670097358 56.16073742758664 C 1822.2367606097357 56.16073742758664 1825.3707670097358 59.294743827586636 1825.3707670097358 63.16073742758664 C 1825.3707670097358 67.02673102758664 1822.2367606097357 70.16073742758664 1818.3707670097358 70.16073742758664 C 1814.504773409736 70.16073742758664 1811.3707670097358 67.02673102758664 1811.3707670097358 63.16073742758664 Z" stroke-miterlimit="10"/></g><g transform="translate(-10,-10) scale(1,1)"><path fill="none" stroke="#000000" d="M 1812.7415340194714 67.32147485517328 L 1824 59" stroke-miterlimit="10"/></g><g transform="translate(-10,-10) scale(1,1)"><path fill="none" stroke="#000000" d="M 1822.5315044373224 68.78997041785092 L 1814.2100295821492 57.53150443732236" stroke-miterlimit="10"/></g><g transform="translate(-10,-10) scale(1,1)"><path fill="none" stroke="#000000" d="M 1898 90 Q 1898 76 1875 59" stroke-miterlimit="10"/></g><g transform="translate(-10,-10) scale(1,1)"><path fill="#FFFFFF" stroke="none" d="M 1873.6292329902642 63.16073742758664 C 1873.6292329902642 59.294743827586636 1876.7632393902643 56.16073742758664 1880.6292329902642 56.16073742758664 C 1884.495226590264 56.16073742758664 1887.6292329902642 59.294743827586636 1887.6292329902642 63.16073742758664 C 1887.6292329902642 67.02673102758664 1884.495226590264 70.16073742758664 1880.6292329902642 70.16073742758664 C 1876.7632393902643 70.16073742758664 1873.6292329902642 67.02673102758664 1873.6292329902642 63.16073742758664 Z"/></g><g transform="translate(-10,-10) scale(1,1)"><path fill="none" stroke="#000000" d="M 1873.6292329902642 63.16073742758664 C 1873.6292329902642 59.294743827586636 1876.7632393902643 56.16073742758664 1880.6292329902642 56.16073742758664 C 1884.495226590264 56.16073742758664 1887.6292329902642 59.294743827586636 1887.6292329902642 63.16073742758664 C 1887.6292329902642 67.02673102758664 1884.495226590264 70.16073742758664 1880.6292329902642 70.16073742758664 C 1876.7632393902643 70.16073742758664 1873.6292329902642 67.02673102758664 1873.6292329902642 63.16073742758664 Z" stroke-miterlimit="10"/></g><g transform="translate(-10,-10) scale(1,1)"><path fill="none" stroke="#000000" d="M 1886.2584659805286 67.32147485517328 L 1875 59" stroke-miterlimit="10"/></g><g transform="translate(-10,-10) scale(1,1)"><path fill="none" stroke="#000000" d="M 1884.7899704178508 57.53150443732236 L 1876.4684955626776 68.78997041785092" stroke-miterlimit="10"/></g></g></svg>