<svg version="1.1" xmlns="http://www.w3.org/2000/svg" xmlns:xlink="http://www.w3.org/1999/xlink" width="414.599609375" height="69"><defs/><g><g transform="translate(-10,-10) scale(1,1)"><path fill="#C0C0C0" stroke="none" d="M 58.90673828125 38.5 C 58.90673828125 32.1487248 64.05546308125 27 70.40673828125 27 C 76.75801348125 27 81.90673828125 32.1487248 81.90673828125 38.5 C 81.90673828125 44.8512752 76.75801348125 50 70.40673828125 50 C 64.05546308125 50 58.90673828125 44.8512752 58.90673828125 38.5 Z" opacity="0.2"/></g><g transform="translate(-10,-10) scale(1,1)"><path fill="#ffffff" stroke="none" d="M 51.90673828125 31.5 C 51.90673828125 25.1487248 57.05546308125 20 63.40673828125 20 C 69.75801348125 20 74.90673828125 25.1487248 74.90673828125 31.5 C 74.90673828125 37.8512752 69.75801348125 43 63.40673828125 43 C 57.05546308125 43 51.90673828125 37.8512752 51.90673828125 31.5 Z"/></g><g transform="translate(-10,-10) scale(1,1)"><path fill="none" stroke="#000000" d="M 51.90673828125 31.5 C 51.90673828125 25.1487248 57.05546308125 20 63.40673828125 20 C 69.75801348125 20 74.90673828125 25.1487248 74.90673828125 31.5 C 74.90673828125 37.8512752 69.75801348125 43 63.40673828125 43 C 57.05546308125 43 51.90673828125 37.8512752 51.90673828125 31.5 Z" stroke-miterlimit="10"/></g><g transform="translate(-10,-10) scale(1,1)"><g><path fill="none" stroke="none"/><text fill="#000000" stroke="none" font-family="Arial" font-size="14px" font-style="normal" font-weight="bold" text-decoration="none" x="27.220703125" y="63.5">Displayable</text></g></g><g transform="translate(-10,-10) scale(1,1)"><rect fill="#C0C0C0" stroke="none" x="137.013671875" y="31.5" width="38.761328125000006" height="15" opacity="0.2"/></g><g transform="translate(-10,-10) scale(1,1)"><rect fill="#C0C0C0" stroke="none" x="137.013671875" y="45.5" width="96.9033203125" height="26" opacity="0.2"/></g><g transform="translate(-10,-10) scale(1,1)"><rect fill="#ffffff" stroke="none" x="130.013671875" y="39.5" width="96.9033203125" height="25"/></g><g transform="translate(-10,-10) scale(1,1)"><path fill="none" stroke="#000000" d="M 130.013671875 39.5 L 226.9169921875 39.5 L 226.9169921875 64.5 L 130.013671875 64.5 L 130.013671875 39.5 Z Z" stroke-miterlimit="10"/></g><g transform="translate(-10,-10) scale(1,1)"><rect fill="#ffffff" stroke="none" x="130.013671875" y="24.5" width="38.761328125000006" height="15"/></g><g transform="translate(-10,-10) scale(1,1)"><path fill="none" stroke="#000000" d="M 130.013671875 24.5 L 168.775 24.5 L 168.775 39.5 L 130.013671875 39.5 L 130.013671875 24.5 Z Z" stroke-miterlimit="10"/></g><g transform="translate(-10,-10) scale(1,1)"><rect fill="#ffffff" stroke="none" x="130.013671875" y="38.5" width="96.9033203125" height="26"/></g><g transform="translate(-10,-10) scale(1,1)"><path fill="none" stroke="#000000" d="M 130.013671875 38.5 L 226.9169921875 38.5 L 226.9169921875 64.5 L 130.013671875 64.5 L 130.013671875 38.5 Z Z" stroke-miterlimit="10"/></g><g transform="translate(-10,-10) scale(1,1)"><g><path fill="none" stroke="none"/><text fill="#000000" stroke="none" font-family="Arial" font-size="14px" font-style="normal" font-weight="bold" text-decoration="none" x="137.22412109375" y="60">UIOperations</text></g></g><g transform="translate(-10,-10) scale(1,1)"><rect fill="#C0C0C0" stroke="none" x="259.4619140625" y="31.5" width="37.21640624999998" height="15" opacity="0.2"/></g><g transform="translate(-10,-10) scale(1,1)"><rect fill="#C0C0C0" stroke="none" x="259.4619140625" y="45.5" width="93.041015625" height="26" opacity="0.2"/></g><g transform="translate(-10,-10) scale(1,1)"><rect fill="#ffffff" stroke="none" x="252.4619140625" y="39.5" width="93.041015625" height="25"/></g><g transform="translate(-10,-10) scale(1,1)"><path fill="none" stroke="#000000" d="M 252.4619140625 39.5 L 345.5029296875 39.5 L 345.5029296875 64.5 L 252.4619140625 64.5 L 252.4619140625 39.5 Z Z" stroke-miterlimit="10"/></g><g transform="translate(-10,-10) scale(1,1)"><rect fill="#ffffff" stroke="none" x="252.4619140625" y="24.5" width="37.21640624999998" height="15"/></g><g transform="translate(-10,-10) scale(1,1)"><path fill="none" stroke="#000000" d="M 252.4619140625 24.5 L 289.6783203125 24.5 L 289.6783203125 39.5 L 252.4619140625 39.5 L 252.4619140625 24.5 Z Z" stroke-miterlimit="10"/></g><g transform="translate(-10,-10) scale(1,1)"><rect fill="#ffffff" stroke="none" x="252.4619140625" y="38.5" width="93.041015625" height="26"/></g><g transform="translate(-10,-10) scale(1,1)"><path fill="none" stroke="#000000" d="M 252.4619140625 38.5 L 345.5029296875 38.5 L 345.5029296875 64.5 L 252.4619140625 64.5 L 252.4619140625 38.5 Z Z" stroke-miterlimit="10"/></g><g transform="translate(-10,-10) scale(1,1)"><g><path fill="none" stroke="none"/><text fill="#000000" stroke="none" font-family="Arial" font-size="14px" font-style="normal" font-weight="bold" text-decoration="none" x="260.45849609375" y="60">displayables</text></g></g><g transform="translate(-10,-10) scale(1,1)"><rect fill="#C0C0C0" stroke="none" x="372.599609375" y="31.5" width="20.09375" height="15" opacity="0.2"/></g><g transform="translate(-10,-10) scale(1,1)"><rect fill="#C0C0C0" stroke="none" x="372.599609375" y="45.5" width="50.234375" height="26" opacity="0.2"/></g><g transform="translate(-10,-10) scale(1,1)"><rect fill="#ffffff" stroke="none" x="365.599609375" y="39.5" width="50.234375" height="25"/></g><g transform="translate(-10,-10) scale(1,1)"><path fill="none" stroke="#000000" d="M 365.599609375 39.5 L 415.833984375 39.5 L 415.833984375 64.5 L 365.599609375 64.5 L 365.599609375 39.5 Z Z" stroke-miterlimit="10"/></g><g transform="translate(-10,-10) scale(1,1)"><rect fill="#ffffff" stroke="none" x="365.599609375" y="24.5" width="20.09375" height="15"/></g><g transform="translate(-10,-10) scale(1,1)"><path fill="none" stroke="#000000" d="M 365.599609375 24.5 L 385.693359375 24.5 L 385.693359375 39.5 L 365.599609375 39.5 L 365.599609375 24.5 Z Z" stroke-miterlimit="10"/></g><g transform="translate(-10,-10) scale(1,1)"><rect fill="#ffffff" stroke="none" x="365.599609375" y="38.5" width="50.234375" height="26"/></g><g transform="translate(-10,-10) scale(1,1)"><path fill="none" stroke="#000000" d="M 365.599609375 38.5 L 415.833984375 38.5 L 415.833984375 64.5 L 365.599609375 64.5 L 365.599609375 38.5 Z Z" stroke-miterlimit="10"/></g><g transform="translate(-10,-10) scale(1,1)"><g><path fill="none" stroke="none"/><text fill="#000000" stroke="none" font-family="Arial" font-size="14px" font-style="normal" font-weight="bold" text-decoration="none" x="372.041015625" y="60">status</text></g></g></g></svg>