<svg version="1.1" xmlns="http://www.w3.org/2000/svg" xmlns:xlink="http://www.w3.org/1999/xlink" width="372.3154296875" height="125"><defs/><g><g transform="translate(-10,-10) scale(1,1)"><rect fill="#C0C0C0" stroke="none" x="29.7138671875" y="107" width="95.0986328125" height="25" opacity="0.2"/></g><g transform="translate(-10,-10) scale(1,1)"><rect fill="#ffffff" stroke="none" x="22.7138671875" y="100" width="95.0986328125" height="25"/></g><g transform="translate(-10,-10) scale(1,1)"><path fill="none" stroke="#000000" d="M 22.7138671875 100 L 117.8125 100 L 117.8125 125 L 22.7138671875 125 L 22.7138671875 100 Z Z" stroke-miterlimit="10"/></g><g transform="translate(-10,-10) scale(1,1)"><g><path fill="none" stroke="none"/><text fill="#000000" stroke="none" font-family="Arial" font-size="14px" font-style="normal" font-weight="bold" text-decoration="none" x="30.19091796875" y="120.5">TableFactory</text></g></g><g transform="translate(-10,-10) scale(1,1)"><path fill="#C0C0C0" stroke="none" d="M 66.95263671875 38.5 C 66.95263671875 32.1487248 72.10136151875 27 78.45263671875 27 C 84.80391191875 27 89.95263671875 32.1487248 89.95263671875 38.5 C 89.95263671875 44.8512752 84.80391191875 50 78.45263671875 50 C 72.10136151875 50 66.95263671875 44.8512752 66.95263671875 38.5 Z" opacity="0.2"/></g><g transform="translate(-10,-10) scale(1,1)"><path fill="#ffffff" stroke="none" d="M 59.95263671875 31.5 C 59.95263671875 25.1487248 65.10136151875 20 71.45263671875 20 C 77.80391191875 20 82.95263671875 25.1487248 82.95263671875 31.5 C 82.95263671875 37.8512752 77.80391191875 43 71.45263671875 43 C 65.10136151875 43 59.95263671875 37.8512752 59.95263671875 31.5 Z"/></g><g transform="translate(-10,-10) scale(1,1)"><path fill="none" stroke="#000000" d="M 59.95263671875 31.5 C 59.95263671875 25.1487248 65.10136151875 20 71.45263671875 20 C 77.80391191875 20 82.95263671875 25.1487248 82.95263671875 31.5 C 82.95263671875 37.8512752 77.80391191875 43 71.45263671875 43 C 65.10136151875 43 59.95263671875 37.8512752 59.95263671875 31.5 Z" stroke-miterlimit="10"/></g><g transform="translate(-10,-10) scale(1,1)"><g><path fill="none" stroke="none"/><text fill="#000000" stroke="none" font-family="Arial" font-size="14px" font-style="normal" font-weight="bold" text-decoration="none" x="27.09765625" y="63.5">TableReceiver</text></g></g><g transform="translate(-10,-10) scale(1,1)"><rect fill="#C0C0C0" stroke="none" x="152.01171875" y="31.5" width="29.42890625000001" height="15" opacity="0.2"/></g><g transform="translate(-10,-10) scale(1,1)"><rect fill="#C0C0C0" stroke="none" x="152.01171875" y="45.5" width="73.572265625" height="26" opacity="0.2"/></g><g transform="translate(-10,-10) scale(1,1)"><rect fill="#ffffff" stroke="none" x="145.01171875" y="39.5" width="73.572265625" height="25"/></g><g transform="translate(-10,-10) scale(1,1)"><path fill="none" stroke="#000000" d="M 145.01171875 39.5 L 218.583984375 39.5 L 218.583984375 64.5 L 145.01171875 64.5 L 145.01171875 39.5 Z Z" stroke-miterlimit="10"/></g><g transform="translate(-10,-10) scale(1,1)"><rect fill="#ffffff" stroke="none" x="145.01171875" y="24.5" width="29.42890625000001" height="15"/></g><g transform="translate(-10,-10) scale(1,1)"><path fill="none" stroke="#000000" d="M 145.01171875 24.5 L 174.440625 24.5 L 174.440625 39.5 L 145.01171875 39.5 L 145.01171875 24.5 Z Z" stroke-miterlimit="10"/></g><g transform="translate(-10,-10) scale(1,1)"><rect fill="#ffffff" stroke="none" x="145.01171875" y="38.5" width="73.572265625" height="26"/></g><g transform="translate(-10,-10) scale(1,1)"><path fill="none" stroke="#000000" d="M 145.01171875 38.5 L 218.583984375 38.5 L 218.583984375 64.5 L 145.01171875 64.5 L 145.01171875 38.5 Z Z" stroke-miterlimit="10"/></g><g transform="translate(-10,-10) scale(1,1)"><g><path fill="none" stroke="none"/><text fill="#000000" stroke="none" font-family="Arial" font-size="14px" font-style="normal" font-weight="bold" text-decoration="none" x="151.83251953125" y="60">generator</text></g></g><g transform="translate(-10,-10) scale(1,1)"><rect fill="#C0C0C0" stroke="none" x="250.3154296875" y="31.5" width="19.600000000000023" height="15" opacity="0.2"/></g><g transform="translate(-10,-10) scale(1,1)"><rect fill="#C0C0C0" stroke="none" x="250.3154296875" y="45.5" width="49" height="26" opacity="0.2"/></g><g transform="translate(-10,-10) scale(1,1)"><rect fill="#ffffff" stroke="none" x="243.3154296875" y="39.5" width="49" height="25"/></g><g transform="translate(-10,-10) scale(1,1)"><path fill="none" stroke="#000000" d="M 243.3154296875 39.5 L 292.3154296875 39.5 L 292.3154296875 64.5 L 243.3154296875 64.5 L 243.3154296875 39.5 Z Z" stroke-miterlimit="10"/></g><g transform="translate(-10,-10) scale(1,1)"><rect fill="#ffffff" stroke="none" x="243.3154296875" y="24.5" width="19.600000000000023" height="15"/></g><g transform="translate(-10,-10) scale(1,1)"><path fill="none" stroke="#000000" d="M 243.3154296875 24.5 L 262.9154296875 24.5 L 262.9154296875 39.5 L 243.3154296875 39.5 L 243.3154296875 24.5 Z Z" stroke-miterlimit="10"/></g><g transform="translate(-10,-10) scale(1,1)"><rect fill="#ffffff" stroke="none" x="243.3154296875" y="38.5" width="49" height="26"/></g><g transform="translate(-10,-10) scale(1,1)"><path fill="none" stroke="#000000" d="M 243.3154296875 38.5 L 292.3154296875 38.5 L 292.3154296875 64.5 L 243.3154296875 64.5 L 243.3154296875 38.5 Z Z" stroke-miterlimit="10"/></g><g transform="translate(-10,-10) scale(1,1)"><g><path fill="none" stroke="none"/><text fill="#000000" stroke="none" font-family="Arial" font-size="14px" font-style="normal" font-weight="bold" text-decoration="none" x="254.5810546875" y="60">pool</text></g></g><g transform="translate(-10,-10) scale(1,1)"><rect fill="#C0C0C0" stroke="none" x="330.3154296875" y="31.5" width="19.600000000000023" height="15" opacity="0.2"/></g><g transform="translate(-10,-10) scale(1,1)"><rect fill="#C0C0C0" stroke="none" x="330.3154296875" y="45.5" width="49" height="26" opacity="0.2"/></g><g transform="translate(-10,-10) scale(1,1)"><rect fill="#ffffff" stroke="none" x="323.3154296875" y="39.5" width="49" height="25"/></g><g transform="translate(-10,-10) scale(1,1)"><path fill="none" stroke="#000000" d="M 323.3154296875 39.5 L 372.3154296875 39.5 L 372.3154296875 64.5 L 323.3154296875 64.5 L 323.3154296875 39.5 Z Z" stroke-miterlimit="10"/></g><g transform="translate(-10,-10) scale(1,1)"><rect fill="#ffffff" stroke="none" x="323.3154296875" y="24.5" width="19.600000000000023" height="15"/></g><g transform="translate(-10,-10) scale(1,1)"><path fill="none" stroke="#000000" d="M 323.3154296875 24.5 L 342.9154296875 24.5 L 342.9154296875 39.5 L 323.3154296875 39.5 L 323.3154296875 24.5 Z Z" stroke-miterlimit="10"/></g><g transform="translate(-10,-10) scale(1,1)"><rect fill="#ffffff" stroke="none" x="323.3154296875" y="38.5" width="49" height="26"/></g><g transform="translate(-10,-10) scale(1,1)"><path fill="none" stroke="#000000" d="M 323.3154296875 38.5 L 372.3154296875 38.5 L 372.3154296875 64.5 L 323.3154296875 64.5 L 323.3154296875 38.5 Z Z" stroke-miterlimit="10"/></g><g transform="translate(-10,-10) scale(1,1)"><g><path fill="none" stroke="none"/><text fill="#000000" stroke="none" font-family="Arial" font-size="14px" font-style="normal" font-weight="bold" text-decoration="none" x="331.08447265625" y="60">types</text></g></g><g transform="translate(-10,-10) scale(1,1)"><path fill="none" stroke="#000000" d="M 69 99 Q 68 85 70.38461538461539 43" stroke-miterlimit="10"/></g></g></svg>