<svg version="1.1" xmlns="http://www.w3.org/2000/svg" xmlns:xlink="http://www.w3.org/1999/xlink" width="3826.16796875" height="69"><defs/><g><g transform="translate(-10,-10) scale(1,1)"><rect fill="#C0C0C0" stroke="none" x="27" y="31.5" width="27.878515625" height="15" opacity="0.2"/></g><g transform="translate(-10,-10) scale(1,1)"><rect fill="#C0C0C0" stroke="none" x="27" y="45.5" width="69.6962890625" height="26" opacity="0.2"/></g><g transform="translate(-10,-10) scale(1,1)"><rect fill="#ffffff" stroke="none" x="20" y="39.5" width="69.6962890625" height="25"/></g><g transform="translate(-10,-10) scale(1,1)"><path fill="none" stroke="#000000" d="M 20 39.5 L 89.6962890625 39.5 L 89.6962890625 64.5 L 20 64.5 L 20 39.5 Z Z" stroke-miterlimit="10"/></g><g transform="translate(-10,-10) scale(1,1)"><rect fill="#ffffff" stroke="none" x="20" y="24.5" width="27.878515625" height="15"/></g><g transform="translate(-10,-10) scale(1,1)"><path fill="none" stroke="#000000" d="M 20 24.5 L 47.878515625 24.5 L 47.878515625 39.5 L 20 39.5 L 20 24.5 Z Z" stroke-miterlimit="10"/></g><g transform="translate(-10,-10) scale(1,1)"><rect fill="#ffffff" stroke="none" x="20" y="38.5" width="69.6962890625" height="26"/></g><g transform="translate(-10,-10) scale(1,1)"><path fill="none" stroke="#000000" d="M 20 38.5 L 89.6962890625 38.5 L 89.6962890625 64.5 L 20 64.5 L 20 38.5 Z Z" stroke-miterlimit="10"/></g><g transform="translate(-10,-10) scale(1,1)"><g><path fill="none" stroke="none"/><text fill="#000000" stroke="none" font-family="Arial" font-size="14px" font-style="normal" font-weight="bold" text-decoration="none" x="26.044921875" y="60">database</text></g></g><g transform="translate(-10,-10) scale(1,1)"><rect fill="#C0C0C0" stroke="none" x="119.896484375" y="31.5" width="19.599999999999994" height="15" opacity="0.2"/></g><g transform="translate(-10,-10) scale(1,1)"><rect fill="#C0C0C0" stroke="none" x="119.896484375" y="45.5" width="49" height="26" opacity="0.2"/></g><g transform="translate(-10,-10) scale(1,1)"><rect fill="#ffffff" stroke="none" x="112.896484375" y="39.5" width="49" height="25"/></g><g transform="translate(-10,-10) scale(1,1)"><path fill="none" stroke="#000000" d="M 112.896484375 39.5 L 161.896484375 39.5 L 161.896484375 64.5 L 112.896484375 64.5 L 112.896484375 39.5 Z Z" stroke-miterlimit="10"/></g><g transform="translate(-10,-10) scale(1,1)"><rect fill="#ffffff" stroke="none" x="112.896484375" y="24.5" width="19.599999999999994" height="15"/></g><g transform="translate(-10,-10) scale(1,1)"><path fill="none" stroke="#000000" d="M 112.896484375 24.5 L 132.496484375 24.5 L 132.496484375 39.5 L 112.896484375 39.5 L 112.896484375 24.5 Z Z" stroke-miterlimit="10"/></g><g transform="translate(-10,-10) scale(1,1)"><rect fill="#ffffff" stroke="none" x="112.896484375" y="38.5" width="49" height="26"/></g><g transform="translate(-10,-10) scale(1,1)"><path fill="none" stroke="#000000" d="M 112.896484375 38.5 L 161.896484375 38.5 L 161.896484375 64.5 L 112.896484375 64.5 L 112.896484375 38.5 Z Z" stroke-miterlimit="10"/></g><g transform="translate(-10,-10) scale(1,1)"><g><path fill="none" stroke="none"/><text fill="#000000" stroke="none" font-family="Arial" font-size="14px" font-style="normal" font-weight="bold" text-decoration="none" x="122.6103515625" y="60">exec</text></g></g><g transform="translate(-10,-10) scale(1,1)"><rect fill="#C0C0C0" stroke="none" x="199.896484375" y="31.5" width="25.078515624999994" height="15" opacity="0.2"/></g><g transform="translate(-10,-10) scale(1,1)"><rect fill="#C0C0C0" stroke="none" x="199.896484375" y="45.5" width="62.6962890625" height="26" opacity="0.2"/></g><g transform="translate(-10,-10) scale(1,1)"><rect fill="#ffffff" stroke="none" x="192.896484375" y="39.5" width="62.6962890625" height="25"/></g><g transform="translate(-10,-10) scale(1,1)"><path fill="none" stroke="#000000" d="M 192.896484375 39.5 L 255.5927734375 39.5 L 255.5927734375 64.5 L 192.896484375 64.5 L 192.896484375 39.5 Z Z" stroke-miterlimit="10"/></g><g transform="translate(-10,-10) scale(1,1)"><rect fill="#ffffff" stroke="none" x="192.896484375" y="24.5" width="25.078515624999994" height="15"/></g><g transform="translate(-10,-10) scale(1,1)"><path fill="none" stroke="#000000" d="M 192.896484375 24.5 L 217.975 24.5 L 217.975 39.5 L 192.896484375 39.5 L 192.896484375 24.5 Z Z" stroke-miterlimit="10"/></g><g transform="translate(-10,-10) scale(1,1)"><rect fill="#ffffff" stroke="none" x="192.896484375" y="38.5" width="62.6962890625" height="26"/></g><g transform="translate(-10,-10) scale(1,1)"><path fill="none" stroke="#000000" d="M 192.896484375 38.5 L 255.5927734375 38.5 L 255.5927734375 64.5 L 192.896484375 64.5 L 192.896484375 38.5 Z Z" stroke-miterlimit="10"/></g><g transform="translate(-10,-10) scale(1,1)"><g><path fill="none" stroke="none"/><text fill="#000000" stroke="none" font-family="Arial" font-size="14px" font-style="normal" font-weight="bold" text-decoration="none" x="199.734375" y="60">process</text></g></g><g transform="translate(-10,-10) scale(1,1)"><rect fill="#C0C0C0" stroke="none" x="283.974609375" y="31.5" width="19.600000000000023" height="15" opacity="0.2"/></g><g transform="translate(-10,-10) scale(1,1)"><rect fill="#C0C0C0" stroke="none" x="283.974609375" y="45.5" width="49" height="26" opacity="0.2"/></g><g transform="translate(-10,-10) scale(1,1)"><rect fill="#ffffff" stroke="none" x="276.974609375" y="39.5" width="49" height="25"/></g><g transform="translate(-10,-10) scale(1,1)"><path fill="none" stroke="#000000" d="M 276.974609375 39.5 L 325.974609375 39.5 L 325.974609375 64.5 L 276.974609375 64.5 L 276.974609375 39.5 Z Z" stroke-miterlimit="10"/></g><g transform="translate(-10,-10) scale(1,1)"><rect fill="#ffffff" stroke="none" x="276.974609375" y="24.5" width="19.600000000000023" height="15"/></g><g transform="translate(-10,-10) scale(1,1)"><path fill="none" stroke="#000000" d="M 276.974609375 24.5 L 296.574609375 24.5 L 296.574609375 39.5 L 276.974609375 39.5 L 276.974609375 24.5 Z Z" stroke-miterlimit="10"/></g><g transform="translate(-10,-10) scale(1,1)"><rect fill="#ffffff" stroke="none" x="276.974609375" y="38.5" width="49" height="26"/></g><g transform="translate(-10,-10) scale(1,1)"><path fill="none" stroke="#000000" d="M 276.974609375 38.5 L 325.974609375 38.5 L 325.974609375 64.5 L 276.974609375 64.5 L 276.974609375 38.5 Z Z" stroke-miterlimit="10"/></g><g transform="translate(-10,-10) scale(1,1)"><g><path fill="none" stroke="none"/><text fill="#000000" stroke="none" font-family="Arial" font-size="14px" font-style="normal" font-weight="bold" text-decoration="none" x="296.0263671875" y="60">ui</text></g></g><g transform="translate(-10,-10) scale(1,1)"><path fill="#C0C0C0" stroke="none" d="M 381.87451171875 38.5 C 381.87451171875 32.1487248 387.02323651875 27 393.37451171875 27 C 399.72578691875 27 404.87451171875 32.1487248 404.87451171875 38.5 C 404.87451171875 44.8512752 399.72578691875 50 393.37451171875 50 C 387.02323651875 50 381.87451171875 44.8512752 381.87451171875 38.5 Z" opacity="0.2"/></g><g transform="translate(-10,-10) scale(1,1)"><path fill="#ffffff" stroke="none" d="M 374.87451171875 31.5 C 374.87451171875 25.1487248 380.02323651875 20 386.37451171875 20 C 392.72578691875 20 397.87451171875 25.1487248 397.87451171875 31.5 C 397.87451171875 37.8512752 392.72578691875 43 386.37451171875 43 C 380.02323651875 43 374.87451171875 37.8512752 374.87451171875 31.5 Z"/></g><g transform="translate(-10,-10) scale(1,1)"><path fill="none" stroke="#000000" d="M 374.87451171875 31.5 C 374.87451171875 25.1487248 380.02323651875 20 386.37451171875 20 C 392.72578691875 20 397.87451171875 25.1487248 397.87451171875 31.5 C 397.87451171875 37.8512752 392.72578691875 43 386.37451171875 43 C 380.02323651875 43 374.87451171875 37.8512752 374.87451171875 31.5 Z" stroke-miterlimit="10"/></g><g transform="translate(-10,-10) scale(1,1)"><g><path fill="none" stroke="none"/><text fill="#000000" stroke="none" font-family="Arial" font-size="14px" font-style="normal" font-weight="bold" text-decoration="none" x="363.0263671875" y="63.5">Iterable</text></g></g><g transform="translate(-10,-10) scale(1,1)"><rect fill="#C0C0C0" stroke="none" x="451.40234375" y="39" width="119.3525390625" height="25" opacity="0.2"/></g><g transform="translate(-10,-10) scale(1,1)"><rect fill="#ffffff" stroke="none" x="444.40234375" y="32" width="119.3525390625" height="25"/></g><g transform="translate(-10,-10) scale(1,1)"><path fill="none" stroke="#000000" d="M 444.40234375 32 L 563.7548828125 32 L 563.7548828125 57 L 444.40234375 57 L 444.40234375 32 Z Z" stroke-miterlimit="10"/></g><g transform="translate(-10,-10) scale(1,1)"><g><path fill="none" stroke="none"/><text fill="#000000" stroke="none" font-family="Arial" font-size="14px" font-style="normal" font-weight="bold" text-decoration="none" x="451.9443359375" y="52.5">ExecWithSender</text></g></g><g transform="translate(-10,-10) scale(1,1)"><path fill="#C0C0C0" stroke="none" d="M 601.60791015625 38.5 C 601.60791015625 32.1487248 606.75663495625 27 613.10791015625 27 C 619.45918535625 27 624.60791015625 32.1487248 624.60791015625 38.5 C 624.60791015625 44.8512752 619.45918535625 50 613.10791015625 50 C 606.75663495625 50 601.60791015625 44.8512752 601.60791015625 38.5 Z" opacity="0.2"/></g><g transform="translate(-10,-10) scale(1,1)"><path fill="#ffffff" stroke="none" d="M 594.60791015625 31.5 C 594.60791015625 25.1487248 599.75663495625 20 606.10791015625 20 C 612.45918535625 20 617.60791015625 25.1487248 617.60791015625 31.5 C 617.60791015625 37.8512752 612.45918535625 43 606.10791015625 43 C 599.75663495625 43 594.60791015625 37.8512752 594.60791015625 31.5 Z"/></g><g transform="translate(-10,-10) scale(1,1)"><path fill="none" stroke="#000000" d="M 594.60791015625 31.5 C 594.60791015625 25.1487248 599.75663495625 20 606.10791015625 20 C 612.45918535625 20 617.60791015625 25.1487248 617.60791015625 31.5 C 617.60791015625 37.8512752 612.45918535625 43 606.10791015625 43 C 599.75663495625 43 594.60791015625 37.8512752 594.60791015625 31.5 Z" stroke-miterlimit="10"/></g><g transform="translate(-10,-10) scale(1,1)"><g><path fill="none" stroke="none"/><text fill="#000000" stroke="none" font-family="Arial" font-size="14px" font-style="normal" font-weight="bold" text-decoration="none" x="590.5458984375" y="63.5">Exec</text></g></g><g transform="translate(-10,-10) scale(1,1)"><path fill="#C0C0C0" stroke="none" d="M 692.93212890625 38.5 C 692.93212890625 32.1487248 698.08085370625 27 704.43212890625 27 C 710.78340410625 27 715.93212890625 32.1487248 715.93212890625 38.5 C 715.93212890625 44.8512752 710.78340410625 50 704.43212890625 50 C 698.08085370625 50 692.93212890625 44.8512752 692.93212890625 38.5 Z" opacity="0.2"/></g><g transform="translate(-10,-10) scale(1,1)"><path fill="#ffffff" stroke="none" d="M 685.93212890625 31.5 C 685.93212890625 25.1487248 691.08085370625 20 697.43212890625 20 C 703.78340410625 20 708.93212890625 25.1487248 708.93212890625 31.5 C 708.93212890625 37.8512752 703.78340410625 43 697.43212890625 43 C 691.08085370625 43 685.93212890625 37.8512752 685.93212890625 31.5 Z"/></g><g transform="translate(-10,-10) scale(1,1)"><path fill="none" stroke="#000000" d="M 685.93212890625 31.5 C 685.93212890625 25.1487248 691.08085370625 20 697.43212890625 20 C 703.78340410625 20 708.93212890625 25.1487248 708.93212890625 31.5 C 708.93212890625 37.8512752 703.78340410625 43 697.43212890625 43 C 691.08085370625 43 685.93212890625 37.8512752 685.93212890625 31.5 Z" stroke-miterlimit="10"/></g><g transform="translate(-10,-10) scale(1,1)"><g><path fill="none" stroke="none"/><text fill="#000000" stroke="none" font-family="Arial" font-size="14px" font-style="normal" font-weight="bold" text-decoration="none" x="661.24609375" y="63.5">Displayable</text></g></g><g transform="translate(-10,-10) scale(1,1)"><rect fill="#C0C0C0" stroke="none" x="771.0390625" y="39" width="104.6826171875" height="25" opacity="0.2"/></g><g transform="translate(-10,-10) scale(1,1)"><rect fill="#ffffff" stroke="none" x="764.0390625" y="32" width="104.6826171875" height="25"/></g><g transform="translate(-10,-10) scale(1,1)"><path fill="none" stroke="#000000" d="M 764.0390625 32 L 868.7216796875 32 L 868.7216796875 57 L 764.0390625 57 L 764.0390625 32 Z Z" stroke-miterlimit="10"/></g><g transform="translate(-10,-10) scale(1,1)"><g><path fill="none" stroke="none"/><text fill="#000000" stroke="none" font-family="Arial" font-size="14px" font-style="normal" font-weight="bold" text-decoration="none" x="771.63232421875" y="52.5">SQLException</text></g></g><g transform="translate(-10,-10) scale(1,1)"><rect fill="#C0C0C0" stroke="none" x="898.9423828125" y="39" width="64.2275390625" height="25" opacity="0.2"/></g><g transform="translate(-10,-10) scale(1,1)"><rect fill="#ffffff" stroke="none" x="891.9423828125" y="32" width="64.2275390625" height="25"/></g><g transform="translate(-10,-10) scale(1,1)"><path fill="none" stroke="#000000" d="M 891.9423828125 32 L 956.169921875 32 L 956.169921875 57 L 891.9423828125 57 L 891.9423828125 32 Z Z" stroke-miterlimit="10"/></g><g transform="translate(-10,-10) scale(1,1)"><g><path fill="none" stroke="none"/><text fill="#000000" stroke="none" font-family="Arial" font-size="14px" font-style="normal" font-weight="bold" text-decoration="none" x="898.36669921875" y="52.5">Boolean</text></g></g><g transform="translate(-10,-10) scale(1,1)"><rect fill="#C0C0C0" stroke="none" x="987.169921875" y="39" width="114.5400390625" height="25" opacity="0.2"/></g><g transform="translate(-10,-10) scale(1,1)"><rect fill="#ffffff" stroke="none" x="980.169921875" y="32" width="114.5400390625" height="25"/></g><g transform="translate(-10,-10) scale(1,1)"><path fill="none" stroke="#000000" d="M 980.169921875 32 L 1094.7099609375 32 L 1094.7099609375 57 L 980.169921875 57 L 980.169921875 32 Z Z" stroke-miterlimit="10"/></g><g transform="translate(-10,-10) scale(1,1)"><g><path fill="none" stroke="none"/><text fill="#000000" stroke="none" font-family="Arial" font-size="14px" font-style="normal" font-weight="bold" text-decoration="none" x="988.0263671875" y="52.5">ImmutableTable</text></g></g><g transform="translate(-10,-10) scale(1,1)"><rect fill="#C0C0C0" stroke="none" x="1126.22265625" y="39" width="117.91015625" height="25" opacity="0.2"/></g><g transform="translate(-10,-10) scale(1,1)"><rect fill="#ffffff" stroke="none" x="1119.22265625" y="32" width="117.91015625" height="25"/></g><g transform="translate(-10,-10) scale(1,1)"><path fill="none" stroke="#000000" d="M 1119.22265625 32 L 1237.1328125 32 L 1237.1328125 57 L 1119.22265625 57 L 1119.22265625 32 Z Z" stroke-miterlimit="10"/></g><g transform="translate(-10,-10) scale(1,1)"><g><path fill="none" stroke="none"/><text fill="#000000" stroke="none" font-family="Arial" font-size="14px" font-style="normal" font-weight="bold" text-decoration="none" x="1126.81591796875" y="52.5">MuteableRecord</text></g></g><g transform="translate(-10,-10) scale(1,1)"><rect fill="#C0C0C0" stroke="none" x="1266.5263671875" y="39" width="155.220703125" height="25" opacity="0.2"/></g><g transform="translate(-10,-10) scale(1,1)"><rect fill="#ffffff" stroke="none" x="1259.5263671875" y="32" width="155.220703125" height="25"/></g><g transform="translate(-10,-10) scale(1,1)"><path fill="none" stroke="#000000" d="M 1259.5263671875 32 L 1414.7470703125 32 L 1414.7470703125 57 L 1259.5263671875 57 L 1259.5263671875 32 Z Z" stroke-miterlimit="10"/></g><g transform="translate(-10,-10) scale(1,1)"><g><path fill="none" stroke="none"/><text fill="#000000" stroke="none" font-family="Arial" font-size="14px" font-style="normal" font-weight="bold" text-decoration="none" x="1271.388671875" y="52.5">AttributesConstructor</text></g></g><g transform="translate(-10,-10) scale(1,1)"><rect fill="#C0C0C0" stroke="none" x="1441.0576171875" y="39" width="70.181640625" height="25" opacity="0.2"/></g><g transform="translate(-10,-10) scale(1,1)"><rect fill="#ffffff" stroke="none" x="1434.0576171875" y="32" width="70.181640625" height="25"/></g><g transform="translate(-10,-10) scale(1,1)"><path fill="none" stroke="#000000" d="M 1434.0576171875 32 L 1504.2392578125 32 L 1504.2392578125 57 L 1434.0576171875 57 L 1434.0576171875 32 Z Z" stroke-miterlimit="10"/></g><g transform="translate(-10,-10) scale(1,1)"><g><path fill="none" stroke="none"/><text fill="#000000" stroke="none" font-family="Arial" font-size="14px" font-style="normal" font-weight="bold" text-decoration="none" x="1440.73828125" y="52.5">TableInfo</text></g></g><g transform="translate(-10,-10) scale(1,1)"><rect fill="#C0C0C0" stroke="none" x="1538.896484375" y="39" width="61.14453125" height="25" opacity="0.2"/></g><g transform="translate(-10,-10) scale(1,1)"><rect fill="#ffffff" stroke="none" x="1531.896484375" y="32" width="61.14453125" height="25"/></g><g transform="translate(-10,-10) scale(1,1)"><path fill="none" stroke="#000000" d="M 1531.896484375 32 L 1593.041015625 32 L 1593.041015625 57 L 1531.896484375 57 L 1531.896484375 32 Z Z" stroke-miterlimit="10"/></g><g transform="translate(-10,-10) scale(1,1)"><g><path fill="none" stroke="none"/><text fill="#000000" stroke="none" font-family="Arial" font-size="14px" font-style="normal" font-weight="bold" text-decoration="none" x="1537.95849609375" y="52.5">KeyPair</text></g></g><g transform="translate(-10,-10) scale(1,1)"><rect fill="#C0C0C0" stroke="none" x="1628.6552734375" y="39" width="73.572265625" height="25" opacity="0.2"/></g><g transform="translate(-10,-10) scale(1,1)"><rect fill="#ffffff" stroke="none" x="1621.6552734375" y="32" width="73.572265625" height="25"/></g><g transform="translate(-10,-10) scale(1,1)"><path fill="none" stroke="#000000" d="M 1621.6552734375 32 L 1695.2275390625 32 L 1695.2275390625 57 L 1621.6552734375 57 L 1621.6552734375 32 Z Z" stroke-miterlimit="10"/></g><g transform="translate(-10,-10) scale(1,1)"><g><path fill="none" stroke="none"/><text fill="#000000" stroke="none" font-family="Arial" font-size="14px" font-style="normal" font-weight="bold" text-decoration="none" x="1628.09326171875" y="52.5">ResultSet</text></g></g><g transform="translate(-10,-10) scale(1,1)"><rect fill="#C0C0C0" stroke="none" x="1725.427734375" y="39" width="76.6826171875" height="25" opacity="0.2"/></g><g transform="translate(-10,-10) scale(1,1)"><rect fill="#ffffff" stroke="none" x="1718.427734375" y="32" width="76.6826171875" height="25"/></g><g transform="translate(-10,-10) scale(1,1)"><path fill="none" stroke="#000000" d="M 1718.427734375 32 L 1795.1103515625 32 L 1795.1103515625 57 L 1718.427734375 57 L 1718.427734375 32 Z Z" stroke-miterlimit="10"/></g><g transform="translate(-10,-10) scale(1,1)"><g><path fill="none" stroke="none"/><text fill="#000000" stroke="none" font-family="Arial" font-size="14px" font-style="normal" font-weight="bold" text-decoration="none" x="1724.8623046875" y="52.5">Statement</text></g></g><g transform="translate(-10,-10) scale(1,1)"><rect fill="#C0C0C0" stroke="none" x="1826.076171875" y="39" width="85.9931640625" height="25" opacity="0.2"/></g><g transform="translate(-10,-10) scale(1,1)"><rect fill="#ffffff" stroke="none" x="1819.076171875" y="32" width="85.9931640625" height="25"/></g><g transform="translate(-10,-10) scale(1,1)"><path fill="none" stroke="#000000" d="M 1819.076171875 32 L 1905.0693359375 32 L 1905.0693359375 57 L 1819.076171875 57 L 1819.076171875 32 Z Z" stroke-miterlimit="10"/></g><g transform="translate(-10,-10) scale(1,1)"><g><path fill="none" stroke="none"/><text fill="#000000" stroke="none" font-family="Arial" font-size="14px" font-style="normal" font-weight="bold" text-decoration="none" x="1826.6591796875" y="52.5">Connection</text></g></g><g transform="translate(-10,-10) scale(1,1)"><rect fill="#C0C0C0" stroke="none" x="1934.5244140625" y="39" width="111.4365234375" height="25" opacity="0.2"/></g><g transform="translate(-10,-10) scale(1,1)"><rect fill="#ffffff" stroke="none" x="1927.5244140625" y="32" width="111.4365234375" height="25"/></g><g transform="translate(-10,-10) scale(1,1)"><path fill="none" stroke="#000000" d="M 1927.5244140625 32 L 2038.9609375 32 L 2038.9609375 57 L 1927.5244140625 57 L 1927.5244140625 32 Z Z" stroke-miterlimit="10"/></g><g transform="translate(-10,-10) scale(1,1)"><g><path fill="none" stroke="none"/><text fill="#000000" stroke="none" font-family="Arial" font-size="14px" font-style="normal" font-weight="bold" text-decoration="none" x="1934.9912109375" y="52.5">TableGenerator</text></g></g><g transform="translate(-10,-10) scale(1,1)"><rect fill="#C0C0C0" stroke="none" x="2069.66015625" y="39" width="141.767578125" height="25" opacity="0.2"/></g><g transform="translate(-10,-10) scale(1,1)"><rect fill="#ffffff" stroke="none" x="2062.66015625" y="32" width="141.767578125" height="25"/></g><g transform="translate(-10,-10) scale(1,1)"><path fill="none" stroke="#000000" d="M 2062.66015625 32 L 2204.427734375 32 L 2204.427734375 57 L 2062.66015625 57 L 2062.66015625 32 Z Z" stroke-miterlimit="10"/></g><g transform="translate(-10,-10) scale(1,1)"><g><path fill="none" stroke="none"/><text fill="#000000" stroke="none" font-family="Arial" font-size="14px" font-style="normal" font-weight="bold" text-decoration="none" x="2071.2822265625" y="52.5">TablePoolGenerator</text></g></g><g transform="translate(-10,-10) scale(1,1)"><rect fill="#C0C0C0" stroke="none" x="2231.2373046875" y="39" width="74.857421875" height="25" opacity="0.2"/></g><g transform="translate(-10,-10) scale(1,1)"><rect fill="#ffffff" stroke="none" x="2224.2373046875" y="32" width="74.857421875" height="25"/></g><g transform="translate(-10,-10) scale(1,1)"><path fill="none" stroke="#000000" d="M 2224.2373046875 32 L 2299.0947265625 32 L 2299.0947265625 57 L 2224.2373046875 57 L 2224.2373046875 32 Z Z" stroke-miterlimit="10"/></g><g transform="translate(-10,-10) scale(1,1)"><g><path fill="none" stroke="none"/><text fill="#000000" stroke="none" font-family="Arial" font-size="14px" font-style="normal" font-weight="bold" text-decoration="none" x="2230.92138671875" y="52.5">TablePool</text></g></g><g transform="translate(-10,-10) scale(1,1)"><rect fill="#C0C0C0" stroke="none" x="2330.62109375" y="39" width="137.3447265625" height="25" opacity="0.2"/></g><g transform="translate(-10,-10) scale(1,1)"><rect fill="#ffffff" stroke="none" x="2323.62109375" y="32" width="137.3447265625" height="25"/></g><g transform="translate(-10,-10) scale(1,1)"><path fill="none" stroke="#000000" d="M 2323.62109375 32 L 2460.9658203125 32 L 2460.9658203125 57 L 2323.62109375 57 L 2323.62109375 32 Z Z" stroke-miterlimit="10"/></g><g transform="translate(-10,-10) scale(1,1)"><g><path fill="none" stroke="none"/><text fill="#000000" stroke="none" font-family="Arial" font-size="14px" font-style="normal" font-weight="bold" text-decoration="none" x="2333.548828125" y="52.5">RecordConstructor</text></g></g><g transform="translate(-10,-10) scale(1,1)"><rect fill="#C0C0C0" stroke="none" x="2487.255859375" y="39" width="44.5263671875" height="25" opacity="0.2"/></g><g transform="translate(-10,-10) scale(1,1)"><rect fill="#ffffff" stroke="none" x="2480.255859375" y="32" width="44.5263671875" height="25"/></g><g transform="translate(-10,-10) scale(1,1)"><path fill="none" stroke="#000000" d="M 2480.255859375 32 L 2524.7822265625 32 L 2524.7822265625 57 L 2480.255859375 57 L 2480.255859375 32 Z Z" stroke-miterlimit="10"/></g><g transform="translate(-10,-10) scale(1,1)"><g><path fill="none" stroke="none"/><text fill="#000000" stroke="none" font-family="Arial" font-size="14px" font-style="normal" font-weight="bold" text-decoration="none" x="2485.78466796875" y="52.5">Table</text></g></g><g transform="translate(-10,-10) scale(1,1)"><rect fill="#C0C0C0" stroke="none" x="2560.1982421875" y="39" width="57.234375" height="25" opacity="0.2"/></g><g transform="translate(-10,-10) scale(1,1)"><rect fill="#ffffff" stroke="none" x="2553.1982421875" y="32" width="57.234375" height="25"/></g><g transform="translate(-10,-10) scale(1,1)"><path fill="none" stroke="#000000" d="M 2553.1982421875 32 L 2610.4326171875 32 L 2610.4326171875 57 L 2553.1982421875 57 L 2553.1982421875 32 Z Z" stroke-miterlimit="10"/></g><g transform="translate(-10,-10) scale(1,1)"><g><path fill="none" stroke="none"/><text fill="#000000" stroke="none" font-family="Arial" font-size="14px" font-style="normal" font-weight="bold" text-decoration="none" x="2559.6396484375" y="52.5">Iterator</text></g></g><g transform="translate(-10,-10) scale(1,1)"><rect fill="#C0C0C0" stroke="none" x="2647.6123046875" y="39" width="127.248046875" height="25" opacity="0.2"/></g><g transform="translate(-10,-10) scale(1,1)"><rect fill="#ffffff" stroke="none" x="2640.6123046875" y="32" width="127.248046875" height="25"/></g><g transform="translate(-10,-10) scale(1,1)"><path fill="none" stroke="#000000" d="M 2640.6123046875 32 L 2767.8603515625 32 L 2767.8603515625 57 L 2640.6123046875 57 L 2640.6123046875 32 Z Z" stroke-miterlimit="10"/></g><g transform="translate(-10,-10) scale(1,1)"><g><path fill="none" stroke="none"/><text fill="#000000" stroke="none" font-family="Arial" font-size="14px" font-style="normal" font-weight="bold" text-decoration="none" x="2648.99169921875" y="52.5">ImmutableRecord</text></g></g><g transform="translate(-10,-10) scale(1,1)"><rect fill="#C0C0C0" stroke="none" x="2797.2607421875" y="39" width="95.0986328125" height="25" opacity="0.2"/></g><g transform="translate(-10,-10) scale(1,1)"><rect fill="#ffffff" stroke="none" x="2790.2607421875" y="32" width="95.0986328125" height="25"/></g><g transform="translate(-10,-10) scale(1,1)"><path fill="none" stroke="#000000" d="M 2790.2607421875 32 L 2885.359375 32 L 2885.359375 57 L 2790.2607421875 57 L 2790.2607421875 32 Z Z" stroke-miterlimit="10"/></g><g transform="translate(-10,-10) scale(1,1)"><g><path fill="none" stroke="none"/><text fill="#000000" stroke="none" font-family="Arial" font-size="14px" font-style="normal" font-weight="bold" text-decoration="none" x="2797.73779296875" y="52.5">TableFactory</text></g></g><g transform="translate(-10,-10) scale(1,1)"><rect fill="#C0C0C0" stroke="none" x="2916.8447265625" y="39" width="131.9306640625" height="25" opacity="0.2"/></g><g transform="translate(-10,-10) scale(1,1)"><rect fill="#ffffff" stroke="none" x="2909.8447265625" y="32" width="131.9306640625" height="25"/></g><g transform="translate(-10,-10) scale(1,1)"><path fill="none" stroke="#000000" d="M 2909.8447265625 32 L 3041.775390625 32 L 3041.775390625 57 L 2909.8447265625 57 L 2909.8447265625 32 Z Z" stroke-miterlimit="10"/></g><g transform="translate(-10,-10) scale(1,1)"><g><path fill="none" stroke="none"/><text fill="#000000" stroke="none" font-family="Arial" font-size="14px" font-style="normal" font-weight="bold" text-decoration="none" x="2918.220703125" y="52.5">AdvanceResultSet</text></g></g><g transform="translate(-10,-10) scale(1,1)"><rect fill="#C0C0C0" stroke="none" x="3065.7275390625" y="39" width="67.37890625" height="25" opacity="0.2"/></g><g transform="translate(-10,-10) scale(1,1)"><rect fill="#ffffff" stroke="none" x="3058.7275390625" y="32" width="67.37890625" height="25"/></g><g transform="translate(-10,-10) scale(1,1)"><path fill="none" stroke="#000000" d="M 3058.7275390625 32 L 3126.1064453125 32 L 3126.1064453125 57 L 3058.7275390625 57 L 3058.7275390625 32 Z Z" stroke-miterlimit="10"/></g><g transform="translate(-10,-10) scale(1,1)"><g><path fill="none" stroke="none"/><text fill="#000000" stroke="none" font-family="Arial" font-size="14px" font-style="normal" font-weight="bold" text-decoration="none" x="3064.79638671875" y="52.5">Recevier</text></g></g><g transform="translate(-10,-10) scale(1,1)"><rect fill="#C0C0C0" stroke="none" x="3157.796875" y="39" width="47.6572265625" height="25" opacity="0.2"/></g><g transform="translate(-10,-10) scale(1,1)"><rect fill="#ffffff" stroke="none" x="3150.796875" y="32" width="47.6572265625" height="25"/></g><g transform="translate(-10,-10) scale(1,1)"><path fill="none" stroke="#000000" d="M 3150.796875 32 L 3198.4541015625 32 L 3198.4541015625 57 L 3150.796875 57 L 3150.796875 32 Z Z" stroke-miterlimit="10"/></g><g transform="translate(-10,-10) scale(1,1)"><g><path fill="none" stroke="none"/><text fill="#000000" stroke="none" font-family="Arial" font-size="14px" font-style="normal" font-weight="bold" text-decoration="none" x="3156.732421875" y="52.5">Tasks</text></g></g><g transform="translate(-10,-10) scale(1,1)"><rect fill="#C0C0C0" stroke="none" x="3231.5322265625" y="39" width="132.67578125" height="25" opacity="0.2"/></g><g transform="translate(-10,-10) scale(1,1)"><rect fill="#ffffff" stroke="none" x="3224.5322265625" y="32" width="132.67578125" height="25"/></g><g transform="translate(-10,-10) scale(1,1)"><path fill="none" stroke="#000000" d="M 3224.5322265625 32 L 3357.2080078125 32 L 3357.2080078125 57 L 3224.5322265625 57 L 3224.5322265625 32 Z Z" stroke-miterlimit="10"/></g><g transform="translate(-10,-10) scale(1,1)"><g><path fill="none" stroke="none"/><text fill="#000000" stroke="none" font-family="Arial" font-size="14px" font-style="normal" font-weight="bold" text-decoration="none" x="3233.6806640625" y="52.5">UIStatusController</text></g></g><g transform="translate(-10,-10) scale(1,1)"><rect fill="#C0C0C0" stroke="none" x="3387.1689453125" y="39" width="37" height="25" opacity="0.2"/></g><g transform="translate(-10,-10) scale(1,1)"><rect fill="#ffffff" stroke="none" x="3380.1689453125" y="32" width="37" height="25"/></g><g transform="translate(-10,-10) scale(1,1)"><path fill="none" stroke="#000000" d="M 3380.1689453125 32 L 3417.1689453125 32 L 3417.1689453125 57 L 3380.1689453125 57 L 3380.1689453125 32 Z Z" stroke-miterlimit="10"/></g><g transform="translate(-10,-10) scale(1,1)"><g><path fill="none" stroke="none"/><text fill="#000000" stroke="none" font-family="Arial" font-size="14px" font-style="normal" font-weight="bold" text-decoration="none" x="3385.0517578125" y="52.5">Map</text></g></g><g transform="translate(-10,-10) scale(1,1)"><rect fill="#C0C0C0" stroke="none" x="3455.1689453125" y="39" width="65.7998046875" height="25" opacity="0.2"/></g><g transform="translate(-10,-10) scale(1,1)"><rect fill="#ffffff" stroke="none" x="3448.1689453125" y="32" width="65.7998046875" height="25"/></g><g transform="translate(-10,-10) scale(1,1)"><path fill="none" stroke="#000000" d="M 3448.1689453125 32 L 3513.96875 32 L 3513.96875 57 L 3448.1689453125 57 L 3448.1689453125 32 Z Z" stroke-miterlimit="10"/></g><g transform="translate(-10,-10) scale(1,1)"><g><path fill="none" stroke="none"/><text fill="#000000" stroke="none" font-family="Arial" font-size="14px" font-style="normal" font-weight="bold" text-decoration="none" x="3453.318359375" y="52.5">TreeMap</text></g></g><g transform="translate(-10,-10) scale(1,1)"><rect fill="#C0C0C0" stroke="none" x="3549.8701171875" y="39" width="93.068359375" height="25" opacity="0.2"/></g><g transform="translate(-10,-10) scale(1,1)"><rect fill="#ffffff" stroke="none" x="3542.8701171875" y="32" width="93.068359375" height="25"/></g><g transform="translate(-10,-10) scale(1,1)"><path fill="none" stroke="#000000" d="M 3542.8701171875 32 L 3635.9384765625 32 L 3635.9384765625 57 L 3542.8701171875 57 L 3542.8701171875 32 Z Z" stroke-miterlimit="10"/></g><g transform="translate(-10,-10) scale(1,1)"><g><path fill="none" stroke="none"/><text fill="#000000" stroke="none" font-family="Arial" font-size="14px" font-style="normal" font-weight="bold" text-decoration="none" x="3548.93896484375" y="52.5">Recevier&lt;E&gt;</text></g></g><g transform="translate(-10,-10) scale(1,1)"><rect fill="#C0C0C0" stroke="none" x="3667.232421875" y="39" width="92.001953125" height="25" opacity="0.2"/></g><g transform="translate(-10,-10) scale(1,1)"><rect fill="#ffffff" stroke="none" x="3660.232421875" y="32" width="92.001953125" height="25"/></g><g transform="translate(-10,-10) scale(1,1)"><path fill="none" stroke="#000000" d="M 3660.232421875 32 L 3752.234375 32 L 3752.234375 57 L 3660.232421875 57 L 3660.232421875 32 Z Z" stroke-miterlimit="10"/></g><g transform="translate(-10,-10) scale(1,1)"><g><path fill="none" stroke="none"/><text fill="#000000" stroke="none" font-family="Arial" font-size="14px" font-style="normal" font-weight="bold" text-decoration="none" x="3667.330078125" y="52.5">TasksCenter</text></g></g><g transform="translate(-10,-10) scale(1,1)"><rect fill="#C0C0C0" stroke="none" x="3782.16796875" y="39" width="56.4619140625" height="25" opacity="0.2"/></g><g transform="translate(-10,-10) scale(1,1)"><rect fill="#ffffff" stroke="none" x="3775.16796875" y="32" width="56.4619140625" height="25"/></g><g transform="translate(-10,-10) scale(1,1)"><path fill="none" stroke="#000000" d="M 3775.16796875 32 L 3831.6298828125 32 L 3831.6298828125 57 L 3775.16796875 57 L 3775.16796875 32 Z Z" stroke-miterlimit="10"/></g><g transform="translate(-10,-10) scale(1,1)"><g><path fill="none" stroke="none"/><text fill="#000000" stroke="none" font-family="Arial" font-size="14px" font-style="normal" font-weight="bold" text-decoration="none" x="3780.82666015625" y="52.5">Sender</text></g></g></g></svg>